SeanSans-WideThin.ufo
<glyph name="quotedbl" format="1">
  <advance width="406"/>
  <unicode hex="0022"/>
  <outline>
    <contour>
      <point x="106" y="612" type="line"/>
      <point x="109" y="800" type="line"/>
      <point x="78" y="800" type="line"/>
      <point x="81" y="612" type="line"/>
    </contour>
    <contour>
      <point x="325" y="612" type="line"/>
      <point x="328" y="800" type="line"/>
      <point x="297" y="800" type="line"/>
      <point x="300" y="612" type="line"/>
    </contour>
  </outline>
</glyph>
<glyph name="numbersign" format="1">
  <advance width="820"/>
  <unicode hex="0023"/>
  <outline>
    <contour>
      <point x="47" y="247" type="curve"/>
      <point x="671" y="247" type="curve"/>
      <point x="678" y="270" type="curve"/>
      <point x="55" y="270" type="curve"/>
    </contour>
    <contour>
      <point x="140" y="491" type="curve"/>
      <point x="765" y="491" type="curve"/>
      <point x="772" y="513" type="curve"/>
      <point x="148" y="513" type="curve"/>
    </contour>
    <contour>
      <point x="478" y="39" type="curve"/>
      <point x="756" y="722" type="curve"/>
      <point x="731" y="722" type="curve"/>
      <point x="452" y="39" type="curve"/>
    </contour>
    <contour>
      <point x="121" y="46" type="curve"/>
      <point x="394" y="722" type="curve"/>
      <point x="368" y="722" type="curve"/>
      <point x="96" y="46" type="curve"/>
    </contour>
  </outline>
</glyph>
<glyph name="dollar" format="1">
  <advance width="653"/>
  <unicode hex="0024"/>
  <outline>
    <contour>
      <point x="317" y="-43" type="curve"/>
      <point x="317" y="-9"/>
      <point x="317" y="25"/>
      <point x="317" y="59" type="curve"/>
      <point x="291" y="59"/>
      <point x="317" y="59"/>
      <point x="291" y="59" type="curve"/>
      <point x="291" y="25"/>
      <point x="291" y="-9"/>
      <point x="291" y="-43" type="curve"/>
      <point x="317" y="-43"/>
      <point x="291" y="-43"/>
    </contour>
    <contour>
      <point x="333" y="671" type="curve"/>
      <point x="333" y="705"/>
      <point x="333" y="739"/>
      <point x="333" y="773" type="curve"/>
      <point x="307" y="773"/>
      <point x="333" y="773"/>
      <point x="307" y="773" type="curve"/>
      <point x="307" y="739"/>
      <point x="307" y="705"/>
      <point x="307" y="671" type="curve"/>
      <point x="333" y="671"/>
      <point x="307" y="671"/>
    </contour>
    <contour>
      <point x="55" y="99" type="curve"/>
      <point x="125" y="71"/>
      <point x="209" y="48"/>
      <point x="303" y="48" type="curve"/>
      <point x="458" y="48"/>
      <point x="593" y="77"/>
      <point x="593" y="198" type="curve"/>
      <point x="593" y="316"/>
      <point x="460" y="342"/>
      <point x="330" y="385" type="curve"/>
      <point x="216" y="424"/>
      <point x="113" y="446"/>
      <point x="113" y="543" type="curve"/>
      <point x="113" y="632"/>
      <point x="210" y="661"/>
      <point x="326" y="661" type="curve"/>
      <point x="416" y="661"/>
      <point x="480" y="646"/>
      <point x="560" y="612" type="curve"/>
      <point x="574" y="631"/>
      <point x="560" y="612"/>
      <point x="574" y="631" type="curve"/>
      <point x="489" y="666"/>
      <point x="421" y="683"/>
      <point x="328" y="683" type="curve"/>
      <point x="195" y="683"/>
      <point x="87" y="648"/>
      <point x="87" y="543" type="curve"/>
      <point x="87" y="432"/>
      <point x="194" y="405"/>
      <point x="315" y="365" type="curve"/>
      <point x="438" y="325"/>
      <point x="568" y="301"/>
      <point x="568" y="197" type="curve"/>
      <point x="568" y="97"/>
      <point x="446" y="70"/>
      <point x="306" y="70" type="curve"/>
      <point x="215" y="70"/>
      <point x="136" y="94"/>
      <point x="68" y="119" type="curve"/>
      <point x="55" y="99"/>
      <point x="68" y="119"/>
    </contour>
  </outline>
</glyph>
<glyph name="ampersand" format="1">
  <advance width="810"/>
  <unicode hex="0026"/>
  <outline>
    <contour>
      <point x="798" y="11" type="line"/>
      <point x="652" y="126"/>
      <point x="516" y="234"/>
      <point x="370" y="349" type="curve"/>
      <point x="288" y="420"/>
      <point x="185" y="466"/>
      <point x="185" y="577" type="curve"/>
      <point x="185" y="658"/>
      <point x="250" y="704"/>
      <point x="337" y="704" type="curve"/>
      <point x="431" y="704"/>
      <point x="506" y="664"/>
      <point x="506" y="579" type="curve"/>
      <point x="506" y="469"/>
      <point x="405" y="433"/>
      <point x="301" y="388" type="curve"/>
      <point x="186" y="335"/>
      <point x="72" y="299"/>
      <point x="72" y="177" type="curve"/>
      <point x="72" y="50"/>
      <point x="188" y="-5"/>
      <point x="331" y="-5" type="curve"/>
      <point x="540" y="-5"/>
      <point x="675" y="120"/>
      <point x="753" y="318" type="curve"/>
      <point x="732" y="323"/>
      <point x="753" y="318"/>
      <point x="732" y="323" type="curve"/>
      <point x="657" y="136"/>
      <point x="529" y="17"/>
      <point x="332" y="17" type="curve"/>
      <point x="203" y="17"/>
      <point x="97" y="63"/>
      <point x="97" y="177" type="curve"/>
      <point x="97" y="291"/>
      <point x="204" y="321"/>
      <point x="311" y="369" type="curve"/>
      <point x="423" y="421"/>
      <point x="530" y="460"/>
      <point x="531" y="579" type="curve"/>
      <point x="531" y="678"/>
      <point x="446" y="726"/>
      <point x="339" y="726" type="curve"/>
      <point x="236" y="726"/>
      <point x="161" y="672"/>
      <point x="161" y="577" type="curve"/>
      <point x="161" y="461"/>
      <point x="264" y="408"/>
      <point x="353" y="336" type="curve"/>
      <point x="494" y="224"/>
      <point x="643" y="107"/>
      <point x="784" y="-5" type="curve"/>
    </contour>
  </outline>
</glyph>
<glyph name="parenleft" format="1">
  <advance width="395"/>
  <unicode hex="0028"/>
  <outline>
    <contour>
      <point x="392" y="-235" type="curve"/>
      <point x="195" y="-83"/>
      <point x="89" y="76"/>
      <point x="89" y="326" type="curve"/>
      <point x="89" y="575"/>
      <point x="196" y="732"/>
      <point x="390" y="888" type="curve"/>
      <point x="375" y="903"/>
      <point x="390" y="888"/>
      <point x="375" y="903" type="curve"/>
      <point x="172" y="746"/>
      <point x="63" y="583"/>
      <point x="63" y="326" type="curve"/>
      <point x="63" y="69"/>
      <point x="173" y="-93"/>
      <point x="377" y="-251" type="curve"/>
      <point x="392" y="-235"/>
      <point x="377" y="-251"/>
    </contour>
  </outline>
</glyph>
<glyph name="parenright" format="1">
  <advance width="410"/>
  <unicode hex="0029"/>
  <outline>
    <contour>
      <point x="17" y="-267" type="curve"/>
      <point x="225" y="-101"/>
      <point x="348" y="60"/>
      <point x="348" y="327" type="curve"/>
      <point x="348" y="588"/>
      <point x="232" y="748"/>
      <point x="22" y="903" type="curve"/>
      <point x="7" y="887"/>
      <point x="22" y="903"/>
      <point x="7" y="887" type="curve"/>
      <point x="208" y="733"/>
      <point x="321" y="578"/>
      <point x="321" y="326" type="curve"/>
      <point x="321" y="68"/>
      <point x="198" y="-86"/>
      <point x="1" y="-252" type="curve"/>
      <point x="17" y="-267"/>
      <point x="1" y="-252"/>
    </contour>
  </outline>
</glyph>
<glyph name="asterisk" format="1">
  <advance width="678"/>
  <unicode hex="002A"/>
  <outline>
    <contour>
      <point x="346" y="606" type="line"/>
      <point x="349" y="794" type="line"/>
      <point x="318" y="794" type="line"/>
      <point x="321" y="606" type="line"/>
    </contour>
    <contour>
      <point x="416" y="548" type="line"/>
      <point x="596" y="603" type="line"/>
      <point x="587" y="633" type="line"/>
      <point x="409" y="572" type="line"/>
    </contour>
    <contour>
      <point x="384" y="464" type="line"/>
      <point x="492" y="309" type="line"/>
      <point x="517" y="328" type="line"/>
      <point x="403" y="478" type="line"/>
    </contour>
    <contour>
      <point x="292" y="469" type="line"/>
      <point x="178" y="318" type="line"/>
      <point x="204" y="300" type="line"/>
      <point x="312" y="454" type="line"/>
    </contour>
    <contour>
      <point x="269" y="557" type="line"/>
      <point x="91" y="618" type="line"/>
      <point x="81" y="588" type="line"/>
      <point x="261" y="533" type="line"/>
    </contour>
  </outline>
</glyph>
<glyph name="plus" format="1">
  <advance width="706"/>
  <unicode hex="002B"/>
  <outline>
    <contour>
      <point x="48" y="297" type="curve"/>
      <point x="658" y="297" type="line"/>
      <point x="658" y="322"/>
      <point x="658" y="297"/>
      <point x="658" y="322" type="curve"/>
      <point x="48" y="322" type="line"/>
      <point x="48" y="297"/>
      <point x="48" y="322"/>
    </contour>
    <contour>
      <point x="361" y="18" type="curve"/>
      <point x="361" y="588" type="line"/>
      <point x="336" y="588"/>
      <point x="361" y="588"/>
      <point x="336" y="588" type="curve"/>
      <point x="336" y="18" type="line"/>
      <point x="361" y="18"/>
      <point x="336" y="18"/>
    </contour>
  </outline>
</glyph>
<glyph name="comma" format="1">
  <advance width="132"/>
  <unicode hex="002C"/>
  <outline>
    <contour>
      <point x="32" y="-120" type="line"/>
      <point x="64" y="-94"/>
      <point x="93" y="-60"/>
      <point x="93" y="-5" type="curve"/>
      <point x="93" y="16"/>
      <point x="88" y="35"/>
      <point x="69" y="35" type="curve"/>
      <point x="55" y="35"/>
      <point x="48" y="29"/>
      <point x="48" y="16" type="curve"/>
      <point x="48" y="6"/>
      <point x="53" y="0"/>
      <point x="64" y="-5" type="curve"/>
      <point x="64" y="-31"/>
      <point x="51" y="-73"/>
      <point x="17" y="-101" type="curve"/>
    </contour>
  </outline>
</glyph>
<glyph name="hyphen" format="1">
  <advance width="553"/>
  <unicode hex="002D"/>
  <outline>
    <contour>
      <point x="89" y="260" type="curve"/>
      <point x="214" y="260"/>
      <point x="339" y="260"/>
      <point x="463" y="260" type="curve"/>
      <point x="463" y="285"/>
      <point x="463" y="260"/>
      <point x="463" y="285" type="curve"/>
      <point x="339" y="285"/>
      <point x="214" y="285"/>
      <point x="89" y="285" type="curve"/>
      <point x="89" y="260"/>
      <point x="89" y="285"/>
    </contour>
  </outline>
</glyph>
<glyph name="period" format="1">
  <advance width="188"/>
  <unicode hex="002E"/>
  <outline>
    <contour>
      <point x="114" y="13" type="curve"/>
      <point x="114" y="24"/>
      <point x="106" y="31"/>
      <point x="93" y="31" type="curve"/>
      <point x="82" y="31"/>
      <point x="75" y="24"/>
      <point x="75" y="13" type="curve"/>
      <point x="92" y="13"/>
      <point x="96" y="13"/>
      <point x="114" y="13" type="curve"/>
      <point x="114" y="1"/>
      <point x="106" y="-6"/>
      <point x="93" y="-6" type="curve"/>
      <point x="82" y="-6"/>
      <point x="75" y="1"/>
      <point x="75" y="13" type="curve"/>
      <point x="92" y="13"/>
      <point x="96" y="13"/>
    </contour>
  </outline>
</glyph>
<glyph name="slash" format="1">
  <advance width="632"/>
  <unicode hex="002F"/>
  <outline>
    <contour>
      <point x="55" y="-66" type="curve"/>
      <point x="238" y="236"/>
      <point x="421" y="540"/>
      <point x="603" y="842" type="curve"/>
      <point x="577" y="842"/>
      <point x="603" y="842"/>
      <point x="577" y="842" type="curve"/>
      <point x="395" y="540"/>
      <point x="213" y="236"/>
      <point x="30" y="-66" type="curve"/>
      <point x="55" y="-66"/>
      <point x="30" y="-66"/>
    </contour>
  </outline>
</glyph>
<glyph name="zero" format="1">
  <advance width="862"/>
  <unicode hex="0030"/>
  <outline>
    <contour>
      <point x="101" y="360" type="curve"/>
      <point x="101" y="572"/>
      <point x="222" y="702"/>
      <point x="433" y="702" type="curve"/>
      <point x="642" y="702"/>
      <point x="762" y="572"/>
      <point x="762" y="362" type="curve"/>
      <point x="762" y="152"/>
      <point x="642" y="21"/>
      <point x="436" y="21" type="curve"/>
      <point x="225" y="21"/>
      <point x="101" y="149"/>
      <point x="101" y="360" type="curve"/>
      <point x="77" y="360"/>
      <point x="99" y="360"/>
      <point x="75" y="360" type="curve"/>
      <point x="75" y="133"/>
      <point x="208" y="-5"/>
      <point x="435" y="-5" type="curve"/>
      <point x="659" y="-5"/>
      <point x="788" y="136"/>
      <point x="788" y="363" type="curve"/>
      <point x="788" y="589"/>
      <point x="658" y="727"/>
      <point x="434" y="727" type="curve"/>
      <point x="207" y="727"/>
      <point x="75" y="588"/>
      <point x="75" y="360" type="curve"/>
      <point x="99" y="360"/>
      <point x="77" y="360"/>
    </contour>
  </outline>
</glyph>
<glyph name="one" format="1">
  <advance width="412"/>
  <unicode hex="0031"/>
  <outline>
    <contour>
      <point x="43" y="531" type="curve"/>
      <point x="307" y="705"/>
      <point x="43" y="531"/>
      <point x="307" y="705" type="curve"/>
      <point x="286" y="722"/>
      <point x="307" y="705"/>
      <point x="286" y="722" type="curve"/>
      <point x="28" y="551"/>
      <point x="286" y="722"/>
      <point x="28" y="551" type="curve"/>
      <point x="43" y="531"/>
      <point x="28" y="551"/>
    </contour>
    <contour>
      <point x="311" y="0" type="curve"/>
      <point x="311" y="241"/>
      <point x="311" y="481"/>
      <point x="311" y="722" type="curve"/>
      <point x="286" y="722"/>
      <point x="311" y="722"/>
      <point x="286" y="722" type="curve"/>
      <point x="286" y="481"/>
      <point x="286" y="241"/>
      <point x="286" y="0" type="curve"/>
      <point x="311" y="0"/>
      <point x="286" y="0"/>
    </contour>
  </outline>
</glyph>
<glyph name="two" format="1">
  <advance width="681"/>
  <unicode hex="0032"/>
  <outline>
    <contour>
      <point x="46" y="0" type="curve"/>
      <point x="244" y="0"/>
      <point x="422" y="0"/>
      <point x="619" y="0" type="curve"/>
      <point x="619" y="23"/>
      <point x="619" y="0"/>
      <point x="619" y="23" type="curve"/>
      <point x="418" y="23"/>
      <point x="247" y="23"/>
      <point x="46" y="23" type="curve"/>
      <point x="46" y="0"/>
      <point x="46" y="23"/>
    </contour>
    <contour>
      <point x="94" y="562" type="curve"/>
      <point x="157" y="653"/>
      <point x="229" y="701"/>
      <point x="339" y="701" type="curve"/>
      <point x="465" y="701"/>
      <point x="554" y="648"/>
      <point x="554" y="526" type="curve"/>
      <point x="554" y="392"/>
      <point x="455" y="317"/>
      <point x="339" y="238" type="curve"/>
      <point x="241" y="166"/>
      <point x="143" y="94"/>
      <point x="46" y="23" type="curve"/>
      <point x="57" y="0"/>
      <point x="46" y="23"/>
      <point x="57" y="0" type="curve"/>
      <point x="157" y="73"/>
      <point x="256" y="147"/>
      <point x="355" y="220" type="curve"/>
      <point x="477" y="302"/>
      <point x="580" y="375"/>
      <point x="580" y="527" type="curve"/>
      <point x="580" y="663"/>
      <point x="482" y="727"/>
      <point x="341" y="727" type="curve"/>
      <point x="221" y="727"/>
      <point x="135" y="673"/>
      <point x="74" y="576" type="curve"/>
      <point x="94" y="562"/>
      <point x="74" y="576"/>
    </contour>
  </outline>
</glyph>
<glyph name="three" format="1">
  <advance width="650"/>
  <unicode hex="0033"/>
  <outline>
    <contour>
      <point x="60" y="56" type="curve"/>
      <point x="140" y="16"/>
      <point x="205" y="-5"/>
      <point x="296" y="-5" type="curve"/>
      <point x="458" y="-5"/>
      <point x="578" y="42"/>
      <point x="578" y="195" type="curve"/>
      <point x="578" y="338"/>
      <point x="408" y="390"/>
      <point x="178" y="390" type="curve"/>
      <point x="178" y="371"/>
      <point x="178" y="388"/>
      <point x="178" y="370" type="curve"/>
      <point x="364" y="370"/>
      <point x="554" y="327"/>
      <point x="554" y="194" type="curve"/>
      <point x="554" y="56"/>
      <point x="427" y="23"/>
      <point x="297" y="23" type="curve"/>
      <point x="212" y="23"/>
      <point x="156" y="40"/>
      <point x="72" y="77" type="curve"/>
      <point x="60" y="56"/>
      <point x="72" y="77"/>
    </contour>
    <contour>
      <point x="85" y="625" type="curve"/>
      <point x="135" y="669"/>
      <point x="207" y="699"/>
      <point x="290" y="699" type="curve"/>
      <point x="416" y="699"/>
      <point x="511" y="666"/>
      <point x="511" y="556" type="curve"/>
      <point x="511" y="441"/>
      <point x="348" y="394"/>
      <point x="178" y="394" type="curve"/>
      <point x="178" y="376"/>
      <point x="178" y="393"/>
      <point x="178" y="375" type="curve"/>
      <point x="373" y="375"/>
      <point x="536" y="421"/>
      <point x="536" y="557" type="curve"/>
      <point x="536" y="681"/>
      <point x="432" y="727"/>
      <point x="293" y="727" type="curve"/>
      <point x="201" y="727"/>
      <point x="120" y="688"/>
      <point x="68" y="642" type="curve"/>
      <point x="85" y="625"/>
      <point x="68" y="642"/>
    </contour>
  </outline>
</glyph>
<glyph name="four" format="1">
  <advance width="761"/>
  <unicode hex="0034"/>
  <outline>
    <contour>
      <point x="45" y="267" type="line"/>
      <point x="470" y="706" type="line"/>
      <point x="452" y="722" type="line"/>
      <point x="29" y="289" type="line"/>
    </contour>
    <contour>
      <point x="718" y="289" type="line"/>
      <point x="29" y="289" type="line"/>
      <point x="29" y="264" type="line"/>
      <point x="718" y="264" type="line"/>
    </contour>
    <contour>
      <point x="478" y="1" type="line"/>
      <point x="478" y="722" type="line"/>
      <point x="452" y="722" type="line"/>
      <point x="452" y="1" type="line"/>
    </contour>
  </outline>
</glyph>
<glyph name="five" format="1">
  <advance width="629"/>
  <unicode hex="0035"/>
  <outline>
    <contour>
      <point x="120" y="722" type="curve"/>
      <point x="120" y="619"/>
      <point x="120" y="505"/>
      <point x="120" y="400" type="curve"/>
      <point x="145" y="395"/>
      <point x="120" y="400"/>
      <point x="145" y="395" type="curve"/>
      <point x="145" y="497"/>
      <point x="145" y="598"/>
      <point x="145" y="699" type="curve"/>
      <point x="120" y="722"/>
      <point x="145" y="699"/>
    </contour>
    <contour>
      <point x="145" y="395" type="curve"/>
      <point x="178" y="409"/>
      <point x="247" y="421"/>
      <point x="297" y="421" type="curve"/>
      <point x="434" y="421"/>
      <point x="538" y="352"/>
      <point x="538" y="224" type="curve"/>
      <point x="538" y="95"/>
      <point x="424" y="23"/>
      <point x="282" y="23" type="curve"/>
      <point x="204" y="23"/>
      <point x="142" y="38"/>
      <point x="70" y="68" type="curve"/>
      <point x="58" y="44"/>
      <point x="70" y="68"/>
      <point x="58" y="44" type="curve"/>
      <point x="129" y="12"/>
      <point x="199" y="-5"/>
      <point x="281" y="-5" type="curve"/>
      <point x="438" y="-5"/>
      <point x="564" y="78"/>
      <point x="564" y="224" type="curve"/>
      <point x="564" y="366"/>
      <point x="450" y="446"/>
      <point x="298" y="446" type="curve"/>
      <point x="238" y="446"/>
      <point x="161" y="431"/>
      <point x="120" y="411" type="curve"/>
      <point x="145" y="395"/>
      <point x="120" y="411"/>
    </contour>
    <contour>
      <point x="541" y="722" type="curve"/>
      <point x="396" y="722"/>
      <point x="265" y="722"/>
      <point x="120" y="722" type="curve"/>
      <point x="145" y="699"/>
      <point x="120" y="722"/>
      <point x="145" y="699" type="curve"/>
      <point x="281" y="699"/>
      <point x="405" y="699"/>
      <point x="541" y="699" type="curve"/>
      <point x="541" y="722"/>
      <point x="541" y="699"/>
    </contour>
  </outline>
</glyph>
<glyph name="six" format="1">
  <advance width="699"/>
  <unicode hex="0036"/>
  <outline>
    <contour>
      <point x="94" y="230" type="curve"/>
      <point x="152" y="338"/>
      <point x="246" y="385"/>
      <point x="362" y="385" type="curve"/>
      <point x="500" y="385"/>
      <point x="597" y="329"/>
      <point x="597" y="202" type="curve"/>
      <point x="597" y="80"/>
      <point x="500" y="22"/>
      <point x="368" y="22" type="curve"/>
      <point x="209" y="22"/>
      <point x="98" y="94"/>
      <point x="98" y="242" type="curve"/>
      <point x="98" y="535"/>
      <point x="339" y="643"/>
      <point x="638" y="716" type="curve"/>
      <point x="632" y="737"/>
      <point x="638" y="716"/>
      <point x="632" y="737" type="curve"/>
      <point x="316" y="664"/>
      <point x="72" y="547"/>
      <point x="72" y="241" type="curve"/>
      <point x="72" y="78"/>
      <point x="194" y="-5"/>
      <point x="367" y="-5" type="curve"/>
      <point x="518" y="-5"/>
      <point x="624" y="63"/>
      <point x="624" y="203" type="curve"/>
      <point x="624" y="345"/>
      <point x="515" y="409"/>
      <point x="364" y="409" type="curve"/>
      <point x="230" y="409"/>
      <point x="130" y="355"/>
      <point x="76" y="241" type="curve"/>
      <point x="93" y="230"/>
      <point x="76" y="241"/>
    </contour>
  </outline>
</glyph>
<glyph name="seven" format="1">
  <advance width="660"/>
  <unicode hex="0037"/>
  <outline>
    <contour>
      <point x="37" y="699" type="curve"/>
      <point x="645" y="699" type="curve"/>
      <point x="645" y="722" type="curve"/>
      <point x="37" y="722" type="curve"/>
    </contour>
    <contour>
      <point x="631" y="722" type="curve"/>
      <point x="89" y="0" type="curve"/>
      <point x="121" y="0" type="curve"/>
      <point x="645" y="699" type="curve"/>
    </contour>
  </outline>
</glyph>
<glyph name="eight" format="1">
  <advance width="670"/>
  <unicode hex="0038"/>
  <outline>
    <contour>
      <point x="99" y="562" type="curve"/>
      <point x="99" y="437"/>
      <point x="206" y="416"/>
      <point x="327" y="369" type="curve"/>
      <point x="455" y="319"/>
      <point x="568" y="293"/>
      <point x="568" y="170" type="curve"/>
      <point x="568" y="51"/>
      <point x="467" y="20"/>
      <point x="332" y="20" type="curve"/>
      <point x="198" y="20"/>
      <point x="100" y="53"/>
      <point x="100" y="170" type="curve"/>
      <point x="100" y="297"/>
      <point x="216" y="318"/>
      <point x="345" y="369" type="curve"/>
      <point x="462" y="417"/>
      <point x="569" y="437"/>
      <point x="569" y="560" type="curve"/>
      <point x="569" y="685"/>
      <point x="472" y="727"/>
      <point x="332" y="727" type="curve"/>
      <point x="197" y="727"/>
      <point x="99" y="682"/>
      <point x="99" y="562" type="curve"/>
      <point x="125" y="562"/>
      <point x="99" y="562"/>
      <point x="125" y="562" type="curve"/>
      <point x="125" y="667"/>
      <point x="213" y="702"/>
      <point x="331" y="702" type="curve"/>
      <point x="455" y="702"/>
      <point x="544" y="670"/>
      <point x="544" y="560" type="curve"/>
      <point x="544" y="450"/>
      <point x="440" y="430"/>
      <point x="327" y="387" type="curve"/>
      <point x="193" y="333"/>
      <point x="75" y="309"/>
      <point x="75" y="170" type="curve"/>
      <point x="75" y="39"/>
      <point x="182" y="-5"/>
      <point x="331" y="-5" type="curve"/>
      <point x="482" y="-5"/>
      <point x="594" y="35"/>
      <point x="594" y="170" type="curve"/>
      <point x="594" y="307"/>
      <point x="477" y="334"/>
      <point x="345" y="387" type="curve"/>
      <point x="230" y="433"/>
      <point x="125" y="449"/>
      <point x="125" y="562" type="curve"/>
      <point x="99" y="562"/>
      <point x="125" y="562"/>
    </contour>
  </outline>
</glyph>
<glyph name="nine" format="1">
  <advance width="700"/>
  <unicode hex="0039"/>
  <outline>
    <contour>
      <point x="609" y="492" type="curve"/>
      <point x="549" y="383"/>
      <point x="466" y="337"/>
      <point x="340" y="337" type="curve"/>
      <point x="203" y="337"/>
      <point x="104" y="393"/>
      <point x="104" y="520" type="curve"/>
      <point x="104" y="643"/>
      <point x="201" y="701"/>
      <point x="333" y="701" type="curve"/>
      <point x="492" y="701"/>
      <point x="604" y="627"/>
      <point x="604" y="480" type="curve"/>
      <point x="604" y="187"/>
      <point x="369" y="55"/>
      <point x="64" y="9" type="curve"/>
      <point x="69" y="-15"/>
      <point x="64" y="9"/>
      <point x="69" y="-15" type="curve"/>
      <point x="389" y="30"/>
      <point x="628" y="175"/>
      <point x="628" y="481" type="curve"/>
      <point x="628" y="644"/>
      <point x="508" y="727"/>
      <point x="335" y="727" type="curve"/>
      <point x="184" y="727"/>
      <point x="78" y="659"/>
      <point x="78" y="519" type="curve"/>
      <point x="78" y="377"/>
      <point x="186" y="313"/>
      <point x="338" y="313" type="curve"/>
      <point x="473" y="313"/>
      <point x="574" y="366"/>
      <point x="623" y="484" type="curve"/>
      <point x="609" y="492"/>
      <point x="623" y="484"/>
    </contour>
  </outline>
</glyph>
<glyph name="colon" format="1">
  <advance width="209"/>
  <unicode hex="003A"/>
  <outline>
    <contour>
      <point x="120" y="428" type="curve"/>
      <point x="120" y="439"/>
      <point x="112" y="446"/>
      <point x="99" y="446" type="curve"/>
      <point x="88" y="446"/>
      <point x="81" y="439"/>
      <point x="81" y="428" type="curve"/>
      <point x="98" y="428"/>
      <point x="102" y="428"/>
      <point x="120" y="428" type="curve"/>
      <point x="120" y="416"/>
      <point x="112" y="409"/>
      <point x="99" y="409" type="curve"/>
      <point x="88" y="409"/>
      <point x="81" y="416"/>
      <point x="81" y="428" type="curve"/>
      <point x="98" y="428"/>
      <point x="102" y="428"/>
    </contour>
    <contour>
      <point x="120" y="13" type="curve"/>
      <point x="120" y="24"/>
      <point x="112" y="31"/>
      <point x="99" y="31" type="curve"/>
      <point x="88" y="31"/>
      <point x="81" y="24"/>
      <point x="81" y="13" type="curve"/>
      <point x="98" y="13"/>
      <point x="102" y="13"/>
      <point x="120" y="13" type="curve"/>
      <point x="120" y="1"/>
      <point x="112" y="-6"/>
      <point x="99" y="-6" type="curve"/>
      <point x="88" y="-6"/>
      <point x="81" y="1"/>
      <point x="81" y="13" type="curve"/>
      <point x="98" y="13"/>
      <point x="102" y="13"/>
    </contour>
  </outline>
</glyph>
<glyph name="semicolon" format="1">
  <advance width="181"/>
  <unicode hex="003B"/>
  <outline>
    <contour>
      <point x="51" y="-75" type="line"/>
      <point x="83" y="-50"/>
      <point x="111" y="-15"/>
      <point x="111" y="40" type="curve"/>
      <point x="111" y="61"/>
      <point x="107" y="80"/>
      <point x="88" y="80" type="curve"/>
      <point x="74" y="80"/>
      <point x="67" y="73"/>
      <point x="67" y="61" type="curve"/>
      <point x="67" y="51"/>
      <point x="71" y="44"/>
      <point x="83" y="40" type="curve"/>
      <point x="83" y="14"/>
      <point x="70" y="-28"/>
      <point x="36" y="-56" type="curve"/>
    </contour>
    <contour>
      <point x="110" y="427" type="curve"/>
      <point x="110" y="439"/>
      <point x="102" y="446"/>
      <point x="90" y="446" type="curve"/>
      <point x="78" y="446"/>
      <point x="71" y="439"/>
      <point x="71" y="427" type="curve"/>
      <point x="89" y="427"/>
      <point x="92" y="427"/>
      <point x="110" y="427" type="curve"/>
      <point x="110" y="416"/>
      <point x="102" y="409"/>
      <point x="90" y="409" type="curve"/>
      <point x="78" y="409"/>
      <point x="71" y="416"/>
      <point x="71" y="427" type="curve"/>
      <point x="89" y="427"/>
      <point x="92" y="427"/>
    </contour>
  </outline>
</glyph>
<glyph name="less" format="1">
  <advance width="894"/>
  <unicode hex="003C"/>
  <outline>
    <contour>
      <point x="823" y="583" type="curve"/>
      <point x="563" y="493"/>
      <point x="302" y="403"/>
      <point x="41" y="313" type="curve"/>
      <point x="41" y="287"/>
      <point x="41" y="313"/>
      <point x="41" y="287" type="curve"/>
      <point x="302" y="377"/>
      <point x="563" y="467"/>
      <point x="823" y="557" type="curve"/>
      <point x="823" y="583"/>
      <point x="823" y="557"/>
    </contour>
    <contour>
      <point x="837" y="49" type="curve"/>
      <point x="571" y="137"/>
      <point x="307" y="225"/>
      <point x="41" y="313" type="curve"/>
      <point x="41" y="287"/>
      <point x="41" y="313"/>
      <point x="41" y="287" type="curve"/>
      <point x="307" y="199"/>
      <point x="571" y="111"/>
      <point x="837" y="23" type="curve"/>
      <point x="837" y="49"/>
      <point x="837" y="23"/>
    </contour>
  </outline>
</glyph>
<glyph name="equal" format="1">
  <advance width="917"/>
  <unicode hex="003D"/>
  <outline>
    <contour>
      <point x="67" y="206" type="curve"/>
      <point x="336" y="206"/>
      <point x="606" y="206"/>
      <point x="875" y="206" type="curve"/>
      <point x="875" y="229"/>
      <point x="875" y="206"/>
      <point x="875" y="229" type="curve"/>
      <point x="606" y="229"/>
      <point x="336" y="229"/>
      <point x="67" y="229" type="curve"/>
      <point x="67" y="206"/>
      <point x="67" y="229"/>
    </contour>
    <contour>
      <point x="67" y="428" type="curve"/>
      <point x="336" y="428"/>
      <point x="606" y="428"/>
      <point x="875" y="428" type="curve"/>
      <point x="875" y="451"/>
      <point x="875" y="428"/>
      <point x="875" y="451" type="curve"/>
      <point x="606" y="451"/>
      <point x="336" y="451"/>
      <point x="67" y="451" type="curve"/>
      <point x="67" y="428"/>
      <point x="67" y="451"/>
    </contour>
  </outline>
</glyph>
<glyph name="greater" format="1">
  <advance width="894"/>
  <unicode hex="003E"/>
  <outline>
    <contour>
      <point x="69" y="23" type="curve"/>
      <point x="330" y="113"/>
      <point x="592" y="203"/>
      <point x="852" y="293" type="curve"/>
      <point x="852" y="319"/>
      <point x="852" y="293"/>
      <point x="852" y="319" type="curve"/>
      <point x="592" y="229"/>
      <point x="330" y="139"/>
      <point x="69" y="49" type="curve"/>
      <point x="69" y="23"/>
      <point x="69" y="49"/>
    </contour>
    <contour>
      <point x="57" y="557" type="curve"/>
      <point x="321" y="469"/>
      <point x="587" y="381"/>
      <point x="852" y="293" type="curve"/>
      <point x="852" y="319"/>
      <point x="852" y="293"/>
      <point x="852" y="319" type="curve"/>
      <point x="587" y="407"/>
      <point x="321" y="495"/>
      <point x="57" y="583" type="curve"/>
      <point x="57" y="557"/>
      <point x="57" y="583"/>
    </contour>
  </outline>
</glyph>
<glyph name="question" format="1">
  <advance width="555"/>
  <unicode hex="003F"/>
  <outline>
    <contour>
      <point x="215" y="334" type="curve"/>
      <point x="215" y="297"/>
      <point x="215" y="259"/>
      <point x="215" y="222" type="curve"/>
      <point x="242" y="222"/>
      <point x="215" y="222"/>
      <point x="242" y="222" type="curve"/>
      <point x="242" y="259"/>
      <point x="242" y="297"/>
      <point x="242" y="334" type="curve"/>
      <point x="215" y="334"/>
      <point x="242" y="334"/>
    </contour>
    <contour>
      <point x="74" y="628" type="line"/>
      <point x="115" y="661"/>
      <point x="176" y="687"/>
      <point x="245" y="687" type="curve"/>
      <point x="369" y="687"/>
      <point x="466" y="635"/>
      <point x="466" y="519" type="curve"/>
      <point x="466" y="391"/>
      <point x="357" y="334"/>
      <point x="216" y="334" type="curve"/>
      <point x="216" y="325"/>
      <point x="216" y="320"/>
      <point x="216" y="311" type="curve"/>
      <point x="370" y="311"/>
      <point x="490" y="378"/>
      <point x="490" y="519" type="curve"/>
      <point x="490" y="649"/>
      <point x="384" y="710"/>
      <point x="247" y="710" type="curve"/>
      <point x="171" y="710"/>
      <point x="106" y="683"/>
      <point x="59" y="647" type="curve"/>
    </contour>
    <contour>
      <point x="244" y="11" type="curve"/>
      <point x="244" y="21"/>
      <point x="239" y="26"/>
      <point x="229" y="26" type="curve"/>
      <point x="219" y="26"/>
      <point x="214" y="20"/>
      <point x="214" y="11" type="curve"/>
      <point x="244" y="11"/>
      <point x="214" y="11"/>
      <point x="244" y="11" type="curve"/>
      <point x="244" y="2"/>
      <point x="239" y="-3"/>
      <point x="229" y="-3" type="curve"/>
      <point x="219" y="-3"/>
      <point x="214" y="2"/>
      <point x="214" y="11" type="curve"/>
      <point x="244" y="11"/>
      <point x="214" y="11"/>
    </contour>
  </outline>
</glyph>
<glyph name="at" format="1">
  <advance width="1006"/>
  <unicode hex="0040"/>
  <outline>
    <contour>
      <point x="723" y="-76" type="curve"/>
      <point x="650" y="-109"/>
      <point x="597" y="-113"/>
      <point x="517" y="-113" type="curve"/>
      <point x="267" y="-113"/>
      <point x="93" y="-14"/>
      <point x="93" y="216" type="curve"/>
      <point x="93" y="443"/>
      <point x="269" y="541"/>
      <point x="515" y="541" type="curve"/>
      <point x="747" y="541"/>
      <point x="907" y="438"/>
      <point x="907" y="222" type="curve"/>
      <point x="907" y="135"/>
      <point x="876" y="71"/>
      <point x="798" y="71" type="curve"/>
      <point x="719" y="71"/>
      <point x="684" y="134"/>
      <point x="684" y="221" type="curve"/>
      <point x="684" y="332"/>
      <point x="610" y="394"/>
      <point x="497" y="394" type="curve"/>
      <point x="375" y="394"/>
      <point x="296" y="336"/>
      <point x="296" y="222" type="curve"/>
      <point x="296" y="103"/>
      <point x="372" y="38"/>
      <point x="492" y="38" type="curve"/>
      <point x="600" y="38"/>
      <point x="658" y="103"/>
      <point x="679" y="211" type="curve"/>
      <point x="663" y="216"/>
      <point x="679" y="211"/>
      <point x="663" y="216" type="curve"/>
      <point x="636" y="121"/>
      <point x="590" y="61"/>
      <point x="497" y="61" type="curve"/>
      <point x="387" y="61"/>
      <point x="321" y="118"/>
      <point x="321" y="223" type="curve"/>
      <point x="321" y="323"/>
      <point x="390" y="371"/>
      <point x="494" y="371" type="curve"/>
      <point x="596" y="371"/>
      <point x="661" y="319"/>
      <point x="661" y="220" type="curve"/>
      <point x="661" y="121"/>
      <point x="703" y="50"/>
      <point x="796" y="50" type="curve"/>
      <point x="891" y="50"/>
      <point x="932" y="121"/>
      <point x="932" y="223" type="curve"/>
      <point x="932" y="455"/>
      <point x="763" y="565"/>
      <point x="517" y="565" type="curve"/>
      <point x="253" y="565"/>
      <point x="69" y="459"/>
      <point x="69" y="215" type="curve"/>
      <point x="69" y="-28"/>
      <point x="252" y="-136"/>
      <point x="515" y="-136" type="curve"/>
      <point x="601" y="-136"/>
      <point x="657" y="-129"/>
      <point x="735" y="-97" type="curve"/>
      <point x="723" y="-76"/>
      <point x="735" y="-97"/>
    </contour>
  </outline>
</glyph>
<glyph name="A" format="1">
  <advance width="792"/>
  <unicode hex="0041"/>
  <outline>
    <contour>
      <point x="623" y="277" type="curve"/>
      <point x="472" y="277"/>
      <point x="321" y="277"/>
      <point x="171" y="277" type="curve"/>
      <point x="160" y="253"/>
      <point x="171" y="277"/>
      <point x="160" y="253" type="curve"/>
      <point x="316" y="253"/>
      <point x="474" y="253"/>
      <point x="630" y="253" type="curve"/>
      <point x="623" y="277"/>
      <point x="630" y="253"/>
    </contour>
    <contour>
      <point x="766" y="0" type="curve"/>
      <point x="650" y="241"/>
      <point x="535" y="481"/>
      <point x="419" y="722" type="curve"/>
      <point x="395" y="722"/>
      <point x="419" y="722"/>
      <point x="395" y="722" type="curve"/>
      <point x="510" y="481"/>
      <point x="625" y="241"/>
      <point x="739" y="0" type="curve"/>
      <point x="766" y="0"/>
      <point x="739" y="0"/>
    </contour>
    <contour>
      <point x="33" y="0" type="curve"/>
      <point x="161" y="241"/>
      <point x="288" y="481"/>
      <point x="417" y="722" type="curve"/>
      <point x="393" y="722"/>
      <point x="417" y="722"/>
      <point x="393" y="722" type="curve"/>
      <point x="264" y="481"/>
      <point x="134" y="241"/>
      <point x="6" y="0" type="curve"/>
      <point x="33" y="0"/>
      <point x="6" y="0"/>
    </contour>
    <contour>
      <point x="405" y="825" type="move" name="top"/>
    </contour>
    <contour>
      <point x="765" y="0" type="move" name="bottom"/>
    </contour>
  </outline>
</glyph>
<glyph name="B" format="1">
  <advance width="736"/>
  <unicode hex="0042"/>
  <outline>
    <contour>
      <point x="131" y="699" type="curve"/>
      <point x="223" y="699"/>
      <point x="313" y="699"/>
      <point x="405" y="699" type="curve"/>
      <point x="507" y="699"/>
      <point x="585" y="654"/>
      <point x="585" y="555" type="curve"/>
      <point x="585" y="450"/>
      <point x="470" y="421"/>
      <point x="354" y="421" type="curve"/>
      <point x="279" y="421"/>
      <point x="205" y="421"/>
      <point x="131" y="421" type="curve"/>
      <point x="131" y="400"/>
      <point x="131" y="420"/>
      <point x="131" y="398" type="curve"/>
      <point x="201" y="398"/>
      <point x="271" y="398"/>
      <point x="341" y="398" type="curve"/>
      <point x="478" y="398"/>
      <point x="610" y="432"/>
      <point x="610" y="555" type="curve"/>
      <point x="610" y="668"/>
      <point x="525" y="722"/>
      <point x="405" y="722" type="curve"/>
      <point x="313" y="722"/>
      <point x="223" y="722"/>
      <point x="131" y="722" type="curve"/>
      <point x="131" y="701"/>
      <point x="131" y="721"/>
    </contour>
    <contour>
      <point x="154" y="0" type="curve"/>
      <point x="154" y="241"/>
      <point x="154" y="481"/>
      <point x="154" y="722" type="curve"/>
      <point x="127" y="722"/>
      <point x="154" y="722"/>
      <point x="127" y="722" type="curve"/>
      <point x="127" y="481"/>
      <point x="127" y="241"/>
      <point x="127" y="0" type="curve"/>
      <point x="154" y="0"/>
      <point x="127" y="0"/>
    </contour>
    <contour>
      <point x="131" y="398" type="curve"/>
      <point x="205" y="398"/>
      <point x="279" y="398"/>
      <point x="354" y="398" type="curve"/>
      <point x="512" y="398"/>
      <point x="645" y="351"/>
      <point x="645" y="204" type="curve"/>
      <point x="645" y="76"/>
      <point x="544" y="23"/>
      <point x="403" y="23" type="curve"/>
      <point x="311" y="23"/>
      <point x="222" y="23"/>
      <point x="131" y="23" type="curve"/>
      <point x="131" y="1"/>
      <point x="131" y="21"/>
      <point x="131" y="0" type="curve"/>
      <point x="222" y="0"/>
      <point x="311" y="0"/>
      <point x="403" y="0" type="curve"/>
      <point x="560" y="0"/>
      <point x="670" y="61"/>
      <point x="670" y="204" type="curve"/>
      <point x="670" y="369"/>
      <point x="520" y="421"/>
      <point x="341" y="421" type="curve"/>
      <point x="271" y="421"/>
      <point x="201" y="421"/>
      <point x="131" y="421" type="curve"/>
      <point x="131" y="400"/>
      <point x="131" y="420"/>
    </contour>
  </outline>
</glyph>
<glyph name="D" format="1">
  <advance width="875"/>
  <unicode hex="0044"/>
  <outline>
    <contour>
      <point x="127" y="722" type="curve"/>
      <point x="127" y="481"/>
      <point x="127" y="241"/>
      <point x="127" y="0" type="curve"/>
      <point x="154" y="0"/>
      <point x="127" y="0"/>
      <point x="154" y="0" type="curve"/>
      <point x="154" y="241"/>
      <point x="154" y="481"/>
      <point x="154" y="722" type="curve"/>
      <point x="127" y="722"/>
      <point x="154" y="722"/>
    </contour>
    <contour>
      <point x="143" y="0" type="curve"/>
      <point x="228" y="0"/>
      <point x="312" y="0"/>
      <point x="398" y="0" type="curve"/>
      <point x="650" y="0"/>
      <point x="802" y="111"/>
      <point x="802" y="351" type="curve"/>
      <point x="802" y="604"/>
      <point x="645" y="722"/>
      <point x="381" y="722" type="curve"/>
      <point x="301" y="722"/>
      <point x="223" y="722"/>
      <point x="143" y="722" type="curve"/>
      <point x="143" y="700"/>
      <point x="143" y="721"/>
      <point x="143" y="699" type="curve"/>
      <point x="222" y="699"/>
      <point x="301" y="699"/>
      <point x="379" y="699" type="curve"/>
      <point x="629" y="699"/>
      <point x="777" y="588"/>
      <point x="777" y="350" type="curve"/>
      <point x="777" y="126"/>
      <point x="636" y="23"/>
      <point x="401" y="23" type="curve"/>
      <point x="314" y="23"/>
      <point x="229" y="23"/>
      <point x="143" y="23" type="curve"/>
      <point x="143" y="1"/>
      <point x="143" y="22"/>
    </contour>
    <contour>
      <point x="360" y="824" type="move" name="top"/>
    </contour>
  </outline>
</glyph>
<glyph name="F" format="1">
  <advance width="677"/>
  <unicode hex="0046"/>
  <outline>
    <contour>
      <point x="148" y="363" type="curve"/>
      <point x="285" y="363"/>
      <point x="423" y="363"/>
      <point x="561" y="363" type="curve"/>
      <point x="561" y="385"/>
      <point x="561" y="363"/>
      <point x="561" y="385" type="curve"/>
      <point x="423" y="385"/>
      <point x="285" y="385"/>
      <point x="148" y="385" type="curve"/>
      <point x="148" y="363"/>
      <point x="148" y="385"/>
    </contour>
    <contour>
      <point x="155" y="0" type="curve"/>
      <point x="155" y="722" type="line"/>
      <point x="130" y="722"/>
      <point x="155" y="722"/>
      <point x="130" y="722" type="curve"/>
      <point x="130" y="481"/>
      <point x="130" y="241"/>
      <point x="130" y="0" type="curve"/>
      <point x="155" y="0"/>
      <point x="130" y="0"/>
    </contour>
    <contour>
      <point x="128" y="699" type="curve"/>
      <point x="304" y="699"/>
      <point x="480" y="699"/>
      <point x="656" y="699" type="curve"/>
      <point x="656" y="722"/>
      <point x="656" y="699"/>
      <point x="656" y="722" type="curve"/>
      <point x="480" y="722"/>
      <point x="304" y="722"/>
      <point x="128" y="722" type="curve"/>
      <point x="128" y="699"/>
      <point x="128" y="722"/>
    </contour>
  </outline>
</glyph>
<glyph name="G" format="1">
  <advance width="943"/>
  <unicode hex="0047"/>
  <outline>
    <contour>
      <point x="858" y="320" type="curve"/>
      <point x="764" y="320"/>
      <point x="670" y="320"/>
      <point x="575" y="320" type="curve"/>
      <point x="575" y="297"/>
      <point x="575" y="320"/>
      <point x="575" y="297" type="curve"/>
      <point x="670" y="297"/>
      <point x="764" y="297"/>
      <point x="858" y="297" type="curve"/>
      <point x="858" y="320"/>
      <point x="858" y="297"/>
    </contour>
    <contour>
      <point x="867" y="77" type="curve"/>
      <point x="867" y="158"/>
      <point x="867" y="238"/>
      <point x="867" y="320" type="curve"/>
      <point x="844" y="320"/>
      <point x="867" y="320"/>
      <point x="844" y="320" type="curve"/>
      <point x="844" y="238"/>
      <point x="844" y="158"/>
      <point x="844" y="77" type="curve"/>
      <point x="867" y="77"/>
      <point x="844" y="77"/>
    </contour>
    <contour>
      <point x="845" y="642" type="curve"/>
      <point x="728" y="702"/>
      <point x="624" y="727"/>
      <point x="492" y="727" type="curve"/>
      <point x="239" y="727"/>
      <point x="72" y="607"/>
      <point x="72" y="365" type="curve"/>
      <point x="72" y="116"/>
      <point x="246" y="-5"/>
      <point x="506" y="-5" type="curve"/>
      <point x="648" y="-5"/>
      <point x="739" y="20"/>
      <point x="867" y="77" type="curve"/>
      <point x="854" y="94"/>
      <point x="867" y="77"/>
      <point x="854" y="94" type="curve"/>
      <point x="734" y="41"/>
      <point x="640" y="21"/>
      <point x="507" y="21" type="curve"/>
      <point x="262" y="21"/>
      <point x="97" y="134"/>
      <point x="97" y="367" type="curve"/>
      <point x="97" y="590"/>
      <point x="257" y="703"/>
      <point x="492" y="703" type="curve"/>
      <point x="619" y="703"/>
      <point x="719" y="679"/>
      <point x="833" y="623" type="curve"/>
      <point x="845" y="642"/>
      <point x="833" y="623"/>
    </contour>
    <contour>
      <point x="493" y="825" type="move" name="top"/>
    </contour>
    <contour>
      <point x="516" y="-3" type="move" name="bottom"/>
    </contour>
  </outline>
</glyph>
<glyph name="H" format="1">
  <advance width="929"/>
  <unicode hex="0048"/>
  <outline>
    <contour>
      <point x="153" y="0" type="curve"/>
      <point x="153" y="722" type="line"/>
      <point x="127" y="722"/>
      <point x="153" y="722"/>
      <point x="127" y="722" type="curve"/>
      <point x="127" y="481"/>
      <point x="127" y="241"/>
      <point x="127" y="0" type="curve"/>
      <point x="153" y="0"/>
      <point x="127" y="0"/>
    </contour>
    <contour>
      <point x="786" y="374" type="curve"/>
      <point x="571" y="374"/>
      <point x="355" y="374"/>
      <point x="140" y="374" type="curve"/>
      <point x="140" y="352"/>
      <point x="140" y="374"/>
      <point x="140" y="352" type="curve"/>
      <point x="355" y="352"/>
      <point x="571" y="352"/>
      <point x="786" y="352" type="curve"/>
      <point x="786" y="374"/>
      <point x="786" y="352"/>
    </contour>
    <contour>
      <point x="802" y="1" type="curve"/>
      <point x="802" y="241"/>
      <point x="802" y="481"/>
      <point x="802" y="721" type="curve"/>
      <point x="776" y="721"/>
      <point x="802" y="721"/>
      <point x="776" y="721" type="curve"/>
      <point x="776" y="1" type="line"/>
      <point x="802" y="1"/>
      <point x="776" y="1"/>
    </contour>
  </outline>
</glyph>
<glyph name="J" format="1">
  <advance width="520"/>
  <unicode hex="004A"/>
  <outline>
    <contour>
      <point x="16" y="43" type="curve"/>
      <point x="53" y="22"/>
      <point x="104" y="-1"/>
      <point x="166" y="-1" type="curve"/>
      <point x="312" y="-1"/>
      <point x="401" y="76"/>
      <point x="401" y="219" type="curve"/>
      <point x="401" y="388"/>
      <point x="401" y="552"/>
      <point x="401" y="722" type="curve"/>
      <point x="377" y="722"/>
      <point x="400" y="722"/>
      <point x="375" y="722" type="curve"/>
      <point x="375" y="552"/>
      <point x="375" y="388"/>
      <point x="375" y="219" type="curve"/>
      <point x="375" y="92"/>
      <point x="296" y="22"/>
      <point x="166" y="22" type="curve"/>
      <point x="111" y="22"/>
      <point x="74" y="40"/>
      <point x="28" y="60" type="curve"/>
      <point x="17" y="44"/>
      <point x="27" y="59"/>
    </contour>
  </outline>
</glyph>
<glyph name="K" format="1">
  <advance width="627"/>
  <unicode hex="004B"/>
  <outline>
    <contour>
      <point x="550" y="722" type="curve"/>
      <point x="140" y="380" type="line"/>
      <point x="179" y="380"/>
      <point x="142" y="380"/>
      <point x="181" y="380" type="curve"/>
      <point x="591" y="722" type="line"/>
      <point x="552" y="722"/>
      <point x="589" y="722"/>
    </contour>
    <contour>
      <point x="154" y="0" type="curve"/>
      <point x="154" y="722" type="line"/>
      <point x="127" y="722"/>
      <point x="154" y="722"/>
      <point x="127" y="722" type="curve"/>
      <point x="127" y="481"/>
      <point x="127" y="241"/>
      <point x="127" y="0" type="curve"/>
      <point x="154" y="0"/>
      <point x="127" y="0"/>
    </contour>
    <contour>
      <point x="624" y="0" type="curve"/>
      <point x="181" y="380" type="line"/>
      <point x="142" y="380"/>
      <point x="179" y="380"/>
      <point x="140" y="380" type="curve"/>
      <point x="579" y="0" type="line"/>
      <point x="621" y="0"/>
      <point x="581" y="0"/>
    </contour>
    <contour>
      <point x="434" y="-6" type="move" name="bottom"/>
    </contour>
  </outline>
</glyph>
<glyph name="L" format="1">
  <advance width="691"/>
  <unicode hex="004C"/>
  <outline>
    <contour>
      <point x="154" y="0" type="curve"/>
      <point x="154" y="241"/>
      <point x="154" y="481"/>
      <point x="154" y="722" type="curve"/>
      <point x="127" y="722"/>
      <point x="154" y="722"/>
      <point x="127" y="722" type="curve"/>
      <point x="127" y="481"/>
      <point x="127" y="241"/>
      <point x="127" y="0" type="curve"/>
      <point x="154" y="0"/>
      <point x="127" y="0"/>
    </contour>
    <contour>
      <point x="139" y="0" type="curve"/>
      <point x="320" y="0"/>
      <point x="501" y="0"/>
      <point x="681" y="0" type="curve"/>
      <point x="681" y="23"/>
      <point x="681" y="0"/>
      <point x="681" y="23" type="curve"/>
      <point x="501" y="23"/>
      <point x="320" y="23"/>
      <point x="139" y="23" type="curve"/>
      <point x="139" y="0"/>
      <point x="139" y="23"/>
    </contour>
    <contour>
      <point x="142" y="825" type="move" name="top"/>
    </contour>
    <contour>
      <point x="371" y="-3" type="move" name="bottom"/>
    </contour>
  </outline>
</glyph>
<glyph name="M" format="1">
  <advance width="1089"/>
  <unicode hex="004D"/>
  <outline>
    <contour>
      <point x="1001" y="0" type="curve"/>
      <point x="974" y="241"/>
      <point x="948" y="481"/>
      <point x="922" y="722" type="curve"/>
      <point x="899" y="722"/>
      <point x="922" y="722"/>
      <point x="899" y="722" type="curve"/>
      <point x="924" y="481"/>
      <point x="950" y="241"/>
      <point x="976" y="0" type="curve"/>
      <point x="1001" y="0"/>
      <point x="976" y="0"/>
    </contour>
    <contour>
      <point x="116" y="0" type="curve"/>
      <point x="141" y="241"/>
      <point x="164" y="481"/>
      <point x="189" y="722" type="curve"/>
      <point x="166" y="722"/>
      <point x="189" y="722"/>
      <point x="166" y="722" type="curve"/>
      <point x="141" y="481"/>
      <point x="115" y="241"/>
      <point x="91" y="0" type="curve"/>
      <point x="116" y="0"/>
      <point x="91" y="0"/>
    </contour>
    <contour>
      <point x="555" y="0" type="curve"/>
      <point x="436" y="241"/>
      <point x="316" y="481"/>
      <point x="194" y="722" type="curve"/>
      <point x="170" y="722"/>
      <point x="192" y="722"/>
      <point x="169" y="722" type="curve"/>
      <point x="289" y="481"/>
      <point x="408" y="241"/>
      <point x="528" y="0" type="curve"/>
      <point x="554" y="0"/>
      <point x="530" y="0"/>
    </contour>
    <contour>
      <point x="565" y="0" type="curve"/>
      <point x="683" y="241"/>
      <point x="801" y="481"/>
      <point x="919" y="722" type="curve"/>
      <point x="896" y="722"/>
      <point x="917" y="722"/>
      <point x="894" y="722" type="curve"/>
      <point x="773" y="481"/>
      <point x="656" y="241"/>
      <point x="537" y="0" type="curve"/>
      <point x="563" y="0"/>
      <point x="539" y="0"/>
    </contour>
  </outline>
</glyph>
<glyph name="P" format="1">
  <advance width="678"/>
  <unicode hex="0050"/>
  <outline>
    <contour>
      <point x="140" y="326" type="curve"/>
      <point x="207" y="299"/>
      <point x="268" y="280"/>
      <point x="341" y="280" type="curve"/>
      <point x="499" y="283"/>
      <point x="620" y="349"/>
      <point x="620" y="494" type="curve"/>
      <point x="620" y="651"/>
      <point x="483" y="722"/>
      <point x="310" y="722" type="curve"/>
      <point x="255" y="722"/>
      <point x="200" y="722"/>
      <point x="146" y="722" type="curve"/>
      <point x="146" y="699"/>
      <point x="146" y="722"/>
      <point x="146" y="699" type="curve"/>
      <point x="199" y="699"/>
      <point x="253" y="699"/>
      <point x="306" y="699" type="curve"/>
      <point x="467" y="699"/>
      <point x="594" y="638"/>
      <point x="594" y="493" type="curve"/>
      <point x="594" y="363"/>
      <point x="484" y="303"/>
      <point x="344" y="303" type="curve"/>
      <point x="269" y="303"/>
      <point x="216" y="319"/>
      <point x="148" y="346" type="curve"/>
      <point x="140" y="326"/>
      <point x="148" y="346"/>
    </contour>
    <contour>
      <point x="154" y="0" type="curve"/>
      <point x="154" y="241"/>
      <point x="154" y="481"/>
      <point x="154" y="722" type="curve"/>
      <point x="127" y="722"/>
      <point x="154" y="722"/>
      <point x="127" y="722" type="curve"/>
      <point x="127" y="481"/>
      <point x="127" y="241"/>
      <point x="127" y="0" type="curve"/>
      <point x="154" y="0"/>
      <point x="127" y="0"/>
    </contour>
  </outline>
</glyph>
<glyph name="Q" format="1">
  <advance width="1048"/>
  <unicode hex="0051"/>
  <outline>
    <contour>
      <point x="457" y="4" type="curve"/>
      <point x="595" y="-191"/>
      <point x="749" y="-240"/>
      <point x="978" y="-240" type="curve"/>
      <point x="978" y="-216"/>
      <point x="978" y="-240"/>
      <point x="978" y="-216" type="curve"/>
      <point x="760" y="-216"/>
      <point x="613" y="-171"/>
      <point x="479" y="16" type="curve"/>
      <point x="457" y="4"/>
      <point x="479" y="16"/>
    </contour>
    <contour>
      <point x="98" y="360" type="curve"/>
      <point x="98" y="572"/>
      <point x="240" y="702"/>
      <point x="457" y="702" type="curve"/>
      <point x="674" y="702"/>
      <point x="817" y="574"/>
      <point x="817" y="363" type="curve"/>
      <point x="817" y="151"/>
      <point x="676" y="20"/>
      <point x="460" y="20" type="curve"/>
      <point x="241" y="20"/>
      <point x="98" y="148"/>
      <point x="98" y="360" type="curve"/>
      <point x="72" y="360"/>
      <point x="98" y="360"/>
      <point x="72" y="360" type="curve"/>
      <point x="72" y="132"/>
      <point x="227" y="-5"/>
      <point x="459" y="-5" type="curve"/>
      <point x="691" y="-5"/>
      <point x="843" y="135"/>
      <point x="843" y="364" type="curve"/>
      <point x="843" y="591"/>
      <point x="690" y="727"/>
      <point x="458" y="727" type="curve"/>
      <point x="226" y="727"/>
      <point x="72" y="588"/>
      <point x="72" y="360" type="curve"/>
      <point x="98" y="360"/>
      <point x="72" y="360"/>
    </contour>
  </outline>
</glyph>
<glyph name="T" format="1">
  <advance width="816"/>
  <unicode hex="0054"/>
  <outline>
    <contour>
      <point x="421" y="0" type="curve"/>
      <point x="421" y="237"/>
      <point x="421" y="473"/>
      <point x="421" y="710" type="curve"/>
      <point x="396" y="710"/>
      <point x="421" y="710"/>
      <point x="396" y="710" type="curve"/>
      <point x="396" y="473"/>
      <point x="396" y="237"/>
      <point x="396" y="0" type="curve"/>
      <point x="421" y="0"/>
      <point x="396" y="0"/>
    </contour>
    <contour>
      <point x="10" y="697" type="curve"/>
      <point x="276" y="697"/>
      <point x="541" y="697"/>
      <point x="807" y="697" type="curve"/>
      <point x="807" y="722"/>
      <point x="807" y="697"/>
      <point x="807" y="722" type="curve"/>
      <point x="541" y="722"/>
      <point x="276" y="722"/>
      <point x="10" y="722" type="curve"/>
      <point x="10" y="697"/>
      <point x="10" y="722"/>
    </contour>
    <contour>
      <point x="406" y="825" type="move" name="top"/>
    </contour>
    <contour>
      <point x="420" y="-8" type="move" name="bottom"/>
    </contour>
  </outline>
</glyph>
<glyph name="V" format="1">
  <advance width="788"/>
  <unicode hex="0056"/>
  <outline>
    <contour>
      <point x="742" y="722" type="curve"/>
      <point x="623" y="481"/>
      <point x="504" y="241"/>
      <point x="385" y="0" type="curve"/>
      <point x="413" y="0"/>
      <point x="385" y="0"/>
      <point x="413" y="0" type="curve"/>
      <point x="532" y="241"/>
      <point x="651" y="481"/>
      <point x="770" y="722" type="curve"/>
      <point x="742" y="722"/>
      <point x="770" y="722"/>
    </contour>
    <contour>
      <point x="15" y="722" type="curve"/>
      <point x="136" y="481"/>
      <point x="257" y="241"/>
      <point x="377" y="0" type="curve"/>
      <point x="406" y="0"/>
      <point x="378" y="0"/>
      <point x="407" y="0" type="curve"/>
      <point x="286" y="241"/>
      <point x="165" y="481"/>
      <point x="45" y="722" type="curve"/>
      <point x="16" y="722"/>
      <point x="44" y="722"/>
    </contour>
  </outline>
</glyph>
<glyph name="W" format="1">
  <advance width="1066"/>
  <unicode hex="0057"/>
  <outline>
    <contour>
      <point x="294" y="0" type="curve"/>
      <point x="380" y="241"/>
      <point x="466" y="481"/>
      <point x="552" y="722" type="curve"/>
      <point x="527" y="722"/>
      <point x="552" y="722"/>
      <point x="527" y="722" type="curve"/>
      <point x="441" y="481"/>
      <point x="355" y="241"/>
      <point x="269" y="0" type="curve"/>
      <point x="289" y="0"/>
      <point x="275" y="0"/>
    </contour>
    <contour>
      <point x="535" y="722" type="curve"/>
      <point x="612" y="481"/>
      <point x="690" y="241"/>
      <point x="767" y="0" type="curve"/>
      <point x="787" y="0"/>
      <point x="771" y="0"/>
      <point x="791" y="0" type="curve"/>
      <point x="715" y="241"/>
      <point x="637" y="481"/>
      <point x="560" y="722" type="curve"/>
      <point x="534" y="722"/>
      <point x="560" y="722"/>
    </contour>
    <contour>
      <point x="33" y="722" type="curve"/>
      <point x="110" y="481"/>
      <point x="188" y="241"/>
      <point x="266" y="0" type="curve"/>
      <point x="286" y="0"/>
      <point x="272" y="0"/>
      <point x="291" y="0" type="curve"/>
      <point x="215" y="240"/>
      <point x="136" y="482"/>
      <point x="60" y="722" type="curve"/>
      <point x="33" y="722"/>
      <point x="60" y="722"/>
    </contour>
    <contour>
      <point x="1011" y="722" type="curve"/>
      <point x="930" y="481"/>
      <point x="850" y="241"/>
      <point x="771" y="0" type="curve"/>
      <point x="791" y="0"/>
      <point x="775" y="0"/>
      <point x="795" y="0" type="curve"/>
      <point x="876" y="241"/>
      <point x="957" y="481"/>
      <point x="1038" y="722" type="curve"/>
      <point x="1011" y="722"/>
      <point x="1038" y="722"/>
    </contour>
  </outline>
</glyph>
<glyph name="X" format="1">
  <advance width="721"/>
  <unicode hex="0058"/>
  <outline>
    <contour>
      <point x="647" y="722" type="curve"/>
      <point x="433" y="481"/>
      <point x="219" y="241"/>
      <point x="6" y="0" type="curve"/>
      <point x="42" y="0"/>
      <point x="6" y="0"/>
      <point x="42" y="0" type="curve"/>
      <point x="254" y="241"/>
      <point x="467" y="481"/>
      <point x="680" y="722" type="curve"/>
      <point x="647" y="722"/>
      <point x="679" y="722"/>
    </contour>
    <contour>
      <point x="44" y="722" type="curve"/>
      <point x="255" y="481"/>
      <point x="466" y="241"/>
      <point x="677" y="0" type="curve"/>
      <point x="712" y="0"/>
      <point x="677" y="0"/>
      <point x="712" y="0" type="curve"/>
      <point x="501" y="241"/>
      <point x="289" y="481"/>
      <point x="78" y="722" type="curve"/>
      <point x="45" y="722"/>
      <point x="78" y="722"/>
    </contour>
  </outline>
</glyph>
<glyph name="Y" format="1">
  <advance width="686"/>
  <unicode hex="0059"/>
  <outline>
    <contour>
      <point x="26" y="722" type="curve"/>
      <point x="126" y="594"/>
      <point x="227" y="465"/>
      <point x="328" y="337" type="curve"/>
      <point x="356" y="337"/>
      <point x="328" y="341"/>
      <point x="356" y="341" type="curve"/>
      <point x="256" y="468"/>
      <point x="157" y="595"/>
      <point x="57" y="722" type="curve"/>
      <point x="26" y="722"/>
      <point x="57" y="722"/>
    </contour>
    <contour>
      <point x="643" y="722" type="curve"/>
      <point x="537" y="595"/>
      <point x="432" y="468"/>
      <point x="328" y="341" type="curve"/>
      <point x="355" y="341"/>
      <point x="328" y="337"/>
      <point x="355" y="337" type="curve"/>
      <point x="462" y="465"/>
      <point x="567" y="594"/>
      <point x="674" y="722" type="curve"/>
      <point x="643" y="722"/>
      <point x="674" y="722"/>
    </contour>
    <contour>
      <point x="355" y="0" type="curve"/>
      <point x="355" y="115"/>
      <point x="355" y="231"/>
      <point x="355" y="346" type="curve"/>
      <point x="328" y="346"/>
      <point x="355" y="346"/>
      <point x="328" y="346" type="curve"/>
      <point x="328" y="231"/>
      <point x="328" y="115"/>
      <point x="328" y="0" type="curve"/>
      <point x="355" y="0"/>
      <point x="328" y="0"/>
    </contour>
    <contour>
      <point x="343" y="825" type="move" name="top"/>
    </contour>
  </outline>
</glyph>
<glyph name="Z" format="1">
  <advance width="752"/>
  <unicode hex="005A"/>
  <outline>
    <contour>
      <point x="70" y="699" type="curve"/>
      <point x="277" y="699"/>
      <point x="485" y="699"/>
      <point x="694" y="699" type="curve"/>
      <point x="692" y="702"/>
      <point x="688" y="703"/>
      <point x="686" y="706" type="curve"/>
      <point x="684" y="708"/>
      <point x="682" y="710"/>
      <point x="680" y="712" type="curve"/>
      <point x="677" y="708"/>
      <point x="673" y="705"/>
      <point x="670" y="701" type="curve"/>
      <point x="20" y="23" type="line"/>
      <point x="20" y="10"/>
      <point x="20" y="23"/>
      <point x="20" y="10" type="curve"/>
      <point x="20" y="0"/>
      <point x="20" y="10"/>
      <point x="20" y="0" type="curve"/>
      <point x="26" y="0"/>
      <point x="20" y="0"/>
      <point x="26" y="0" type="curve"/>
      <point x="769" y="0"/>
      <point x="504" y="0"/>
      <point x="751" y="0" type="curve"/>
      <point x="751" y="23"/>
      <point x="751" y="0"/>
      <point x="751" y="23" type="curve"/>
      <point x="504" y="23"/>
      <point x="273" y="23"/>
      <point x="26" y="23" type="curve"/>
      <point x="28" y="21"/>
      <point x="30" y="19"/>
      <point x="32" y="17" type="curve"/>
      <point x="34" y="15"/>
      <point x="38" y="12"/>
      <point x="40" y="10" type="curve"/>
      <point x="43" y="14"/>
      <point x="47" y="17"/>
      <point x="51" y="21" type="curve"/>
      <point x="701" y="699" type="line"/>
      <point x="701" y="712"/>
      <point x="701" y="699"/>
      <point x="701" y="712" type="curve"/>
      <point x="701" y="722"/>
      <point x="701" y="712"/>
      <point x="701" y="722" type="curve"/>
      <point x="693" y="722"/>
      <point x="701" y="722"/>
      <point x="693" y="722" type="curve"/>
      <point x="485" y="722"/>
      <point x="277" y="722"/>
      <point x="70" y="722" type="curve"/>
      <point x="70" y="699"/>
      <point x="70" y="722"/>
    </contour>
    <contour>
      <point x="390" y="825" type="move" name="top"/>
    </contour>
  </outline>
</glyph>
<glyph name="bracketleft" format="1">
  <advance width="324"/>
  <unicode hex="005B"/>
  <outline>
    <contour>
      <point x="297" y="771" type="curve"/>
      <point x="231" y="771"/>
      <point x="165" y="771"/>
      <point x="100" y="771" type="curve"/>
      <point x="98" y="771"/>
      <point x="99" y="771"/>
      <point x="96" y="771" type="curve"/>
      <point x="96" y="769"/>
      <point x="96" y="767"/>
      <point x="96" y="764" type="curve"/>
      <point x="96" y="470"/>
      <point x="96" y="175"/>
      <point x="96" y="-119" type="curve"/>
      <point x="96" y="-121"/>
      <point x="96" y="-123"/>
      <point x="96" y="-124" type="curve"/>
      <point x="97" y="-124"/>
      <point x="97" y="-124"/>
      <point x="99" y="-124" type="curve"/>
      <point x="164" y="-124"/>
      <point x="230" y="-124"/>
      <point x="297" y="-124" type="curve"/>
      <point x="297" y="-99"/>
      <point x="297" y="-124"/>
      <point x="297" y="-99" type="curve"/>
      <point x="230" y="-99"/>
      <point x="164" y="-99"/>
      <point x="99" y="-99" type="curve"/>
      <point x="122" y="-99"/>
      <point x="99" y="-99"/>
      <point x="122" y="-99" type="curve"/>
      <point x="122" y="-119"/>
      <point x="122" y="-99"/>
      <point x="122" y="-119" type="curve"/>
      <point x="122" y="175"/>
      <point x="122" y="470"/>
      <point x="122" y="764" type="curve"/>
      <point x="122" y="746"/>
      <point x="122" y="764"/>
      <point x="122" y="746" type="curve"/>
      <point x="100" y="746"/>
      <point x="122" y="746"/>
      <point x="100" y="746" type="curve"/>
      <point x="165" y="746"/>
      <point x="231" y="746"/>
      <point x="297" y="746" type="curve"/>
      <point x="297" y="771"/>
      <point x="297" y="746"/>
    </contour>
  </outline>
</glyph>
<glyph name="backslash" format="1">
  <advance width="596"/>
  <unicode hex="005C"/>
  <outline>
    <contour>
      <point x="563" y="-68" type="curve"/>
      <point x="395" y="236"/>
      <point x="228" y="540"/>
      <point x="59" y="844" type="curve"/>
      <point x="33" y="844"/>
      <point x="59" y="844"/>
      <point x="33" y="844" type="curve"/>
      <point x="200" y="540"/>
      <point x="369" y="236"/>
      <point x="536" y="-68" type="curve"/>
      <point x="563" y="-68"/>
      <point x="536" y="-68"/>
    </contour>
  </outline>
</glyph>
<glyph name="bracketright" format="1">
  <advance width="323"/>
  <unicode hex="005D"/>
  <outline>
    <contour>
      <point x="27" y="746" type="curve"/>
      <point x="93" y="746"/>
      <point x="158" y="746"/>
      <point x="223" y="746" type="curve"/>
      <point x="220" y="749"/>
      <point x="216" y="752"/>
      <point x="213" y="755" type="curve"/>
      <point x="209" y="758"/>
      <point x="205" y="761"/>
      <point x="202" y="764" type="curve"/>
      <point x="202" y="470"/>
      <point x="202" y="175"/>
      <point x="202" y="-119" type="curve"/>
      <point x="206" y="-116"/>
      <point x="210" y="-112"/>
      <point x="214" y="-108" type="curve"/>
      <point x="218" y="-106"/>
      <point x="221" y="-102"/>
      <point x="225" y="-99" type="curve"/>
      <point x="158" y="-99"/>
      <point x="93" y="-99"/>
      <point x="27" y="-99" type="curve"/>
      <point x="27" y="-124"/>
      <point x="27" y="-99"/>
      <point x="27" y="-124" type="curve"/>
      <point x="93" y="-124"/>
      <point x="158" y="-124"/>
      <point x="225" y="-124" type="curve"/>
      <point x="227" y="-124"/>
      <point x="225" y="-124"/>
      <point x="227" y="-124" type="curve"/>
      <point x="227" y="-119"/>
      <point x="227" y="-124"/>
      <point x="227" y="-119" type="curve"/>
      <point x="227" y="175"/>
      <point x="227" y="470"/>
      <point x="227" y="764" type="curve"/>
      <point x="227" y="771"/>
      <point x="227" y="764"/>
      <point x="227" y="771" type="curve"/>
      <point x="223" y="771"/>
      <point x="227" y="771"/>
      <point x="223" y="771" type="curve"/>
      <point x="158" y="771"/>
      <point x="93" y="771"/>
      <point x="27" y="771" type="curve"/>
      <point x="27" y="746"/>
      <point x="27" y="771"/>
    </contour>
  </outline>
</glyph>
<glyph name="asciicircum" format="1">
  <advance width="601"/>
  <unicode hex="005E"/>
  <outline>
    <contour>
      <point x="88" y="466" type="curve"/>
      <point x="162" y="581"/>
      <point x="237" y="695"/>
      <point x="312" y="809" type="curve"/>
      <point x="287" y="809"/>
      <point x="310" y="809"/>
      <point x="285" y="809" type="curve"/>
      <point x="211" y="695"/>
      <point x="136" y="581"/>
      <point x="62" y="466" type="curve"/>
      <point x="86" y="466"/>
      <point x="63" y="466"/>
    </contour>
    <contour>
      <point x="539" y="466" type="curve"/>
      <point x="466" y="577"/>
      <point x="387" y="699"/>
      <point x="313" y="809" type="curve"/>
      <point x="289" y="809"/>
      <point x="312" y="809"/>
      <point x="287" y="809" type="curve"/>
      <point x="359" y="699"/>
      <point x="439" y="577"/>
      <point x="513" y="466" type="curve"/>
      <point x="537" y="466"/>
      <point x="514" y="466"/>
    </contour>
  </outline>
</glyph>
<glyph name="underscore" format="1">
  <advance width="876"/>
  <unicode hex="005F"/>
  <outline>
    <contour>
      <point x="0" y="-210" type="curve"/>
      <point x="292" y="-210"/>
      <point x="584" y="-210"/>
      <point x="875" y="-210" type="curve"/>
      <point x="875" y="-188"/>
      <point x="875" y="-210"/>
      <point x="875" y="-188" type="curve"/>
      <point x="584" y="-188"/>
      <point x="292" y="-188"/>
      <point x="0" y="-188" type="curve"/>
      <point x="0" y="-210"/>
      <point x="0" y="-188"/>
    </contour>
  </outline>
</glyph>
<glyph name="b" format="1">
  <advance width="740"/>
  <unicode hex="0062"/>
  <outline>
    <contour>
      <point x="127" y="407" type="curve"/>
      <point x="183" y="461"/>
      <point x="281" y="515"/>
      <point x="394" y="515" type="curve"/>
      <point x="545" y="515"/>
      <point x="648" y="417"/>
      <point x="648" y="264" type="curve"/>
      <point x="648" y="116"/>
      <point x="544" y="16"/>
      <point x="393" y="18" type="curve"/>
      <point x="290" y="18"/>
      <point x="211" y="46"/>
      <point x="130" y="114" type="curve"/>
      <point x="114" y="100"/>
      <point x="130" y="113"/>
      <point x="114" y="99" type="curve"/>
      <point x="199" y="24"/>
      <point x="282" y="-5"/>
      <point x="394" y="-5" type="curve"/>
      <point x="560" y="-5"/>
      <point x="674" y="99"/>
      <point x="674" y="265" type="curve"/>
      <point x="674" y="430"/>
      <point x="561" y="538"/>
      <point x="397" y="538" type="curve"/>
      <point x="278" y="538"/>
      <point x="174" y="483"/>
      <point x="115" y="424" type="curve"/>
      <point x="127" y="408"/>
      <point x="115" y="423"/>
    </contour>
    <contour>
      <point x="134" y="0" type="curve"/>
      <point x="134" y="267"/>
      <point x="134" y="533"/>
      <point x="134" y="800" type="curve"/>
      <point x="109" y="800"/>
      <point x="133" y="800"/>
      <point x="108" y="800" type="curve"/>
      <point x="108" y="533"/>
      <point x="108" y="267"/>
      <point x="108" y="0" type="curve"/>
      <point x="133" y="0"/>
      <point x="109" y="0"/>
    </contour>
  </outline>
</glyph>
<glyph name="f" format="1">
  <advance width="577"/>
  <unicode hex="0066"/>
  <outline>
    <contour>
      <point x="22" y="510" type="curve"/>
      <point x="551" y="510" type="line"/>
      <point x="551" y="533"/>
      <point x="551" y="510"/>
      <point x="551" y="533" type="curve"/>
      <point x="22" y="533" type="line"/>
      <point x="22" y="510"/>
      <point x="22" y="533"/>
    </contour>
    <contour>
      <point x="272" y="0" type="curve"/>
      <point x="272" y="640" type="line"/>
      <point x="272" y="733"/>
      <point x="339" y="782"/>
      <point x="436" y="782" type="curve"/>
      <point x="480" y="782"/>
      <point x="522" y="770"/>
      <point x="562" y="755" type="curve"/>
      <point x="572" y="772"/>
      <point x="562" y="755"/>
      <point x="572" y="772" type="curve"/>
      <point x="529" y="789"/>
      <point x="482" y="805"/>
      <point x="436" y="805" type="curve"/>
      <point x="325" y="805"/>
      <point x="247" y="748"/>
      <point x="247" y="640" type="curve"/>
      <point x="247" y="0" type="line"/>
      <point x="272" y="0"/>
      <point x="247" y="0"/>
    </contour>
  </outline>
</glyph>
<glyph name="g" format="1">
  <advance width="623"/>
  <unicode hex="0067"/>
  <outline>
    <contour>
      <point x="425" y="499" type="curve"/>
      <point x="614" y="575" type="line"/>
      <point x="613" y="577"/>
      <point x="602" y="596"/>
      <point x="601" y="598" type="curve"/>
      <point x="412" y="517" type="line"/>
      <point x="425" y="499"/>
      <point x="412" y="517"/>
    </contour>
    <contour>
      <point x="97" y="358" type="curve"/>
      <point x="97" y="463"/>
      <point x="192" y="516"/>
      <point x="310" y="516" type="curve"/>
      <point x="426" y="516"/>
      <point x="517" y="466"/>
      <point x="517" y="361" type="curve"/>
      <point x="517" y="260"/>
      <point x="424" y="210"/>
      <point x="307" y="210" type="curve"/>
      <point x="193" y="210"/>
      <point x="97" y="255"/>
      <point x="97" y="358" type="curve"/>
      <point x="71" y="357"/>
      <point x="97" y="358"/>
      <point x="71" y="357" type="curve"/>
      <point x="71" y="240"/>
      <point x="176" y="188"/>
      <point x="305" y="188" type="curve"/>
      <point x="437" y="188"/>
      <point x="543" y="242"/>
      <point x="543" y="362" type="curve"/>
      <point x="543" y="481"/>
      <point x="440" y="538"/>
      <point x="310" y="538" type="curve"/>
      <point x="176" y="538"/>
      <point x="71" y="479"/>
      <point x="71" y="357" type="curve"/>
      <point x="97" y="358"/>
      <point x="71" y="357"/>
    </contour>
    <contour>
      <point x="174" y="227" type="curve"/>
      <point x="118" y="203"/>
      <point x="77" y="169"/>
      <point x="77" y="109" type="curve"/>
      <point x="77" y="7"/>
      <point x="186" y="-5"/>
      <point x="301" y="-13" type="curve"/>
      <point x="445" y="-23"/>
      <point x="590" y="-21"/>
      <point x="590" y="-144" type="curve"/>
      <point x="590" y="-261"/>
      <point x="451" y="-282"/>
      <point x="304" y="-282" type="curve"/>
      <point x="165" y="-282"/>
      <point x="40" y="-247"/>
      <point x="40" y="-134" type="curve"/>
      <point x="40" y="-56"/>
      <point x="103" y="-16"/>
      <point x="179" y="9" type="curve"/>
      <point x="166" y="23"/>
      <point x="179" y="9"/>
      <point x="166" y="23" type="curve"/>
      <point x="82" y="-4"/>
      <point x="15" y="-47"/>
      <point x="15" y="-135" type="curve"/>
      <point x="15" y="-268"/>
      <point x="149" y="-304"/>
      <point x="302" y="-304" type="curve"/>
      <point x="465" y="-304"/>
      <point x="616" y="-282"/>
      <point x="613" y="-142" type="curve"/>
      <point x="613" y="-4"/>
      <point x="461" y="-2"/>
      <point x="306" y="9" type="curve"/>
      <point x="201" y="14"/>
      <point x="102" y="20"/>
      <point x="102" y="112" type="curve"/>
      <point x="102" y="163"/>
      <point x="138" y="191"/>
      <point x="186" y="214" type="curve"/>
      <point x="174" y="227"/>
      <point x="186" y="214"/>
    </contour>
    <contour>
      <point x="312" y="670" type="move" name="top"/>
    </contour>
  </outline>
</glyph>
<glyph name="h" format="1">
  <advance width="712"/>
  <unicode hex="0068"/>
  <outline>
    <contour>
      <point x="128" y="353" type="curve"/>
      <point x="175" y="454"/>
      <point x="280" y="515"/>
      <point x="391" y="515" type="curve"/>
      <point x="513" y="515"/>
      <point x="586" y="458"/>
      <point x="586" y="341" type="curve"/>
      <point x="586" y="228"/>
      <point x="586" y="114"/>
      <point x="586" y="0" type="curve"/>
      <point x="612" y="0"/>
      <point x="586" y="0"/>
      <point x="612" y="0" type="curve"/>
      <point x="612" y="115"/>
      <point x="612" y="229"/>
      <point x="612" y="344" type="curve"/>
      <point x="612" y="475"/>
      <point x="530" y="538"/>
      <point x="394" y="538" type="curve"/>
      <point x="273" y="538"/>
      <point x="158" y="478"/>
      <point x="116" y="365" type="curve"/>
      <point x="129" y="353"/>
      <point x="115" y="365"/>
    </contour>
    <contour>
      <point x="134" y="0" type="curve"/>
      <point x="134" y="267"/>
      <point x="134" y="533"/>
      <point x="134" y="800" type="curve"/>
      <point x="108" y="800"/>
      <point x="134" y="800"/>
      <point x="108" y="800" type="curve"/>
      <point x="108" y="533"/>
      <point x="108" y="267"/>
      <point x="108" y="0" type="curve"/>
      <point x="134" y="0"/>
      <point x="108" y="0"/>
    </contour>
  </outline>
</glyph>
<glyph name="i" format="1">
  <advance width="257"/>
  <unicode hex="0069"/>
  <outline>
    <contour>
      <point x="140" y="0" type="curve"/>
      <point x="140" y="178"/>
      <point x="140" y="355"/>
      <point x="140" y="533" type="curve"/>
      <point x="112" y="533"/>
      <point x="140" y="533"/>
      <point x="112" y="533" type="curve"/>
      <point x="112" y="355"/>
      <point x="112" y="178"/>
      <point x="112" y="0" type="curve"/>
      <point x="140" y="0"/>
      <point x="112" y="0"/>
    </contour>
    <contour>
      <point x="148" y="686" type="curve"/>
      <point x="148" y="698"/>
      <point x="139" y="707"/>
      <point x="126" y="707" type="curve"/>
      <point x="113" y="707"/>
      <point x="105" y="698"/>
      <point x="105" y="686" type="curve"/>
      <point x="124" y="686"/>
      <point x="129" y="686"/>
      <point x="148" y="686" type="curve"/>
      <point x="148" y="674"/>
      <point x="139" y="666"/>
      <point x="126" y="666" type="curve"/>
      <point x="113" y="666"/>
      <point x="105" y="674"/>
      <point x="105" y="686" type="curve"/>
      <point x="124" y="686"/>
      <point x="129" y="686"/>
    </contour>
    <contour>
      <point x="125" y="669" type="move" name="top"/>
    </contour>
    <contour>
      <point x="140" y="0" type="move" name="bottom"/>
    </contour>
  </outline>
</glyph>
<glyph name="j" format="1">
  <advance width="247"/>
  <unicode hex="006A"/>
  <outline>
    <contour>
      <point x="-106" y="-301" type="curve"/>
      <point x="-95" y="-301"/>
      <point x="-82" y="-304"/>
      <point x="-68" y="-304" type="curve"/>
      <point x="44" y="-304"/>
      <point x="134" y="-250"/>
      <point x="134" y="-142" type="curve"/>
      <point x="134" y="83"/>
      <point x="134" y="308"/>
      <point x="134" y="533" type="curve"/>
      <point x="108" y="533"/>
      <point x="134" y="533"/>
      <point x="108" y="533" type="curve"/>
      <point x="108" y="308"/>
      <point x="108" y="83"/>
      <point x="108" y="-142" type="curve"/>
      <point x="108" y="-234"/>
      <point x="30" y="-281"/>
      <point x="-67" y="-281" type="curve"/>
      <point x="-79" y="-281"/>
      <point x="-94" y="-279"/>
      <point x="-102" y="-278" type="curve"/>
      <point x="-105" y="-301"/>
      <point x="-102" y="-278"/>
    </contour>
    <contour>
      <point x="145" y="685" type="curve"/>
      <point x="145" y="698"/>
      <point x="136" y="706"/>
      <point x="123" y="706" type="curve"/>
      <point x="110" y="706"/>
      <point x="102" y="698"/>
      <point x="102" y="685" type="curve"/>
      <point x="121" y="685"/>
      <point x="125" y="685"/>
      <point x="145" y="685" type="curve"/>
      <point x="145" y="673"/>
      <point x="136" y="665"/>
      <point x="123" y="665" type="curve"/>
      <point x="110" y="665"/>
      <point x="102" y="673"/>
      <point x="102" y="685" type="curve"/>
      <point x="121" y="685"/>
      <point x="125" y="685"/>
    </contour>
  </outline>
</glyph>
<glyph name="k" format="1">
  <advance width="560"/>
  <unicode hex="006B"/>
  <outline>
    <contour>
      <point x="134" y="0" type="curve"/>
      <point x="134" y="800" type="line"/>
      <point x="108" y="800"/>
      <point x="134" y="800"/>
      <point x="108" y="800" type="curve"/>
      <point x="108" y="533"/>
      <point x="108" y="267"/>
      <point x="108" y="0" type="curve"/>
      <point x="134" y="0"/>
      <point x="108" y="0"/>
    </contour>
    <contour>
      <point x="478" y="533" type="curve"/>
      <point x="122" y="275" type="line"/>
      <point x="166" y="275"/>
      <point x="122" y="275"/>
      <point x="166" y="275" type="curve"/>
      <point x="520" y="533" type="line"/>
      <point x="477" y="533"/>
      <point x="521" y="533"/>
    </contour>
    <contour>
      <point x="553" y="0" type="curve"/>
      <point x="166" y="275" type="line"/>
      <point x="122" y="275"/>
      <point x="166" y="275"/>
      <point x="122" y="275" type="curve"/>
      <point x="507" y="0" type="line"/>
      <point x="555" y="0"/>
      <point x="505" y="0"/>
    </contour>
    <contour>
      <point x="381" y="-5" type="move" name="bottom"/>
    </contour>
  </outline>
</glyph>
<glyph name="m" format="1">
  <advance width="1089"/>
  <unicode hex="006D"/>
  <outline>
    <contour>
      <point x="555" y="353" type="curve"/>
      <point x="602" y="455"/>
      <point x="683" y="515"/>
      <point x="790" y="515" type="curve"/>
      <point x="908" y="515"/>
      <point x="961" y="461"/>
      <point x="961" y="341" type="curve"/>
      <point x="961" y="228"/>
      <point x="961" y="114"/>
      <point x="961" y="0" type="curve"/>
      <point x="987" y="0"/>
      <point x="961" y="0"/>
      <point x="987" y="0" type="curve"/>
      <point x="987" y="115"/>
      <point x="987" y="229"/>
      <point x="987" y="344" type="curve"/>
      <point x="987" y="476"/>
      <point x="927" y="538"/>
      <point x="795" y="538" type="curve"/>
      <point x="677" y="538"/>
      <point x="585" y="477"/>
      <point x="542" y="365" type="curve"/>
      <point x="555" y="353"/>
      <point x="542" y="365"/>
    </contour>
    <contour>
      <point x="128" y="353" type="curve"/>
      <point x="176" y="455"/>
      <point x="255" y="515"/>
      <point x="363" y="515" type="curve"/>
      <point x="480" y="515"/>
      <point x="535" y="461"/>
      <point x="535" y="341" type="curve"/>
      <point x="535" y="228"/>
      <point x="535" y="114"/>
      <point x="535" y="0" type="curve"/>
      <point x="560" y="0"/>
      <point x="535" y="0"/>
      <point x="560" y="0" type="curve"/>
      <point x="560" y="115"/>
      <point x="560" y="229"/>
      <point x="560" y="344" type="curve"/>
      <point x="560" y="476"/>
      <point x="501" y="538"/>
      <point x="369" y="538" type="curve"/>
      <point x="249" y="538"/>
      <point x="159" y="478"/>
      <point x="116" y="365" type="curve"/>
      <point x="128" y="353"/>
      <point x="116" y="365"/>
    </contour>
    <contour>
      <point x="134" y="0" type="curve"/>
      <point x="134" y="178"/>
      <point x="134" y="355"/>
      <point x="134" y="533" type="curve"/>
      <point x="108" y="533"/>
      <point x="134" y="533"/>
      <point x="108" y="533" type="curve"/>
      <point x="108" y="355"/>
      <point x="108" y="178"/>
      <point x="108" y="0" type="curve"/>
      <point x="134" y="0"/>
      <point x="108" y="0"/>
    </contour>
  </outline>
</glyph>
<glyph name="n" format="1">
  <advance width="713"/>
  <unicode hex="006E"/>
  <outline>
    <contour>
      <point x="128" y="352" type="curve"/>
      <point x="175" y="455"/>
      <point x="279" y="515"/>
      <point x="389" y="515" type="curve"/>
      <point x="510" y="515"/>
      <point x="586" y="458"/>
      <point x="586" y="341" type="curve"/>
      <point x="586" y="228"/>
      <point x="586" y="114"/>
      <point x="586" y="0" type="curve"/>
      <point x="611" y="0"/>
      <point x="587" y="0"/>
      <point x="612" y="0" type="curve"/>
      <point x="612" y="115"/>
      <point x="612" y="229"/>
      <point x="612" y="344" type="curve"/>
      <point x="612" y="475"/>
      <point x="530" y="538"/>
      <point x="395" y="538" type="curve"/>
      <point x="273" y="538"/>
      <point x="158" y="479"/>
      <point x="116" y="364" type="curve"/>
      <point x="128" y="352"/>
      <point x="116" y="363"/>
    </contour>
    <contour>
      <point x="134" y="0" type="curve"/>
      <point x="134" y="178"/>
      <point x="134" y="355"/>
      <point x="134" y="533" type="curve"/>
      <point x="108" y="533"/>
      <point x="134" y="533"/>
      <point x="108" y="533" type="curve"/>
      <point x="108" y="355"/>
      <point x="108" y="178"/>
      <point x="108" y="0" type="curve"/>
      <point x="134" y="0"/>
      <point x="108" y="0"/>
    </contour>
    <contour>
      <point x="365" y="669" type="move" name="top"/>
    </contour>
    <contour>
      <point x="406" y="-8" type="move" name="bottom"/>
    </contour>
  </outline>
</glyph>
<glyph name="p" format="1">
  <advance width="738"/>
  <unicode hex="0070"/>
  <outline>
    <contour>
      <point x="126" y="420" type="curve"/>
      <point x="180" y="473"/>
      <point x="281" y="515"/>
      <point x="392" y="515" type="curve"/>
      <point x="544" y="515"/>
      <point x="648" y="423"/>
      <point x="648" y="276" type="curve"/>
      <point x="652" y="120"/>
      <point x="549" y="16"/>
      <point x="393" y="18" type="curve"/>
      <point x="287" y="18"/>
      <point x="211" y="56"/>
      <point x="128" y="123" type="curve"/>
      <point x="113" y="111"/>
      <point x="128" y="122"/>
      <point x="113" y="111" type="curve"/>
      <point x="198" y="36"/>
      <point x="279" y="-5"/>
      <point x="393" y="-5" type="curve"/>
      <point x="563" y="-5"/>
      <point x="673" y="108"/>
      <point x="672" y="277" type="curve"/>
      <point x="672" y="438"/>
      <point x="558" y="538"/>
      <point x="393" y="538" type="curve"/>
      <point x="276" y="538"/>
      <point x="172" y="493"/>
      <point x="114" y="435" type="curve"/>
      <point x="127" y="421"/>
      <point x="114" y="435"/>
    </contour>
    <contour>
      <point x="134" y="-300" type="curve"/>
      <point x="134" y="-22"/>
      <point x="134" y="255"/>
      <point x="134" y="533" type="curve"/>
      <point x="108" y="533"/>
      <point x="134" y="533"/>
      <point x="108" y="533" type="curve"/>
      <point x="108" y="255"/>
      <point x="108" y="-22"/>
      <point x="108" y="-300" type="curve"/>
      <point x="134" y="-300"/>
      <point x="108" y="-300"/>
    </contour>
  </outline>
</glyph>
<glyph name="q" format="1">
  <advance width="747"/>
  <unicode hex="0071"/>
  <outline>
    <contour>
      <point x="633" y="442" type="curve"/>
      <point x="556" y="503"/>
      <point x="452" y="538"/>
      <point x="351" y="538" type="curve"/>
      <point x="179" y="538"/>
      <point x="67" y="433"/>
      <point x="67" y="264" type="curve"/>
      <point x="67" y="95"/>
      <point x="183" y="-5"/>
      <point x="355" y="-5" type="curve"/>
      <point x="462" y="-5"/>
      <point x="563" y="43"/>
      <point x="631" y="121" type="curve"/>
      <point x="615" y="135"/>
      <point x="635" y="127"/>
      <point x="620" y="141" type="curve"/>
      <point x="552" y="62"/>
      <point x="456" y="18"/>
      <point x="355" y="18" type="curve"/>
      <point x="200" y="18"/>
      <point x="93" y="110"/>
      <point x="93" y="265" type="curve"/>
      <point x="93" y="420"/>
      <point x="196" y="515"/>
      <point x="352" y="515" type="curve"/>
      <point x="448" y="515"/>
      <point x="546" y="480"/>
      <point x="622" y="424" type="curve"/>
      <point x="635" y="439"/>
      <point x="620" y="427"/>
    </contour>
    <contour>
      <point x="638" y="-300" type="curve"/>
      <point x="638" y="-22"/>
      <point x="638" y="255"/>
      <point x="638" y="533" type="curve"/>
      <point x="612" y="533"/>
      <point x="637" y="533"/>
      <point x="611" y="533" type="curve"/>
      <point x="611" y="255"/>
      <point x="611" y="-22"/>
      <point x="611" y="-300" type="curve"/>
      <point x="637" y="-300"/>
      <point x="612" y="-300"/>
    </contour>
  </outline>
</glyph>
<glyph name="r" format="1">
  <advance width="454"/>
  <unicode hex="0072"/>
  <outline>
    <contour>
      <point x="134" y="0" type="curve"/>
      <point x="134" y="178"/>
      <point x="134" y="355"/>
      <point x="134" y="533" type="curve"/>
      <point x="109" y="533"/>
      <point x="133" y="533"/>
      <point x="108" y="533" type="curve"/>
      <point x="108" y="355"/>
      <point x="108" y="178"/>
      <point x="108" y="0" type="curve"/>
      <point x="133" y="0"/>
      <point x="109" y="0"/>
    </contour>
    <contour>
      <point x="127" y="353" type="curve"/>
      <point x="194" y="477"/>
      <point x="313" y="515"/>
      <point x="441" y="515" type="curve"/>
      <point x="441" y="538"/>
      <point x="441" y="515"/>
      <point x="441" y="538" type="curve"/>
      <point x="307" y="538"/>
      <point x="171" y="490"/>
      <point x="120" y="376" type="curve"/>
      <point x="133" y="358"/>
      <point x="115" y="370"/>
    </contour>
    <contour>
      <point x="127" y="670" type="move" name="top"/>
    </contour>
    <contour>
      <point x="155" y="-5" type="move" name="bottom"/>
    </contour>
  </outline>
</glyph>
<glyph name="s" format="1">
  <advance width="547"/>
  <unicode hex="0073"/>
  <outline>
    <contour>
      <point x="50" y="51" type="curve"/>
      <point x="129" y="19"/>
      <point x="201" y="-5"/>
      <point x="283" y="-5" type="curve"/>
      <point x="402" y="-5"/>
      <point x="490" y="30"/>
      <point x="490" y="139" type="curve"/>
      <point x="489" y="250"/>
      <point x="388" y="259"/>
      <point x="274" y="288" type="curve" smooth="yes"/>
      <point x="182" y="310"/>
      <point x="103" y="332"/>
      <point x="103" y="414" type="curve"/>
      <point x="103" y="493"/>
      <point x="170" y="515"/>
      <point x="260" y="515" type="curve"/>
      <point x="323" y="515"/>
      <point x="397" y="494"/>
      <point x="442" y="470" type="curve"/>
      <point x="452" y="489"/>
      <point x="442" y="472"/>
      <point x="453" y="490" type="curve"/>
      <point x="406" y="515"/>
      <point x="328" y="538"/>
      <point x="261" y="538" type="curve"/>
      <point x="157" y="538"/>
      <point x="80" y="509"/>
      <point x="80" y="414" type="curve"/>
      <point x="80" y="316"/>
      <point x="162" y="291"/>
      <point x="265" y="266" type="curve" smooth="yes"/>
      <point x="368" y="239"/>
      <point x="466" y="234"/>
      <point x="465" y="139" type="curve"/>
      <point x="465" y="46"/>
      <point x="388" y="18"/>
      <point x="287" y="18" type="curve"/>
      <point x="207" y="18"/>
      <point x="139" y="42"/>
      <point x="61" y="72" type="curve"/>
      <point x="50" y="51"/>
      <point x="61" y="72"/>
    </contour>
    <contour>
      <point x="262" y="670" type="move" name="top"/>
    </contour>
    <contour>
      <point x="301" y="-9" type="move" name="bottom"/>
    </contour>
  </outline>
</glyph>
<glyph name="t" format="1">
  <advance width="519"/>
  <unicode hex="0074"/>
  <outline>
    <contour>
      <point x="12" y="510" type="curve"/>
      <point x="514" y="510" type="line"/>
      <point x="514" y="533"/>
      <point x="514" y="510"/>
      <point x="514" y="533" type="curve"/>
      <point x="12" y="533" type="line"/>
      <point x="12" y="510"/>
      <point x="12" y="533"/>
    </contour>
    <contour>
      <point x="485" y="49" type="curve"/>
      <point x="439" y="30"/>
      <point x="406" y="18"/>
      <point x="358" y="18" type="curve"/>
      <point x="271" y="18"/>
      <point x="223" y="57"/>
      <point x="223" y="145" type="curve"/>
      <point x="223" y="673" type="line"/>
      <point x="201" y="661"/>
      <point x="219" y="670"/>
      <point x="197" y="657" type="curve"/>
      <point x="197" y="143" type="line"/>
      <point x="197" y="43"/>
      <point x="256" y="-5"/>
      <point x="356" y="-5" type="curve"/>
      <point x="408" y="-5"/>
      <point x="444" y="9"/>
      <point x="494" y="28" type="curve"/>
      <point x="485" y="49"/>
      <point x="494" y="28"/>
    </contour>
    <contour>
      <point x="367" y="-8" type="move" name="bottom"/>
    </contour>
  </outline>
</glyph>
<glyph name="v" format="1">
  <advance width="639"/>
  <unicode hex="0076"/>
  <outline>
    <contour>
      <point x="34" y="533" type="curve"/>
      <point x="122" y="355"/>
      <point x="212" y="178"/>
      <point x="300" y="0" type="curve"/>
      <point x="327" y="0"/>
      <point x="300" y="0"/>
      <point x="327" y="0" type="curve"/>
      <point x="238" y="178"/>
      <point x="150" y="355"/>
      <point x="62" y="533" type="curve"/>
      <point x="34" y="533"/>
      <point x="62" y="533"/>
    </contour>
    <contour>
      <point x="586" y="533" type="curve"/>
      <point x="306" y="0" type="line"/>
      <point x="332" y="0"/>
      <point x="306" y="0"/>
      <point x="332" y="0" type="curve"/>
      <point x="426" y="178"/>
      <point x="519" y="355"/>
      <point x="612" y="533" type="curve"/>
      <point x="586" y="533"/>
      <point x="612" y="533"/>
    </contour>
  </outline>
</glyph>
<glyph name="w" format="1">
  <advance width="1073"/>
  <unicode hex="0077"/>
  <outline>
    <contour>
      <point x="297" y="0" type="curve"/>
      <point x="385" y="178"/>
      <point x="471" y="355"/>
      <point x="558" y="533" type="curve"/>
      <point x="529" y="533"/>
      <point x="558" y="533"/>
      <point x="529" y="533" type="curve"/>
      <point x="443" y="355"/>
      <point x="356" y="178"/>
      <point x="271" y="0" type="curve"/>
      <point x="297" y="0"/>
      <point x="271" y="0"/>
    </contour>
    <contour>
      <point x="1013" y="533" type="curve"/>
      <point x="932" y="355"/>
      <point x="852" y="178"/>
      <point x="772" y="0" type="curve"/>
      <point x="798" y="0"/>
      <point x="772" y="0"/>
      <point x="798" y="0" type="curve"/>
      <point x="879" y="178"/>
      <point x="960" y="355"/>
      <point x="1042" y="533" type="curve"/>
      <point x="1013" y="533"/>
      <point x="1042" y="533"/>
    </contour>
    <contour>
      <point x="536" y="533" type="curve"/>
      <point x="614" y="355"/>
      <point x="692" y="178"/>
      <point x="770" y="0" type="curve"/>
      <point x="797" y="0"/>
      <point x="770" y="0"/>
      <point x="797" y="0" type="curve"/>
      <point x="719" y="178"/>
      <point x="641" y="355"/>
      <point x="564" y="533" type="curve"/>
      <point x="536" y="533"/>
      <point x="564" y="533"/>
    </contour>
    <contour>
      <point x="36" y="533" type="curve"/>
      <point x="114" y="355"/>
      <point x="192" y="178"/>
      <point x="270" y="0" type="curve"/>
      <point x="296" y="0"/>
      <point x="270" y="0"/>
      <point x="296" y="0" type="curve"/>
      <point x="219" y="178"/>
      <point x="142" y="355"/>
      <point x="65" y="533" type="curve"/>
      <point x="36" y="533"/>
      <point x="65" y="533"/>
    </contour>
  </outline>
</glyph>
<glyph name="x" format="1">
  <advance width="630"/>
  <unicode hex="0078"/>
  <outline>
    <contour>
      <point x="611" y="0" type="curve"/>
      <point x="434" y="176"/>
      <point x="252" y="357"/>
      <point x="75" y="533" type="curve"/>
      <point x="40" y="533"/>
      <point x="75" y="533"/>
      <point x="41" y="533" type="curve"/>
      <point x="217" y="357"/>
      <point x="399" y="176"/>
      <point x="574" y="0" type="curve"/>
      <point x="611" y="0"/>
      <point x="574" y="0"/>
    </contour>
    <contour>
      <point x="559" y="533" type="curve"/>
      <point x="381" y="357"/>
      <point x="196" y="176"/>
      <point x="17" y="0" type="curve"/>
      <point x="54" y="0"/>
      <point x="17" y="0"/>
      <point x="54" y="0" type="curve"/>
      <point x="231" y="176"/>
      <point x="415" y="357"/>
      <point x="593" y="533" type="curve"/>
      <point x="558" y="533"/>
      <point x="594" y="533"/>
    </contour>
  </outline>
</glyph>
<glyph name="y" format="1">
  <advance width="708"/>
  <unicode hex="0079"/>
  <outline>
    <contour>
      <point x="360" y="9" type="curve"/>
      <point x="265" y="165"/>
      <point x="152" y="377"/>
      <point x="56" y="533" type="curve"/>
      <point x="28" y="533"/>
      <point x="56" y="533"/>
      <point x="28" y="533" type="curve"/>
      <point x="125" y="376"/>
      <point x="238" y="159"/>
      <point x="336" y="3" type="curve"/>
      <point x="360" y="3"/>
      <point x="336" y="9"/>
    </contour>
    <contour>
      <point x="172" y="-300" type="curve"/>
      <point x="335" y="-52"/>
      <point x="528" y="285"/>
      <point x="691" y="533" type="curve"/>
      <point x="663" y="533"/>
      <point x="691" y="533"/>
      <point x="663" y="533" type="curve"/>
      <point x="500" y="285"/>
      <point x="306" y="-52"/>
      <point x="143" y="-300" type="curve"/>
      <point x="172" y="-300"/>
      <point x="143" y="-300"/>
    </contour>
    <contour>
      <point x="349" y="670" type="move" name="top"/>
    </contour>
  </outline>
</glyph>
<glyph name="braceleft" format="1">
  <advance width="334"/>
  <unicode hex="007B"/>
  <outline>
    <contour>
      <point x="309" y="-101" type="curve"/>
      <point x="225" y="-101"/>
      <point x="171" y="-55"/>
      <point x="171" y="26" type="curve"/>
      <point x="171" y="85"/>
      <point x="171" y="144"/>
      <point x="171" y="203" type="curve"/>
      <point x="171" y="296"/>
      <point x="108" y="351"/>
      <point x="12" y="351" type="curve"/>
      <point x="12" y="327"/>
      <point x="12" y="351"/>
      <point x="12" y="327" type="curve"/>
      <point x="93" y="327"/>
      <point x="149" y="284"/>
      <point x="149" y="205" type="curve"/>
      <point x="149" y="146"/>
      <point x="149" y="86"/>
      <point x="149" y="27" type="curve"/>
      <point x="149" y="-67"/>
      <point x="211" y="-123"/>
      <point x="309" y="-123" type="curve"/>
      <point x="309" y="-101"/>
      <point x="309" y="-123"/>
    </contour>
    <contour>
      <point x="309" y="800" type="curve"/>
      <point x="210" y="800"/>
      <point x="148" y="745"/>
      <point x="148" y="650" type="curve"/>
      <point x="148" y="590"/>
      <point x="148" y="530"/>
      <point x="148" y="470" type="curve"/>
      <point x="148" y="392"/>
      <point x="93" y="351"/>
      <point x="12" y="351" type="curve"/>
      <point x="12" y="327"/>
      <point x="12" y="351"/>
      <point x="12" y="327" type="curve"/>
      <point x="107" y="327"/>
      <point x="170" y="380"/>
      <point x="170" y="473" type="curve"/>
      <point x="170" y="532"/>
      <point x="170" y="591"/>
      <point x="170" y="650" type="curve"/>
      <point x="170" y="731"/>
      <point x="224" y="778"/>
      <point x="309" y="778" type="curve"/>
      <point x="309" y="800"/>
      <point x="309" y="778"/>
    </contour>
  </outline>
</glyph>
<glyph name="braceright" format="1">
  <advance width="335"/>
  <unicode hex="007D"/>
  <outline>
    <contour>
      <point x="26" y="-124" type="curve"/>
      <point x="123" y="-124"/>
      <point x="186" y="-68"/>
      <point x="186" y="27" type="curve"/>
      <point x="186" y="86"/>
      <point x="186" y="146"/>
      <point x="186" y="205" type="curve"/>
      <point x="186" y="283"/>
      <point x="242" y="327"/>
      <point x="323" y="327" type="curve"/>
      <point x="323" y="350"/>
      <point x="323" y="327"/>
      <point x="323" y="350" type="curve"/>
      <point x="227" y="350"/>
      <point x="164" y="295"/>
      <point x="164" y="203" type="curve"/>
      <point x="164" y="144"/>
      <point x="164" y="85"/>
      <point x="164" y="26" type="curve"/>
      <point x="164" y="-55"/>
      <point x="110" y="-102"/>
      <point x="26" y="-102" type="curve"/>
      <point x="26" y="-124"/>
      <point x="26" y="-102"/>
    </contour>
    <contour>
      <point x="26" y="777" type="curve"/>
      <point x="110" y="777"/>
      <point x="163" y="731"/>
      <point x="163" y="650" type="curve"/>
      <point x="163" y="591"/>
      <point x="163" y="532"/>
      <point x="163" y="473" type="curve"/>
      <point x="163" y="379"/>
      <point x="227" y="327"/>
      <point x="323" y="327" type="curve"/>
      <point x="323" y="350"/>
      <point x="323" y="327"/>
      <point x="323" y="350" type="curve"/>
      <point x="241" y="350"/>
      <point x="185" y="391"/>
      <point x="185" y="470" type="curve"/>
      <point x="185" y="530"/>
      <point x="185" y="590"/>
      <point x="185" y="650" type="curve"/>
      <point x="185" y="745"/>
      <point x="123" y="799"/>
      <point x="26" y="799" type="curve"/>
      <point x="26" y="777"/>
      <point x="26" y="799"/>
    </contour>
  </outline>
</glyph>
<glyph name="asciitilde" format="1">
  <advance width="824"/>
  <unicode hex="007E"/>
  <outline>
    <contour>
      <point x="708" y="344" type="curve"/>
      <point x="683" y="290"/>
      <point x="644" y="242"/>
      <point x="573" y="242" type="curve"/>
      <point x="512" y="242"/>
      <point x="469" y="256"/>
      <point x="419" y="290" type="curve"/>
      <point x="366" y="325"/>
      <point x="325" y="346"/>
      <point x="264" y="346" type="curve"/>
      <point x="171" y="346"/>
      <point x="123" y="306"/>
      <point x="95" y="227" type="curve"/>
      <point x="114" y="219"/>
      <point x="96" y="227"/>
      <point x="115" y="219" type="curve"/>
      <point x="138" y="283"/>
      <point x="183" y="323"/>
      <point x="262" y="323" type="curve"/>
      <point x="316" y="323"/>
      <point x="353" y="310"/>
      <point x="397" y="279" type="curve"/>
      <point x="456" y="241"/>
      <point x="500" y="221"/>
      <point x="571" y="220" type="curve"/>
      <point x="657" y="220"/>
      <point x="699" y="268"/>
      <point x="729" y="337" type="curve"/>
      <point x="709" y="344"/>
      <point x="728" y="338"/>
    </contour>
  </outline>
</glyph>
<glyph name="exclamdown" format="1">
  <advance width="241"/>
  <unicode hex="00A1"/>
  <outline>
    <contour>
      <point x="110" y="316" type="line"/>
      <point x="105" y="-177" type="line"/>
      <point x="139" y="-177" type="line"/>
      <point x="134" y="316" type="line"/>
    </contour>
    <contour>
      <point x="100" y="532" type="curve"/>
      <point x="100" y="521"/>
      <point x="109" y="514"/>
      <point x="121" y="514" type="curve"/>
      <point x="132" y="514"/>
      <point x="140" y="521"/>
      <point x="140" y="532" type="curve"/>
      <point x="122" y="532"/>
      <point x="118" y="532"/>
      <point x="100" y="532" type="curve"/>
      <point x="100" y="543"/>
      <point x="109" y="551"/>
      <point x="121" y="551" type="curve"/>
      <point x="132" y="551"/>
      <point x="140" y="543"/>
      <point x="140" y="532" type="curve"/>
      <point x="122" y="532"/>
      <point x="118" y="532"/>
    </contour>
  </outline>
</glyph>
<glyph name="cent" format="1">
  <advance width="764"/>
  <unicode hex="00A2"/>
  <outline>
    <contour>
      <point x="408" y="-53" type="curve"/>
      <point x="408" y="-13"/>
      <point x="408" y="27"/>
      <point x="408" y="67" type="curve"/>
      <point x="384" y="67"/>
      <point x="408" y="67"/>
      <point x="384" y="67" type="curve"/>
      <point x="384" y="27"/>
      <point x="384" y="-13"/>
      <point x="384" y="-53" type="curve"/>
      <point x="408" y="-53"/>
      <point x="384" y="-53"/>
    </contour>
    <contour>
      <point x="410" y="778" type="curve"/>
      <point x="410" y="742"/>
      <point x="410" y="706"/>
      <point x="410" y="670" type="curve"/>
      <point x="434" y="670"/>
      <point x="410" y="670"/>
      <point x="434" y="670" type="curve"/>
      <point x="434" y="706"/>
      <point x="434" y="742"/>
      <point x="434" y="778" type="curve"/>
      <point x="410" y="778"/>
      <point x="434" y="778"/>
    </contour>
    <contour>
      <point x="701" y="609" type="curve"/>
      <point x="608" y="660"/>
      <point x="534" y="679"/>
      <point x="427" y="679" type="curve"/>
      <point x="212" y="679"/>
      <point x="61" y="571"/>
      <point x="61" y="366" type="curve"/>
      <point x="61" y="171"/>
      <point x="192" y="54"/>
      <point x="393" y="54" type="curve"/>
      <point x="513" y="54"/>
      <point x="597" y="83"/>
      <point x="698" y="146" type="curve"/>
      <point x="682" y="164"/>
      <point x="698" y="146"/>
      <point x="682" y="164" type="curve"/>
      <point x="588" y="102"/>
      <point x="509" y="77"/>
      <point x="395" y="77" type="curve"/>
      <point x="208" y="77"/>
      <point x="85" y="184"/>
      <point x="85" y="367" type="curve"/>
      <point x="85" y="557"/>
      <point x="226" y="656"/>
      <point x="425" y="656" type="curve"/>
      <point x="527" y="656"/>
      <point x="599" y="639"/>
      <point x="687" y="589" type="curve"/>
      <point x="701" y="609"/>
      <point x="687" y="589"/>
    </contour>
  </outline>
</glyph>
<glyph name="sterling" format="1">
  <advance width="633"/>
  <unicode hex="00A3"/>
  <outline>
    <contour>
      <point x="559" y="23" type="curve"/>
      <point x="386" y="23"/>
      <point x="214" y="23"/>
      <point x="41" y="23" type="curve"/>
      <point x="41" y="1"/>
      <point x="41" y="23"/>
      <point x="41" y="1" type="curve"/>
      <point x="214" y="1"/>
      <point x="386" y="1"/>
      <point x="559" y="1" type="curve"/>
      <point x="559" y="23"/>
      <point x="559" y="1"/>
    </contour>
    <contour>
      <point x="498" y="388" type="curve"/>
      <point x="361" y="388"/>
      <point x="223" y="388"/>
      <point x="86" y="388" type="curve"/>
      <point x="86" y="366"/>
      <point x="86" y="388"/>
      <point x="86" y="366" type="curve"/>
      <point x="223" y="366"/>
      <point x="361" y="366"/>
      <point x="498" y="366" type="curve"/>
      <point x="498" y="388"/>
      <point x="498" y="366"/>
    </contour>
    <contour>
      <point x="571" y="674" type="curve"/>
      <point x="512" y="707"/>
      <point x="467" y="722"/>
      <point x="399" y="722" type="curve"/>
      <point x="234" y="722"/>
      <point x="160" y="565"/>
      <point x="210" y="375" type="curve"/>
      <point x="259" y="185"/>
      <point x="198" y="23"/>
      <point x="41" y="23" type="curve"/>
      <point x="41" y="1"/>
      <point x="41" y="23"/>
      <point x="41" y="1" type="curve"/>
      <point x="222" y="1"/>
      <point x="286" y="175"/>
      <point x="234" y="379" type="curve"/>
      <point x="190" y="554"/>
      <point x="259" y="701"/>
      <point x="398" y="701" type="curve"/>
      <point x="461" y="701"/>
      <point x="504" y="689"/>
      <point x="558" y="656" type="curve"/>
      <point x="571" y="674"/>
      <point x="558" y="656"/>
    </contour>
  </outline>
</glyph>
<glyph name="currency" format="1">
  <advance width="721"/>
  <unicode hex="00A4"/>
  <outline>
    <contour>
      <point x="184" y="310" type="curve"/>
      <point x="184" y="407"/>
      <point x="260" y="457"/>
      <point x="363" y="457" type="curve"/>
      <point x="466" y="457"/>
      <point x="537" y="406"/>
      <point x="537" y="310" type="curve"/>
      <point x="537" y="213"/>
      <point x="467" y="157"/>
      <point x="367" y="157" type="curve"/>
      <point x="259" y="157"/>
      <point x="184" y="209"/>
      <point x="184" y="310" type="curve"/>
      <point x="160" y="310"/>
      <point x="184" y="310"/>
      <point x="160" y="310" type="curve"/>
      <point x="160" y="196"/>
      <point x="245" y="135"/>
      <point x="366" y="135" type="curve"/>
      <point x="482" y="135"/>
      <point x="561" y="200"/>
      <point x="561" y="311" type="curve"/>
      <point x="561" y="421"/>
      <point x="480" y="479"/>
      <point x="365" y="479" type="curve"/>
      <point x="245" y="479"/>
      <point x="160" y="422"/>
      <point x="160" y="310" type="curve"/>
      <point x="184" y="310"/>
      <point x="160" y="310"/>
    </contour>
    <contour>
      <point x="513" y="407" type="line"/>
      <point x="648" y="538" type="line"/>
      <point x="626" y="561" type="line"/>
      <point x="495" y="425" type="line"/>
    </contour>
    <contour>
      <point x="494" y="193" type="line"/>
      <point x="625" y="58" type="line"/>
      <point x="647" y="81" type="line"/>
      <point x="511" y="211" type="line"/>
    </contour>
    <contour>
      <point x="207" y="211" type="line"/>
      <point x="72" y="81" type="line"/>
      <point x="94" y="58" type="line"/>
      <point x="225" y="193" type="line"/>
    </contour>
    <contour>
      <point x="225" y="425" type="line"/>
      <point x="94" y="561" type="line"/>
      <point x="72" y="538" type="line"/>
      <point x="207" y="407" type="line"/>
    </contour>
  </outline>
</glyph>
<glyph name="yen" format="1">
  <advance width="746"/>
  <unicode hex="00A5"/>
  <outline>
    <contour>
      <point x="659" y="372" type="curve"/>
      <point x="569" y="372"/>
      <point x="478" y="372"/>
      <point x="388" y="372" type="curve"/>
      <point x="388" y="348"/>
      <point x="388" y="372"/>
      <point x="388" y="348" type="curve"/>
      <point x="478" y="348"/>
      <point x="569" y="348"/>
      <point x="659" y="348" type="curve"/>
      <point x="659" y="372"/>
      <point x="659" y="348"/>
    </contour>
    <contour>
      <point x="351" y="372" type="curve"/>
      <point x="262" y="372"/>
      <point x="173" y="372"/>
      <point x="84" y="372" type="curve"/>
      <point x="84" y="348"/>
      <point x="84" y="372"/>
      <point x="84" y="348" type="curve"/>
      <point x="173" y="348"/>
      <point x="262" y="348"/>
      <point x="351" y="348" type="curve"/>
      <point x="351" y="372"/>
      <point x="351" y="348"/>
    </contour>
    <contour>
      <point x="659" y="252" type="curve"/>
      <point x="468" y="252"/>
      <point x="276" y="252"/>
      <point x="84" y="252" type="curve"/>
      <point x="84" y="228"/>
      <point x="84" y="252"/>
      <point x="84" y="228" type="curve"/>
      <point x="276" y="228"/>
      <point x="468" y="228"/>
      <point x="659" y="228" type="curve"/>
      <point x="659" y="252"/>
      <point x="659" y="228"/>
    </contour>
    <contour>
      <point x="53" y="722" type="curve"/>
      <point x="153" y="594"/>
      <point x="254" y="465"/>
      <point x="355" y="337" type="curve"/>
      <point x="383" y="337"/>
      <point x="355" y="341"/>
      <point x="383" y="341" type="curve"/>
      <point x="283" y="468"/>
      <point x="184" y="595"/>
      <point x="84" y="722" type="curve"/>
      <point x="53" y="722"/>
      <point x="83" y="722"/>
    </contour>
    <contour>
      <point x="670" y="722" type="curve"/>
      <point x="564" y="595"/>
      <point x="459" y="468"/>
      <point x="355" y="341" type="curve"/>
      <point x="382" y="341"/>
      <point x="355" y="337"/>
      <point x="382" y="337" type="curve"/>
      <point x="488" y="465"/>
      <point x="594" y="594"/>
      <point x="701" y="722" type="curve"/>
      <point x="670" y="722"/>
      <point x="700" y="722"/>
    </contour>
    <contour>
      <point x="382" y="0" type="curve"/>
      <point x="382" y="115"/>
      <point x="382" y="231"/>
      <point x="382" y="346" type="curve"/>
      <point x="354" y="346"/>
      <point x="382" y="346"/>
      <point x="354" y="346" type="curve"/>
      <point x="354" y="231"/>
      <point x="354" y="115"/>
      <point x="354" y="0" type="curve"/>
      <point x="382" y="0"/>
      <point x="354" y="0"/>
    </contour>
  </outline>
</glyph>
<glyph name="section" format="1">
  <advance width="575"/>
  <unicode hex="00A7"/>
  <outline>
    <contour>
      <point x="476" y="709" type="curve"/>
      <point x="410" y="738"/>
      <point x="361" y="752"/>
      <point x="289" y="752" type="curve"/>
      <point x="187" y="752"/>
      <point x="111" y="714"/>
      <point x="111" y="627" type="curve"/>
      <point x="111" y="542"/>
      <point x="182" y="509"/>
      <point x="269" y="484" type="curve"/>
      <point x="375" y="455"/>
      <point x="488" y="458"/>
      <point x="488" y="361" type="curve"/>
      <point x="488" y="282"/>
      <point x="419" y="242"/>
      <point x="328" y="229" type="curve"/>
      <point x="343" y="211"/>
      <point x="328" y="229"/>
      <point x="343" y="211" type="curve"/>
      <point x="440" y="230"/>
      <point x="513" y="269"/>
      <point x="513" y="361" type="curve"/>
      <point x="512" y="473"/>
      <point x="397" y="477"/>
      <point x="282" y="505" type="curve"/>
      <point x="203" y="526"/>
      <point x="136" y="553"/>
      <point x="136" y="627" type="curve"/>
      <point x="136" y="700"/>
      <point x="200" y="730"/>
      <point x="287" y="730" type="curve"/>
      <point x="355" y="730"/>
      <point x="402" y="718"/>
      <point x="465" y="690" type="curve"/>
      <point x="476" y="709"/>
      <point x="465" y="690"/>
    </contour>
    <contour>
      <point x="228" y="513" type="curve"/>
      <point x="138" y="491"/>
      <point x="68" y="455"/>
      <point x="68" y="367" type="curve"/>
      <point x="68" y="261"/>
      <point x="171" y="247"/>
      <point x="281" y="220" type="curve"/>
      <point x="367" y="196"/>
      <point x="451" y="180"/>
      <point x="451" y="100" type="curve"/>
      <point x="451" y="27"/>
      <point x="381" y="-7"/>
      <point x="292" y="-7" type="curve"/>
      <point x="213" y="-7"/>
      <point x="161" y="9"/>
      <point x="93" y="45" type="curve"/>
      <point x="79" y="28"/>
      <point x="93" y="45"/>
      <point x="79" y="28" type="curve"/>
      <point x="151" y="-13"/>
      <point x="208" y="-29"/>
      <point x="290" y="-29" type="curve"/>
      <point x="394" y="-29"/>
      <point x="476" y="6"/>
      <point x="476" y="100" type="curve"/>
      <point x="474" y="191"/>
      <point x="392" y="217"/>
      <point x="296" y="240" type="curve"/>
      <point x="195" y="267"/>
      <point x="93" y="276"/>
      <point x="93" y="367" type="curve"/>
      <point x="93" y="447"/>
      <point x="157" y="476"/>
      <point x="240" y="497" type="curve"/>
      <point x="228" y="513"/>
      <point x="240" y="497"/>
    </contour>
  </outline>
</glyph>
<glyph name="dieresis" format="1">
  <advance width="453"/>
  <unicode hex="00A8"/>
  <outline>
    <contour>
      <point x="148" y="668" type="curve"/>
      <point x="148" y="679"/>
      <point x="140" y="687"/>
      <point x="128" y="687" type="curve"/>
      <point x="116" y="687"/>
      <point x="109" y="679"/>
      <point x="109" y="668" type="curve"/>
      <point x="127" y="668"/>
      <point x="130" y="668"/>
      <point x="148" y="668" type="curve"/>
      <point x="148" y="657"/>
      <point x="140" y="650"/>
      <point x="128" y="650" type="curve"/>
      <point x="116" y="650"/>
      <point x="109" y="657"/>
      <point x="109" y="668" type="curve"/>
      <point x="127" y="668"/>
      <point x="130" y="668"/>
    </contour>
    <contour>
      <point x="303" y="668" type="curve"/>
      <point x="303" y="679"/>
      <point x="295" y="687"/>
      <point x="283" y="687" type="curve"/>
      <point x="271" y="687"/>
      <point x="264" y="679"/>
      <point x="264" y="668" type="curve"/>
      <point x="282" y="668"/>
      <point x="285" y="668"/>
      <point x="303" y="668" type="curve"/>
      <point x="303" y="657"/>
      <point x="295" y="650"/>
      <point x="283" y="650" type="curve"/>
      <point x="271" y="650"/>
      <point x="264" y="657"/>
      <point x="264" y="668" type="curve"/>
      <point x="282" y="668"/>
      <point x="285" y="668"/>
    </contour>
    <contour>
      <point x="205" y="650" type="move" name="_top"/>
    </contour>
  </outline>
</glyph>
<glyph name="copyright" format="1">
  <advance width="946"/>
  <unicode hex="00A9"/>
  <outline>
    <contour>
      <point x="98" y="319" type="curve"/>
      <point x="98" y="518"/>
      <point x="265" y="624"/>
      <point x="478" y="624" type="curve"/>
      <point x="685" y="624"/>
      <point x="849" y="515"/>
      <point x="849" y="318" type="curve"/>
      <point x="849" y="126"/>
      <point x="689" y="18"/>
      <point x="486" y="18" type="curve"/>
      <point x="272" y="18"/>
      <point x="98" y="119"/>
      <point x="98" y="319" type="curve"/>
      <point x="73" y="319"/>
      <point x="98" y="319"/>
      <point x="73" y="319" type="curve"/>
      <point x="73" y="108"/>
      <point x="255" y="-4"/>
      <point x="485" y="-4" type="curve"/>
      <point x="704" y="-4"/>
      <point x="873" y="113"/>
      <point x="873" y="319" type="curve"/>
      <point x="873" y="528"/>
      <point x="700" y="645"/>
      <point x="478" y="645" type="curve"/>
      <point x="252" y="645"/>
      <point x="73" y="531"/>
      <point x="73" y="319" type="curve"/>
      <point x="98" y="319"/>
      <point x="73" y="319"/>
    </contour>
    <contour>
      <point x="628" y="464" type="curve"/>
      <point x="579" y="488"/>
      <point x="540" y="496"/>
      <point x="486" y="496" type="curve"/>
      <point x="364" y="496"/>
      <point x="278" y="434"/>
      <point x="278" y="319" type="curve"/>
      <point x="278" y="208"/>
      <point x="355" y="146"/>
      <point x="470" y="146" type="curve"/>
      <point x="538" y="146"/>
      <point x="587" y="156"/>
      <point x="645" y="193" type="curve"/>
      <point x="630" y="209"/>
      <point x="645" y="193"/>
      <point x="630" y="209" type="curve"/>
      <point x="578" y="176"/>
      <point x="533" y="167"/>
      <point x="471" y="167" type="curve"/>
      <point x="370" y="167"/>
      <point x="302" y="222"/>
      <point x="302" y="320" type="curve"/>
      <point x="302" y="421"/>
      <point x="377" y="474"/>
      <point x="485" y="474" type="curve"/>
      <point x="535" y="474"/>
      <point x="568" y="467"/>
      <point x="620" y="446" type="curve"/>
      <point x="628" y="464"/>
      <point x="620" y="446"/>
    </contour>
  </outline>
</glyph>
<glyph name="ordfeminine" format="1">
  <advance width="473"/>
  <unicode hex="00AA"/>
  <outline>
    <contour>
      <point x="380" y="426" type="curve"/>
      <point x="380" y="520"/>
      <point x="380" y="586"/>
      <point x="380" y="680" type="curve"/>
      <point x="380" y="749"/>
      <point x="313" y="765"/>
      <point x="234" y="765" type="curve"/>
      <point x="174" y="765"/>
      <point x="119" y="744"/>
      <point x="84" y="714" type="curve"/>
      <point x="87" y="706"/>
      <point x="89" y="703"/>
      <point x="93" y="695" type="curve"/>
      <point x="125" y="720"/>
      <point x="175" y="743"/>
      <point x="231" y="743" type="curve"/>
      <point x="298" y="743"/>
      <point x="355" y="731"/>
      <point x="355" y="673" type="curve"/>
      <point x="355" y="582"/>
      <point x="355" y="517"/>
      <point x="355" y="426" type="curve"/>
      <point x="365" y="426"/>
      <point x="370" y="426"/>
    </contour>
    <contour>
      <point x="366" y="630" type="curve"/>
      <point x="303" y="624"/>
      <point x="258" y="623"/>
      <point x="195" y="616" type="curve"/>
      <point x="125" y="609"/>
      <point x="71" y="580"/>
      <point x="71" y="514" type="curve"/>
      <point x="71" y="447"/>
      <point x="128" y="419"/>
      <point x="202" y="419" type="curve"/>
      <point x="279" y="419"/>
      <point x="335" y="463"/>
      <point x="373" y="520" type="curve"/>
      <point x="369" y="524"/>
      <point x="365" y="528"/>
      <point x="361" y="532" type="curve"/>
      <point x="326" y="483"/>
      <point x="275" y="442"/>
      <point x="207" y="442" type="curve"/>
      <point x="145" y="442"/>
      <point x="95" y="461"/>
      <point x="95" y="516" type="curve"/>
      <point x="95" y="568"/>
      <point x="138" y="590"/>
      <point x="194" y="596" type="curve"/>
      <point x="257" y="603"/>
      <point x="304" y="604"/>
      <point x="367" y="611" type="curve"/>
      <point x="367" y="619"/>
      <point x="366" y="623"/>
    </contour>
  </outline>
</glyph>
<glyph name="guillemotleft" format="1">
  <advance width="713"/>
  <unicode hex="00AB"/>
  <outline>
    <contour>
      <point x="339" y="398" type="curve"/>
      <point x="338" y="398"/>
      <point x="52" y="289"/>
      <point x="51" y="289" type="curve"/>
      <point x="51" y="264"/>
      <point x="51" y="289"/>
      <point x="51" y="264" type="curve"/>
      <point x="52" y="265"/>
      <point x="338" y="374"/>
      <point x="339" y="374" type="curve"/>
      <point x="339" y="398"/>
      <point x="339" y="374"/>
    </contour>
    <contour>
      <point x="339" y="179" type="curve"/>
      <point x="338" y="179"/>
      <point x="52" y="288"/>
      <point x="51" y="289" type="curve"/>
      <point x="51" y="264"/>
      <point x="51" y="289"/>
      <point x="51" y="264" type="curve"/>
      <point x="52" y="264"/>
      <point x="338" y="155"/>
      <point x="339" y="155" type="curve"/>
      <point x="339" y="179"/>
      <point x="339" y="155"/>
    </contour>
    <contour>
      <point x="630" y="398" type="curve"/>
      <point x="629" y="398"/>
      <point x="344" y="289"/>
      <point x="343" y="289" type="curve"/>
      <point x="343" y="264"/>
      <point x="343" y="289"/>
      <point x="343" y="264" type="curve"/>
      <point x="344" y="265"/>
      <point x="629" y="374"/>
      <point x="630" y="374" type="curve"/>
      <point x="630" y="398"/>
      <point x="630" y="374"/>
    </contour>
    <contour>
      <point x="630" y="179" type="curve"/>
      <point x="629" y="179"/>
      <point x="344" y="288"/>
      <point x="343" y="289" type="curve"/>
      <point x="343" y="264"/>
      <point x="343" y="289"/>
      <point x="343" y="264" type="curve"/>
      <point x="344" y="264"/>
      <point x="629" y="155"/>
      <point x="630" y="155" type="curve"/>
      <point x="630" y="179"/>
      <point x="630" y="155"/>
    </contour>
  </outline>
</glyph>
<glyph name="registered" format="1">
  <advance width="947"/>
  <unicode hex="00AE"/>
  <outline>
    <contour>
      <point x="98" y="319" type="curve"/>
      <point x="98" y="518"/>
      <point x="265" y="624"/>
      <point x="478" y="624" type="curve"/>
      <point x="686" y="624"/>
      <point x="849" y="515"/>
      <point x="849" y="318" type="curve"/>
      <point x="849" y="126"/>
      <point x="690" y="18"/>
      <point x="486" y="18" type="curve"/>
      <point x="272" y="18"/>
      <point x="98" y="119"/>
      <point x="98" y="319" type="curve"/>
      <point x="74" y="319"/>
      <point x="97" y="319"/>
      <point x="74" y="319" type="curve"/>
      <point x="74" y="108"/>
      <point x="256" y="-4"/>
      <point x="485" y="-4" type="curve"/>
      <point x="704" y="-4"/>
      <point x="873" y="112"/>
      <point x="873" y="319" type="curve"/>
      <point x="873" y="529"/>
      <point x="700" y="645"/>
      <point x="478" y="645" type="curve"/>
      <point x="253" y="645"/>
      <point x="74" y="531"/>
      <point x="74" y="319" type="curve"/>
      <point x="97" y="319"/>
      <point x="74" y="319"/>
    </contour>
    <contour>
      <point x="493" y="309" type="curve"/>
      <point x="495" y="303"/>
      <point x="602" y="155"/>
      <point x="605" y="149" type="curve"/>
      <point x="620" y="149"/>
      <point x="612" y="149"/>
      <point x="630" y="149" type="curve"/>
      <point x="628" y="155"/>
      <point x="523" y="303"/>
      <point x="520" y="309" type="curve"/>
      <point x="491" y="309"/>
      <point x="522" y="309"/>
    </contour>
    <contour>
      <point x="393" y="149" type="curve"/>
      <point x="393" y="257"/>
      <point x="393" y="383"/>
      <point x="393" y="491" type="curve"/>
      <point x="379" y="491"/>
      <point x="384" y="491"/>
      <point x="368" y="491" type="curve"/>
      <point x="368" y="383"/>
      <point x="368" y="257"/>
      <point x="368" y="149" type="curve"/>
      <point x="384" y="149"/>
      <point x="379" y="149"/>
    </contour>
    <contour>
      <point x="383" y="295" type="curve"/>
      <point x="410" y="295"/>
      <point x="437" y="295"/>
      <point x="464" y="295" type="curve"/>
      <point x="546" y="295"/>
      <point x="609" y="315"/>
      <point x="609" y="392" type="curve"/>
      <point x="609" y="462"/>
      <point x="550" y="491"/>
      <point x="474" y="491" type="curve"/>
      <point x="447" y="491"/>
      <point x="420" y="491"/>
      <point x="393" y="491" type="curve"/>
      <point x="368" y="469"/>
      <point x="393" y="491"/>
      <point x="368" y="469" type="curve"/>
      <point x="402" y="469"/>
      <point x="436" y="469"/>
      <point x="469" y="469" type="curve"/>
      <point x="533" y="469"/>
      <point x="585" y="448"/>
      <point x="585" y="390" type="curve"/>
      <point x="585" y="329"/>
      <point x="533" y="317"/>
      <point x="467" y="317" type="curve"/>
      <point x="439" y="317"/>
      <point x="411" y="317"/>
      <point x="383" y="317" type="curve"/>
      <point x="383" y="295"/>
      <point x="383" y="317"/>
    </contour>
  </outline>
</glyph>
<glyph name="macron" format="1">
  <advance width="391"/>
  <unicode hex="00AF"/>
  <outline>
    <contour>
      <point x="331" y="680" type="curve"/>
      <point x="234" y="680"/>
      <point x="138" y="680"/>
      <point x="42" y="680" type="curve"/>
      <point x="42" y="658"/>
      <point x="42" y="680"/>
      <point x="42" y="658" type="curve"/>
      <point x="138" y="658"/>
      <point x="234" y="658"/>
      <point x="331" y="658" type="curve"/>
      <point x="331" y="680"/>
      <point x="331" y="658"/>
    </contour>
    <contour>
      <point x="191" y="658" type="move" name="_top"/>
    </contour>
  </outline>
</glyph>
<glyph name="degree" format="1">
  <advance width="564"/>
  <unicode hex="00B0"/>
  <outline>
    <contour>
      <point x="490" y="432" type="curve"/>
      <point x="490" y="559"/>
      <point x="409" y="638"/>
      <point x="281" y="638" type="curve"/>
      <point x="154" y="638"/>
      <point x="76" y="559"/>
      <point x="76" y="434" type="curve"/>
      <point x="99" y="434"/>
      <point x="76" y="434"/>
      <point x="99" y="434" type="curve"/>
      <point x="99" y="545"/>
      <point x="167" y="617"/>
      <point x="279" y="617" type="curve"/>
      <point x="393" y="617"/>
      <point x="466" y="545"/>
      <point x="466" y="432" type="curve"/>
      <point x="466" y="315"/>
      <point x="398" y="240"/>
      <point x="282" y="240" type="curve"/>
      <point x="167" y="240"/>
      <point x="99" y="317"/>
      <point x="99" y="434" type="curve"/>
      <point x="76" y="434"/>
      <point x="99" y="434"/>
      <point x="76" y="434" type="curve"/>
      <point x="76" y="303"/>
      <point x="152" y="218"/>
      <point x="281" y="218" type="curve"/>
      <point x="411" y="218"/>
      <point x="490" y="301"/>
    </contour>
  </outline>
</glyph>
<glyph name="plusminus" format="1">
  <advance width="754"/>
  <unicode hex="00B1"/>
  <outline>
    <contour>
      <point x="72" y="18" type="line"/>
      <point x="682" y="18" type="line"/>
      <point x="682" y="43" type="line"/>
      <point x="72" y="43" type="line"/>
    </contour>
    <contour>
      <point x="72" y="297" type="curve"/>
      <point x="682" y="297" type="line"/>
      <point x="682" y="322"/>
      <point x="682" y="297"/>
      <point x="682" y="322" type="curve"/>
      <point x="72" y="322" type="line"/>
      <point x="72" y="297"/>
      <point x="72" y="322"/>
    </contour>
    <contour>
      <point x="385" y="18" type="curve"/>
      <point x="385" y="588" type="line"/>
      <point x="359" y="588"/>
      <point x="385" y="588"/>
      <point x="360" y="588" type="curve"/>
      <point x="360" y="18" type="line"/>
      <point x="385" y="18"/>
      <point x="359" y="18"/>
    </contour>
  </outline>
</glyph>
<glyph name="twosuperior" format="1">
  <advance width="548"/>
  <unicode hex="00B2"/>
  <outline>
    <contour>
      <point x="68" y="295" type="curve"/>
      <point x="209" y="295"/>
      <point x="339" y="295"/>
      <point x="470" y="295" type="curve"/>
      <point x="470" y="308"/>
      <point x="470" y="304"/>
      <point x="470" y="317" type="curve"/>
      <point x="342" y="317"/>
      <point x="196" y="317"/>
      <point x="68" y="317" type="curve"/>
      <point x="68" y="296"/>
      <point x="68" y="317"/>
    </contour>
    <contour>
      <point x="124" y="613" type="curve"/>
      <point x="163" y="663"/>
      <point x="211" y="687"/>
      <point x="281" y="687" type="curve"/>
      <point x="360" y="687"/>
      <point x="420" y="660"/>
      <point x="420" y="590" type="curve"/>
      <point x="420" y="529"/>
      <point x="371" y="506"/>
      <point x="320" y="470" type="curve"/>
      <point x="235" y="420"/>
      <point x="151" y="368"/>
      <point x="68" y="317" type="curve"/>
      <point x="78" y="296"/>
      <point x="68" y="317"/>
      <point x="78" y="296" type="curve"/>
      <point x="164" y="348"/>
      <point x="250" y="401"/>
      <point x="335" y="453" type="curve"/>
      <point x="392" y="493"/>
      <point x="443" y="522"/>
      <point x="443" y="591" type="curve"/>
      <point x="443" y="674"/>
      <point x="373" y="709"/>
      <point x="282" y="709" type="curve"/>
      <point x="204" y="709"/>
      <point x="146" y="686"/>
      <point x="105" y="625" type="curve"/>
      <point x="124" y="613"/>
      <point x="105" y="625"/>
    </contour>
    <contour>
      <point x="295" y="708" type="move" name="_top"/>
    </contour>
    <contour>
      <point x="260" y="294" type="move" name="_bottom"/>
    </contour>
  </outline>
</glyph>
<glyph name="threesuperior" format="1">
  <advance width="483"/>
  <unicode hex="00B3"/>
  <outline>
    <contour>
      <point x="96" y="642" type="curve"/>
      <point x="134" y="670"/>
      <point x="177" y="687"/>
      <point x="225" y="687" type="curve"/>
      <point x="304" y="687"/>
      <point x="368" y="671"/>
      <point x="368" y="602" type="curve"/>
      <point x="368" y="517"/>
      <point x="266" y="519"/>
      <point x="168" y="514" type="curve"/>
      <point x="168" y="495"/>
      <point x="168" y="514"/>
      <point x="168" y="495" type="curve"/>
      <point x="285" y="496"/>
      <point x="392" y="503"/>
      <point x="392" y="604" type="curve"/>
      <point x="392" y="685"/>
      <point x="319" y="708"/>
      <point x="228" y="708" type="curve"/>
      <point x="172" y="708"/>
      <point x="121" y="690"/>
      <point x="81" y="656" type="curve"/>
      <point x="96" y="642"/>
      <point x="81" y="656"/>
    </contour>
    <contour>
      <point x="73" y="323" type="curve"/>
      <point x="119" y="300"/>
      <point x="165" y="290"/>
      <point x="216" y="290" type="curve"/>
      <point x="325" y="287"/>
      <point x="415" y="309"/>
      <point x="412" y="402" type="curve"/>
      <point x="412" y="512"/>
      <point x="293" y="504"/>
      <point x="168" y="507" type="curve"/>
      <point x="168" y="491"/>
      <point x="168" y="507"/>
      <point x="168" y="491" type="curve"/>
      <point x="283" y="486"/>
      <point x="388" y="492"/>
      <point x="388" y="401" type="curve"/>
      <point x="388" y="322"/>
      <point x="312" y="309"/>
      <point x="218" y="311" type="curve"/>
      <point x="171" y="311"/>
      <point x="128" y="319"/>
      <point x="85" y="339" type="curve"/>
      <point x="73" y="323"/>
      <point x="85" y="339"/>
    </contour>
    <contour>
      <point x="238" y="708" type="move" name="_top"/>
    </contour>
    <contour>
      <point x="229" y="289" type="move" name="_bottom"/>
    </contour>
  </outline>
</glyph>
<glyph name="paragraph" format="1">
  <advance width="831"/>
  <unicode hex="00B6"/>
  <outline>
    <contour>
      <point x="526" y="699" type="curve"/>
      <point x="718" y="699"/>
      <point x="526" y="699"/>
      <point x="718" y="699" type="curve"/>
      <point x="718" y="722"/>
      <point x="718" y="699"/>
      <point x="718" y="722" type="curve"/>
      <point x="654" y="722"/>
      <point x="589" y="722"/>
      <point x="526" y="722" type="curve"/>
      <point x="526" y="699"/>
      <point x="526" y="722"/>
    </contour>
    <contour>
      <point x="520" y="346" type="curve"/>
      <point x="451" y="319"/>
      <point x="398" y="303"/>
      <point x="324" y="303" type="curve"/>
      <point x="184" y="303"/>
      <point x="74" y="363"/>
      <point x="74" y="493" type="curve"/>
      <point x="74" y="638"/>
      <point x="201" y="699"/>
      <point x="361" y="699" type="curve"/>
      <point x="414" y="699"/>
      <point x="469" y="699"/>
      <point x="522" y="699" type="curve"/>
      <point x="522" y="722"/>
      <point x="522" y="699"/>
      <point x="522" y="722" type="curve"/>
      <point x="468" y="722"/>
      <point x="412" y="722"/>
      <point x="358" y="722" type="curve"/>
      <point x="185" y="722"/>
      <point x="48" y="651"/>
      <point x="48" y="494" type="curve"/>
      <point x="48" y="349"/>
      <point x="169" y="283"/>
      <point x="327" y="280" type="curve"/>
      <point x="400" y="280"/>
      <point x="461" y="299"/>
      <point x="528" y="326" type="curve"/>
      <point x="520" y="346"/>
      <point x="528" y="326"/>
    </contour>
    <contour>
      <point x="540" y="0" type="curve"/>
      <point x="540" y="241"/>
      <point x="540" y="481"/>
      <point x="540" y="722" type="curve"/>
      <point x="514" y="722"/>
      <point x="540" y="722"/>
      <point x="514" y="722" type="curve"/>
      <point x="514" y="481"/>
      <point x="514" y="241"/>
      <point x="514" y="0" type="curve"/>
      <point x="540" y="0"/>
      <point x="514" y="0"/>
    </contour>
    <contour>
      <point x="731" y="0" type="curve"/>
      <point x="731" y="241"/>
      <point x="731" y="481"/>
      <point x="731" y="722" type="curve"/>
      <point x="705" y="722"/>
      <point x="731" y="722"/>
      <point x="705" y="722" type="curve"/>
      <point x="705" y="481"/>
      <point x="705" y="241"/>
      <point x="705" y="0" type="curve"/>
      <point x="731" y="0"/>
      <point x="705" y="0"/>
    </contour>
  </outline>
</glyph>
<glyph name="periodcentered" format="1">
  <advance width="210"/>
  <unicode hex="00B7"/>
  <outline>
    <contour>
      <point x="125" y="440" type="curve"/>
      <point x="125" y="451"/>
      <point x="116" y="458"/>
      <point x="104" y="458" type="curve"/>
      <point x="93" y="458"/>
      <point x="85" y="451"/>
      <point x="85" y="440" type="curve"/>
      <point x="103" y="440"/>
      <point x="107" y="440"/>
      <point x="125" y="440" type="curve"/>
      <point x="125" y="429"/>
      <point x="116" y="422"/>
      <point x="104" y="422" type="curve"/>
      <point x="93" y="422"/>
      <point x="85" y="429"/>
      <point x="85" y="440" type="curve"/>
      <point x="103" y="440"/>
      <point x="107" y="440"/>
    </contour>
  </outline>
</glyph>
<glyph name="cedilla" format="1">
  <advance width="352"/>
  <unicode hex="00B8"/>
  <outline>
    <contour>
      <point x="200" y="19" type="curve"/>
      <point x="180" y="-8"/>
      <point x="161" y="-35"/>
      <point x="142" y="-62" type="curve"/>
      <point x="159" y="-80"/>
      <point x="142" y="-62"/>
      <point x="159" y="-80" type="curve"/>
      <point x="178" y="-52"/>
      <point x="199" y="-24"/>
      <point x="218" y="4" type="curve"/>
      <point x="200" y="19"/>
      <point x="218" y="4"/>
    </contour>
    <contour>
      <point x="159" y="-81" type="curve"/>
      <point x="179" y="-70"/>
      <point x="196" y="-68"/>
      <point x="220" y="-68" type="curve"/>
      <point x="261" y="-68"/>
      <point x="290" y="-86"/>
      <point x="290" y="-124" type="curve"/>
      <point x="290" y="-167"/>
      <point x="251" y="-179"/>
      <point x="203" y="-179" type="curve"/>
      <point x="169" y="-179"/>
      <point x="143" y="-177"/>
      <point x="112" y="-162" type="curve"/>
      <point x="102" y="-180"/>
      <point x="112" y="-162"/>
      <point x="102" y="-180" type="curve"/>
      <point x="136" y="-195"/>
      <point x="164" y="-201"/>
      <point x="202" y="-201" type="curve"/>
      <point x="265" y="-201"/>
      <point x="314" y="-181"/>
      <point x="314" y="-124" type="curve"/>
      <point x="314" y="-73"/>
      <point x="276" y="-46"/>
      <point x="222" y="-46" type="curve"/>
      <point x="192" y="-46"/>
      <point x="171" y="-52"/>
      <point x="143" y="-63" type="curve"/>
      <point x="159" y="-81"/>
      <point x="143" y="-63"/>
    </contour>
    <contour>
      <point x="216" y="4" type="move" name="_bottom"/>
    </contour>
  </outline>
</glyph>
<glyph name="onesuperior" format="1">
  <advance width="324"/>
  <unicode hex="00B9"/>
  <outline>
    <contour>
      <point x="45" y="575" type="line"/>
      <point x="226" y="693" type="line"/>
      <point x="202" y="703" type="line"/>
      <point x="34" y="594" type="line"/>
    </contour>
    <contour>
      <point x="227" y="295" type="curve"/>
      <point x="227" y="703" type="line"/>
      <point x="202" y="703" type="line"/>
      <point x="202" y="295" type="line"/>
      <point x="222" y="295"/>
      <point x="212" y="295"/>
    </contour>
    <contour>
      <point x="215" y="700" type="move" name="_top"/>
    </contour>
    <contour>
      <point x="213" y="295" type="move" name="_bottom"/>
    </contour>
  </outline>
</glyph>
<glyph name="ordmasculine" format="1">
  <advance width="505"/>
  <unicode hex="00BA"/>
  <outline>
    <contour>
      <point x="88" y="600" type="curve"/>
      <point x="88" y="694"/>
      <point x="155" y="747"/>
      <point x="253" y="747" type="curve"/>
      <point x="350" y="747"/>
      <point x="415" y="693"/>
      <point x="415" y="598" type="curve"/>
      <point x="415" y="500"/>
      <point x="354" y="440"/>
      <point x="257" y="440" type="curve"/>
      <point x="155" y="440"/>
      <point x="88" y="500"/>
      <point x="88" y="600" type="curve"/>
      <point x="77" y="600"/>
      <point x="75" y="600"/>
      <point x="64" y="600" type="curve"/>
      <point x="64" y="485"/>
      <point x="140" y="417"/>
      <point x="256" y="417" type="curve"/>
      <point x="369" y="417"/>
      <point x="441" y="486"/>
      <point x="441" y="598" type="curve"/>
      <point x="441" y="707"/>
      <point x="366" y="769"/>
      <point x="254" y="769" type="curve"/>
      <point x="141" y="769"/>
      <point x="64" y="708"/>
      <point x="64" y="600" type="curve"/>
      <point x="75" y="600"/>
      <point x="77" y="600"/>
    </contour>
  </outline>
</glyph>
<glyph name="guillemotright" format="1">
  <advance width="731"/>
  <unicode hex="00BB"/>
  <outline>
    <contour>
      <point x="386" y="398" type="curve"/>
      <point x="387" y="398"/>
      <point x="673" y="289"/>
      <point x="673" y="289" type="curve"/>
      <point x="673" y="264"/>
      <point x="673" y="289"/>
      <point x="673" y="264" type="curve"/>
      <point x="673" y="265"/>
      <point x="387" y="374"/>
      <point x="386" y="374" type="curve"/>
      <point x="386" y="398"/>
      <point x="386" y="374"/>
    </contour>
    <contour>
      <point x="386" y="179" type="curve"/>
      <point x="387" y="179"/>
      <point x="673" y="288"/>
      <point x="673" y="289" type="curve"/>
      <point x="673" y="264"/>
      <point x="673" y="289"/>
      <point x="673" y="264" type="curve"/>
      <point x="673" y="264"/>
      <point x="387" y="155"/>
      <point x="386" y="155" type="curve"/>
      <point x="386" y="179"/>
      <point x="386" y="155"/>
    </contour>
    <contour>
      <point x="95" y="398" type="curve"/>
      <point x="96" y="398"/>
      <point x="381" y="289"/>
      <point x="382" y="289" type="curve"/>
      <point x="382" y="264"/>
      <point x="382" y="289"/>
      <point x="382" y="264" type="curve"/>
      <point x="381" y="265"/>
      <point x="96" y="374"/>
      <point x="95" y="374" type="curve"/>
      <point x="95" y="398"/>
      <point x="95" y="374"/>
    </contour>
    <contour>
      <point x="95" y="179" type="curve"/>
      <point x="96" y="179"/>
      <point x="381" y="288"/>
      <point x="382" y="289" type="curve"/>
      <point x="382" y="264"/>
      <point x="382" y="289"/>
      <point x="382" y="264" type="curve"/>
      <point x="381" y="264"/>
      <point x="96" y="155"/>
      <point x="95" y="155" type="curve"/>
      <point x="95" y="179"/>
      <point x="95" y="155"/>
    </contour>
  </outline>
</glyph>
<glyph name="onequarter" format="1">
  <advance width="1237"/>
  <unicode hex="00BC"/>
  <outline>
    <contour>
      <point x="382" y="-92" type="line"/>
      <point x="930" y="756" type="line"/>
      <point x="901" y="756" type="line"/>
      <point x="354" y="-92" type="line"/>
    </contour>
    <contour>
      <point x="46" y="632" type="line"/>
      <point x="228" y="750" type="line"/>
      <point x="203" y="760" type="line"/>
      <point x="35" y="650" type="line"/>
    </contour>
    <contour>
      <point x="228" y="352" type="curve"/>
      <point x="228" y="760" type="line"/>
      <point x="203" y="760" type="line"/>
      <point x="203" y="352" type="line"/>
      <point x="223" y="352"/>
      <point x="213" y="352"/>
    </contour>
    <contour>
      <point x="1199" y="35" type="line"/>
      <point x="744" y="35" type="line"/>
      <point x="744" y="14" type="line"/>
      <point x="1199" y="14" type="line"/>
    </contour>
    <contour>
      <point x="758" y="16" type="line"/>
      <point x="1069" y="320" type="line"/>
      <point x="1046" y="329" type="line"/>
      <point x="744" y="35" type="line"/>
    </contour>
    <contour>
      <point x="1070" y="-105" type="line"/>
      <point x="1070" y="329" type="line"/>
      <point x="1046" y="329" type="line"/>
      <point x="1046" y="-105" type="line"/>
    </contour>
  </outline>
</glyph>
<glyph name="onehalf" format="1">
  <advance width="1297"/>
  <unicode hex="00BD"/>
  <outline>
    <contour>
      <point x="384" y="-92" type="line"/>
      <point x="931" y="756" type="line"/>
      <point x="903" y="756" type="line"/>
      <point x="355" y="-92" type="line"/>
    </contour>
    <contour>
      <point x="46" y="632" type="line"/>
      <point x="228" y="750" type="line"/>
      <point x="203" y="760" type="line"/>
      <point x="35" y="650" type="line"/>
    </contour>
    <contour>
      <point x="228" y="352" type="curve"/>
      <point x="228" y="760" type="line"/>
      <point x="203" y="760" type="line"/>
      <point x="203" y="352" type="line"/>
      <point x="223" y="352"/>
      <point x="213" y="352"/>
    </contour>
    <contour>
      <point x="849" y="-97" type="curve"/>
      <point x="991" y="-97"/>
      <point x="1121" y="-97"/>
      <point x="1251" y="-97" type="curve"/>
      <point x="1251" y="-84"/>
      <point x="1251" y="-88"/>
      <point x="1251" y="-75" type="curve"/>
      <point x="1124" y="-75"/>
      <point x="978" y="-75"/>
      <point x="849" y="-75" type="curve"/>
      <point x="849" y="-96"/>
      <point x="849" y="-75"/>
    </contour>
    <contour>
      <point x="905" y="221" type="curve"/>
      <point x="945" y="272"/>
      <point x="993" y="296"/>
      <point x="1063" y="296" type="curve"/>
      <point x="1141" y="296"/>
      <point x="1201" y="268"/>
      <point x="1201" y="198" type="curve"/>
      <point x="1201" y="137"/>
      <point x="1152" y="114"/>
      <point x="1101" y="79" type="curve"/>
      <point x="1016" y="28"/>
      <point x="933" y="-24"/>
      <point x="849" y="-75" type="curve"/>
      <point x="859" y="-96"/>
      <point x="849" y="-75"/>
      <point x="859" y="-96" type="curve"/>
      <point x="945" y="-44"/>
      <point x="1031" y="9"/>
      <point x="1117" y="61" type="curve"/>
      <point x="1174" y="102"/>
      <point x="1225" y="130"/>
      <point x="1225" y="199" type="curve"/>
      <point x="1225" y="282"/>
      <point x="1155" y="318"/>
      <point x="1064" y="318" type="curve"/>
      <point x="985" y="318"/>
      <point x="928" y="294"/>
      <point x="886" y="233" type="curve"/>
      <point x="905" y="221"/>
      <point x="886" y="233"/>
    </contour>
  </outline>
</glyph>
<glyph name="threequarters" format="1">
  <advance width="1241"/>
  <unicode hex="00BE"/>
  <outline>
    <contour>
      <point x="388" y="-92" type="line"/>
      <point x="935" y="756" type="line"/>
      <point x="907" y="756" type="line"/>
      <point x="359" y="-92" type="line"/>
    </contour>
    <contour>
      <point x="78" y="691" type="curve"/>
      <point x="116" y="719"/>
      <point x="159" y="737"/>
      <point x="207" y="737" type="curve"/>
      <point x="286" y="737"/>
      <point x="350" y="721"/>
      <point x="350" y="651" type="curve"/>
      <point x="350" y="566"/>
      <point x="249" y="569"/>
      <point x="151" y="563" type="curve"/>
      <point x="151" y="544"/>
      <point x="151" y="563"/>
      <point x="151" y="544" type="curve"/>
      <point x="267" y="545"/>
      <point x="374" y="552"/>
      <point x="374" y="653" type="curve"/>
      <point x="374" y="734"/>
      <point x="302" y="758"/>
      <point x="211" y="758" type="curve"/>
      <point x="155" y="758"/>
      <point x="103" y="739"/>
      <point x="63" y="705" type="curve"/>
      <point x="78" y="691"/>
      <point x="63" y="705"/>
    </contour>
    <contour>
      <point x="55" y="372" type="curve"/>
      <point x="101" y="349"/>
      <point x="147" y="339"/>
      <point x="198" y="339" type="curve"/>
      <point x="307" y="336"/>
      <point x="397" y="358"/>
      <point x="394" y="451" type="curve"/>
      <point x="394" y="561"/>
      <point x="276" y="554"/>
      <point x="151" y="556" type="curve"/>
      <point x="151" y="540"/>
      <point x="151" y="556"/>
      <point x="151" y="540" type="curve"/>
      <point x="265" y="535"/>
      <point x="370" y="541"/>
      <point x="370" y="451" type="curve"/>
      <point x="370" y="372"/>
      <point x="294" y="358"/>
      <point x="200" y="360" type="curve"/>
      <point x="154" y="360"/>
      <point x="110" y="368"/>
      <point x="67" y="388" type="curve"/>
      <point x="55" y="372"/>
      <point x="67" y="388"/>
    </contour>
    <contour>
      <point x="1204" y="35" type="line"/>
      <point x="749" y="35" type="line"/>
      <point x="749" y="14" type="line"/>
      <point x="1204" y="14" type="line"/>
    </contour>
    <contour>
      <point x="763" y="16" type="line"/>
      <point x="1075" y="320" type="line"/>
      <point x="1051" y="329" type="line"/>
      <point x="749" y="35" type="line"/>
    </contour>
    <contour>
      <point x="1075" y="-105" type="line"/>
      <point x="1075" y="329" type="line"/>
      <point x="1051" y="329" type="line"/>
      <point x="1051" y="-105" type="line"/>
    </contour>
  </outline>
</glyph>
<glyph name="questiondown" format="1">
  <advance width="554"/>
  <unicode hex="00BF"/>
  <outline>
    <contour>
      <point x="339" y="373" type="curve"/>
      <point x="339" y="410"/>
      <point x="339" y="449"/>
      <point x="339" y="486" type="curve"/>
      <point x="313" y="486"/>
      <point x="339" y="486"/>
      <point x="313" y="486" type="curve"/>
      <point x="313" y="449"/>
      <point x="313" y="410"/>
      <point x="313" y="373" type="curve"/>
      <point x="339" y="373"/>
      <point x="313" y="373"/>
    </contour>
    <contour>
      <point x="481" y="80" type="line"/>
      <point x="439" y="47"/>
      <point x="379" y="21"/>
      <point x="310" y="21" type="curve"/>
      <point x="186" y="21"/>
      <point x="89" y="73"/>
      <point x="89" y="189" type="curve"/>
      <point x="89" y="317"/>
      <point x="198" y="373"/>
      <point x="339" y="373" type="curve"/>
      <point x="339" y="383"/>
      <point x="339" y="388"/>
      <point x="339" y="397" type="curve"/>
      <point x="184" y="397"/>
      <point x="65" y="330"/>
      <point x="65" y="189" type="curve"/>
      <point x="65" y="59"/>
      <point x="170" y="-3"/>
      <point x="307" y="-3" type="curve"/>
      <point x="384" y="-3"/>
      <point x="448" y="24"/>
      <point x="496" y="61" type="curve"/>
    </contour>
    <contour>
      <point x="311" y="697" type="curve"/>
      <point x="311" y="687"/>
      <point x="316" y="682"/>
      <point x="326" y="682" type="curve"/>
      <point x="335" y="682"/>
      <point x="341" y="688"/>
      <point x="341" y="697" type="curve"/>
      <point x="311" y="697"/>
      <point x="341" y="697"/>
      <point x="311" y="697" type="curve"/>
      <point x="311" y="706"/>
      <point x="316" y="711"/>
      <point x="326" y="711" type="curve"/>
      <point x="335" y="711"/>
      <point x="341" y="705"/>
      <point x="341" y="697" type="curve"/>
      <point x="311" y="697"/>
      <point x="341" y="697"/>
    </contour>
  </outline>
</glyph>
<glyph name="Atilde" format="1">
  <advance width="792"/>
  <unicode hex="00C3"/>
  <outline>
    <contour>
      <point x="623" y="277" type="curve"/>
      <point x="472" y="277"/>
      <point x="321" y="277"/>
      <point x="171" y="277" type="curve"/>
      <point x="160" y="253"/>
      <point x="171" y="277"/>
      <point x="160" y="253" type="curve"/>
      <point x="316" y="253"/>
      <point x="474" y="253"/>
      <point x="630" y="253" type="curve"/>
      <point x="623" y="277"/>
      <point x="630" y="253"/>
    </contour>
    <contour>
      <point x="766" y="0" type="curve"/>
      <point x="650" y="241"/>
      <point x="535" y="481"/>
      <point x="419" y="722" type="curve"/>
      <point x="395" y="722"/>
      <point x="419" y="722"/>
      <point x="395" y="722" type="curve"/>
      <point x="510" y="481"/>
      <point x="625" y="241"/>
      <point x="739" y="0" type="curve"/>
      <point x="766" y="0"/>
      <point x="739" y="0"/>
    </contour>
    <contour>
      <point x="33" y="0" type="curve"/>
      <point x="161" y="241"/>
      <point x="288" y="481"/>
      <point x="417" y="722" type="curve"/>
      <point x="393" y="722"/>
      <point x="417" y="722"/>
      <point x="393" y="722" type="curve"/>
      <point x="264" y="481"/>
      <point x="134" y="241"/>
      <point x="6" y="0" type="curve"/>
      <point x="33" y="0"/>
      <point x="6" y="0"/>
    </contour>
    <contour>
      <point x="621" y="948" type="curve"/>
      <point x="603" y="892"/>
      <point x="580" y="846"/>
      <point x="525" y="846" type="curve"/>
      <point x="477" y="846"/>
      <point x="446" y="862"/>
      <point x="410" y="894" type="curve"/>
      <point x="372" y="928"/>
      <point x="341" y="949"/>
      <point x="291" y="949" type="curve"/>
      <point x="220" y="949"/>
      <point x="181" y="902"/>
      <point x="163" y="830" type="curve"/>
      <point x="183" y="824"/>
      <point x="163" y="830"/>
      <point x="183" y="824" type="curve"/>
      <point x="200" y="885"/>
      <point x="231" y="927"/>
      <point x="291" y="927" type="curve"/>
      <point x="334" y="927"/>
      <point x="360" y="909"/>
      <point x="392" y="879" type="curve"/>
      <point x="433" y="844"/>
      <point x="469" y="824"/>
      <point x="523" y="824" type="curve"/>
      <point x="591" y="824"/>
      <point x="621" y="876"/>
      <point x="643" y="944" type="curve"/>
      <point x="621" y="948"/>
      <point x="643" y="944"/>
    </contour>
  </outline>
</glyph>
<glyph name="Adieresis" format="1">
  <advance width="792"/>
  <unicode hex="00C4"/>
  <outline>
    <contour>
      <point x="623" y="277" type="curve"/>
      <point x="472" y="277"/>
      <point x="321" y="277"/>
      <point x="171" y="277" type="curve"/>
      <point x="160" y="253"/>
      <point x="171" y="277"/>
      <point x="160" y="253" type="curve"/>
      <point x="316" y="253"/>
      <point x="474" y="253"/>
      <point x="630" y="253" type="curve"/>
      <point x="623" y="277"/>
      <point x="630" y="253"/>
    </contour>
    <contour>
      <point x="766" y="0" type="curve"/>
      <point x="650" y="241"/>
      <point x="535" y="481"/>
      <point x="419" y="722" type="curve"/>
      <point x="395" y="722"/>
      <point x="419" y="722"/>
      <point x="395" y="722" type="curve"/>
      <point x="510" y="481"/>
      <point x="625" y="241"/>
      <point x="739" y="0" type="curve"/>
      <point x="766" y="0"/>
      <point x="739" y="0"/>
    </contour>
    <contour>
      <point x="33" y="0" type="curve"/>
      <point x="161" y="241"/>
      <point x="288" y="481"/>
      <point x="417" y="722" type="curve"/>
      <point x="393" y="722"/>
      <point x="417" y="722"/>
      <point x="393" y="722" type="curve"/>
      <point x="264" y="481"/>
      <point x="134" y="241"/>
      <point x="6" y="0" type="curve"/>
      <point x="33" y="0"/>
      <point x="6" y="0"/>
    </contour>
    <contour>
      <point x="348" y="843" type="curve"/>
      <point x="348" y="854"/>
      <point x="340" y="861"/>
      <point x="327" y="861" type="curve"/>
      <point x="316" y="861"/>
      <point x="309" y="854"/>
      <point x="309" y="843" type="curve"/>
      <point x="327" y="843"/>
      <point x="330" y="843"/>
      <point x="348" y="843" type="curve"/>
      <point x="348" y="831"/>
      <point x="340" y="824"/>
      <point x="327" y="824" type="curve"/>
      <point x="316" y="824"/>
      <point x="309" y="831"/>
      <point x="309" y="843" type="curve"/>
      <point x="327" y="843"/>
      <point x="330" y="843"/>
    </contour>
    <contour>
      <point x="503" y="843" type="curve"/>
      <point x="503" y="854"/>
      <point x="495" y="861"/>
      <point x="482" y="861" type="curve"/>
      <point x="471" y="861"/>
      <point x="464" y="854"/>
      <point x="464" y="843" type="curve"/>
      <point x="482" y="843"/>
      <point x="485" y="843"/>
      <point x="503" y="843" type="curve"/>
      <point x="503" y="831"/>
      <point x="495" y="824"/>
      <point x="482" y="824" type="curve"/>
      <point x="471" y="824"/>
      <point x="464" y="831"/>
      <point x="464" y="843" type="curve"/>
      <point x="482" y="843"/>
      <point x="485" y="843"/>
    </contour>
  </outline>
</glyph>
<glyph name="Aring" format="1">
  <advance width="792"/>
  <unicode hex="00C5"/>
  <outline>
    <contour>
      <point x="623" y="277" type="curve"/>
      <point x="472" y="277"/>
      <point x="321" y="277"/>
      <point x="171" y="277" type="curve"/>
      <point x="160" y="253"/>
      <point x="171" y="277"/>
      <point x="160" y="253" type="curve"/>
      <point x="316" y="253"/>
      <point x="474" y="253"/>
      <point x="630" y="253" type="curve"/>
      <point x="623" y="277"/>
      <point x="630" y="253"/>
    </contour>
    <contour>
      <point x="766" y="0" type="curve"/>
      <point x="650" y="241"/>
      <point x="535" y="481"/>
      <point x="419" y="722" type="curve"/>
      <point x="395" y="722"/>
      <point x="419" y="722"/>
      <point x="395" y="722" type="curve"/>
      <point x="510" y="481"/>
      <point x="625" y="241"/>
      <point x="739" y="0" type="curve"/>
      <point x="766" y="0"/>
      <point x="739" y="0"/>
    </contour>
    <contour>
      <point x="33" y="0" type="curve"/>
      <point x="161" y="241"/>
      <point x="288" y="481"/>
      <point x="417" y="722" type="curve"/>
      <point x="393" y="722"/>
      <point x="417" y="722"/>
      <point x="393" y="722" type="curve"/>
      <point x="264" y="481"/>
      <point x="134" y="241"/>
      <point x="6" y="0" type="curve"/>
      <point x="33" y="0"/>
      <point x="6" y="0"/>
    </contour>
    <contour>
      <point x="262" y="940" type="curve"/>
      <point x="262" y="863"/>
      <point x="322" y="824"/>
      <point x="405" y="824" type="curve"/>
      <point x="490" y="824"/>
      <point x="552" y="861"/>
      <point x="552" y="940" type="curve"/>
      <point x="552" y="1020"/>
      <point x="489" y="1057"/>
      <point x="402" y="1057" type="curve"/>
      <point x="320" y="1057"/>
      <point x="262" y="1018"/>
      <point x="262" y="940" type="curve"/>
      <point x="285" y="940"/>
      <point x="262" y="940"/>
      <point x="285" y="940" type="curve"/>
      <point x="285" y="1003"/>
      <point x="334" y="1035"/>
      <point x="402" y="1035" type="curve"/>
      <point x="475" y="1035"/>
      <point x="528" y="1006"/>
      <point x="528" y="940" type="curve"/>
      <point x="528" y="875"/>
      <point x="476" y="845"/>
      <point x="405" y="845" type="curve"/>
      <point x="336" y="845"/>
      <point x="285" y="876"/>
      <point x="285" y="940" type="curve"/>
      <point x="262" y="940"/>
      <point x="285" y="940"/>
    </contour>
  </outline>
</glyph>
<glyph name="AE" format="1">
  <advance width="1075"/>
  <unicode hex="00C6"/>
  <outline>
    <contour>
      <point x="492" y="242" type="curve"/>
      <point x="341" y="242"/>
      <point x="319" y="242"/>
      <point x="169" y="242" type="curve"/>
      <point x="158" y="218"/>
      <point x="169" y="242"/>
      <point x="158" y="218" type="curve"/>
      <point x="314" y="218"/>
      <point x="343" y="218"/>
      <point x="499" y="218" type="curve"/>
      <point x="492" y="242"/>
      <point x="499" y="218"/>
    </contour>
    <contour>
      <point x="28" y="0" type="curve"/>
      <point x="512" y="722" type="line"/>
      <point x="489" y="722"/>
      <point x="507" y="722"/>
      <point x="483" y="722" type="curve"/>
      <point x="-2" y="0" type="line"/>
      <point x="25" y="0"/>
      <point x="1" y="0"/>
    </contour>
    <contour>
      <point x="504" y="363" type="curve"/>
      <point x="644" y="363"/>
      <point x="785" y="363"/>
      <point x="926" y="363" type="curve"/>
      <point x="926" y="385"/>
      <point x="926" y="363"/>
      <point x="926" y="385" type="curve"/>
      <point x="785" y="385"/>
      <point x="644" y="385"/>
      <point x="504" y="385" type="curve"/>
      <point x="504" y="363"/>
      <point x="504" y="385"/>
    </contour>
    <contour>
      <point x="485" y="699" type="curve"/>
      <point x="659" y="699"/>
      <point x="833" y="699"/>
      <point x="1007" y="699" type="curve"/>
      <point x="1007" y="722"/>
      <point x="1007" y="699"/>
      <point x="1007" y="722" type="curve"/>
      <point x="833" y="722"/>
      <point x="659" y="722"/>
      <point x="485" y="722" type="curve"/>
      <point x="485" y="699"/>
      <point x="485" y="722"/>
    </contour>
    <contour>
      <point x="508" y="0" type="curve"/>
      <point x="508" y="722" type="line"/>
      <point x="483" y="722"/>
      <point x="508" y="722"/>
      <point x="483" y="722" type="curve"/>
      <point x="483" y="481"/>
      <point x="483" y="241"/>
      <point x="483" y="0" type="curve"/>
      <point x="508" y="0"/>
      <point x="483" y="0"/>
    </contour>
    <contour>
      <point x="485" y="0" type="curve"/>
      <point x="673" y="0"/>
      <point x="861" y="0"/>
      <point x="1050" y="0" type="curve"/>
      <point x="1050" y="23"/>
      <point x="1050" y="0"/>
      <point x="1050" y="23" type="curve"/>
      <point x="861" y="23"/>
      <point x="673" y="23"/>
      <point x="485" y="23" type="curve"/>
      <point x="485" y="0"/>
      <point x="485" y="23"/>
    </contour>
  </outline>
</glyph>
<glyph name="Ccedilla" format="1">
  <advance width="830"/>
  <unicode hex="00C7"/>
  <outline>
    <contour>
      <point x="771" y="655" type="curve"/>
      <point x="683" y="697"/>
      <point x="589" y="727"/>
      <point x="483" y="727" type="curve"/>
      <point x="232" y="727"/>
      <point x="72" y="591"/>
      <point x="72" y="344" type="curve"/>
      <point x="72" y="116"/>
      <point x="222" y="-5"/>
      <point x="456" y="-5" type="curve"/>
      <point x="593" y="-5"/>
      <point x="682" y="26"/>
      <point x="795" y="96" type="curve"/>
      <point x="779" y="114"/>
      <point x="795" y="96"/>
      <point x="779" y="114" type="curve"/>
      <point x="674" y="45"/>
      <point x="585" y="20"/>
      <point x="457" y="20" type="curve"/>
      <point x="239" y="20"/>
      <point x="97" y="134"/>
      <point x="97" y="345" type="curve"/>
      <point x="97" y="574"/>
      <point x="248" y="703"/>
      <point x="482" y="703" type="curve"/>
      <point x="582" y="703"/>
      <point x="674" y="679"/>
      <point x="758" y="637" type="curve"/>
      <point x="771" y="655"/>
      <point x="758" y="637"/>
    </contour>
    <contour>
      <point x="438" y="15" type="curve"/>
      <point x="419" y="-12"/>
      <point x="399" y="-39"/>
      <point x="380" y="-65" type="curve"/>
      <point x="397" y="-83"/>
      <point x="380" y="-65"/>
      <point x="397" y="-83" type="curve"/>
      <point x="416" y="-55"/>
      <point x="437" y="-27"/>
      <point x="456" y="0" type="curve"/>
      <point x="438" y="15"/>
      <point x="456" y="0"/>
    </contour>
    <contour>
      <point x="397" y="-84" type="curve"/>
      <point x="418" y="-73"/>
      <point x="435" y="-71"/>
      <point x="458" y="-71" type="curve"/>
      <point x="499" y="-71"/>
      <point x="528" y="-89"/>
      <point x="528" y="-128" type="curve"/>
      <point x="528" y="-170"/>
      <point x="490" y="-182"/>
      <point x="441" y="-182" type="curve"/>
      <point x="407" y="-182"/>
      <point x="381" y="-180"/>
      <point x="350" y="-165" type="curve"/>
      <point x="341" y="-183"/>
      <point x="350" y="-165"/>
      <point x="341" y="-183" type="curve"/>
      <point x="375" y="-198"/>
      <point x="403" y="-204"/>
      <point x="440" y="-204" type="curve"/>
      <point x="503" y="-204"/>
      <point x="553" y="-185"/>
      <point x="553" y="-128" type="curve"/>
      <point x="553" y="-76"/>
      <point x="514" y="-49"/>
      <point x="460" y="-49" type="curve"/>
      <point x="430" y="-49"/>
      <point x="409" y="-55"/>
      <point x="381" y="-66" type="curve"/>
      <point x="397" y="-84"/>
      <point x="381" y="-66"/>
    </contour>
  </outline>
</glyph>
<glyph name="Egrave" format="1">
  <advance width="720"/>
  <unicode hex="00C8"/>
  <outline>
    <contour>
      <point x="149" y="363" type="curve"/>
      <point x="289" y="363"/>
      <point x="430" y="363"/>
      <point x="571" y="363" type="curve"/>
      <point x="571" y="385"/>
      <point x="571" y="363"/>
      <point x="571" y="385" type="curve"/>
      <point x="430" y="385"/>
      <point x="289" y="385"/>
      <point x="149" y="385" type="curve"/>
      <point x="149" y="363"/>
      <point x="149" y="385"/>
    </contour>
    <contour>
      <point x="129" y="699" type="curve"/>
      <point x="304" y="699"/>
      <point x="478" y="699"/>
      <point x="652" y="699" type="curve"/>
      <point x="652" y="722"/>
      <point x="652" y="699"/>
      <point x="652" y="722" type="curve"/>
      <point x="478" y="722"/>
      <point x="304" y="722"/>
      <point x="129" y="722" type="curve"/>
      <point x="129" y="699"/>
      <point x="129" y="722"/>
    </contour>
    <contour>
      <point x="153" y="0" type="curve"/>
      <point x="153" y="722" type="line"/>
      <point x="127" y="722"/>
      <point x="153" y="722"/>
      <point x="127" y="722" type="curve"/>
      <point x="127" y="481"/>
      <point x="127" y="241"/>
      <point x="127" y="0" type="curve"/>
      <point x="153" y="0"/>
      <point x="127" y="0"/>
    </contour>
    <contour>
      <point x="129" y="0" type="curve"/>
      <point x="318" y="0"/>
      <point x="506" y="0"/>
      <point x="695" y="0" type="curve"/>
      <point x="695" y="23"/>
      <point x="695" y="0"/>
      <point x="695" y="23" type="curve"/>
      <point x="506" y="23"/>
      <point x="318" y="23"/>
      <point x="129" y="23" type="curve"/>
      <point x="129" y="0"/>
      <point x="129" y="23"/>
    </contour>
    <contour>
      <point x="381" y="825" type="line"/>
      <point x="206" y="991" type="line"/>
      <point x="165" y="991" type="line"/>
      <point x="351" y="825" type="line"/>
    </contour>
  </outline>
</glyph>
<glyph name="Iacute" format="1">
  <advance width="290"/>
  <unicode hex="00CD"/>
  <outline>
    <contour>
      <point x="155" y="0" type="curve"/>
      <point x="155" y="241"/>
      <point x="155" y="481"/>
      <point x="155" y="722" type="curve"/>
      <point x="130" y="722"/>
      <point x="155" y="722"/>
      <point x="130" y="722" type="curve"/>
      <point x="130" y="481"/>
      <point x="130" y="241"/>
      <point x="130" y="0" type="curve"/>
      <point x="155" y="0"/>
      <point x="130" y="0"/>
    </contour>
    <contour>
      <point x="159" y="825" type="line"/>
      <point x="344" y="991" type="line"/>
      <point x="303" y="991" type="line"/>
      <point x="128" y="825" type="line"/>
    </contour>
  </outline>
</glyph>
<glyph name="Icircumflex" format="1">
  <advance width="290"/>
  <unicode hex="00CE"/>
  <outline>
    <contour>
      <point x="166" y="0" type="curve"/>
      <point x="166" y="241"/>
      <point x="166" y="481"/>
      <point x="166" y="722" type="curve"/>
      <point x="140" y="722"/>
      <point x="166" y="722"/>
      <point x="140" y="722" type="curve"/>
      <point x="140" y="481"/>
      <point x="140" y="241"/>
      <point x="140" y="0" type="curve"/>
      <point x="166" y="0"/>
      <point x="140" y="0"/>
    </contour>
    <contour>
      <point x="-16" y="825" type="line"/>
      <point x="169" y="991" type="line"/>
      <point x="129" y="991" type="line"/>
      <point x="-47" y="825" type="line"/>
    </contour>
    <contour>
      <point x="355" y="825" type="line"/>
      <point x="180" y="991" type="line"/>
      <point x="139" y="991" type="line"/>
      <point x="324" y="825" type="line"/>
    </contour>
  </outline>
</glyph>
<glyph name="Idieresis" format="1">
  <advance width="273"/>
  <unicode hex="00CF"/>
  <outline>
    <contour>
      <point x="150" y="0" type="curve"/>
      <point x="150" y="241"/>
      <point x="150" y="481"/>
      <point x="150" y="722" type="curve"/>
      <point x="125" y="722"/>
      <point x="150" y="722"/>
      <point x="125" y="722" type="curve"/>
      <point x="125" y="481"/>
      <point x="125" y="241"/>
      <point x="125" y="0" type="curve"/>
      <point x="150" y="0"/>
      <point x="125" y="0"/>
    </contour>
    <contour>
      <point x="81" y="843" type="curve"/>
      <point x="81" y="854"/>
      <point x="73" y="861"/>
      <point x="61" y="861" type="curve"/>
      <point x="49" y="861"/>
      <point x="42" y="854"/>
      <point x="42" y="843" type="curve"/>
      <point x="60" y="843"/>
      <point x="63" y="843"/>
      <point x="81" y="843" type="curve"/>
      <point x="81" y="831"/>
      <point x="73" y="824"/>
      <point x="61" y="824" type="curve"/>
      <point x="49" y="824"/>
      <point x="42" y="831"/>
      <point x="42" y="843" type="curve"/>
      <point x="60" y="843"/>
      <point x="63" y="843"/>
    </contour>
    <contour>
      <point x="236" y="843" type="curve"/>
      <point x="236" y="854"/>
      <point x="228" y="861"/>
      <point x="216" y="861" type="curve"/>
      <point x="204" y="861"/>
      <point x="197" y="854"/>
      <point x="197" y="843" type="curve"/>
      <point x="215" y="843"/>
      <point x="219" y="843"/>
      <point x="236" y="843" type="curve"/>
      <point x="236" y="831"/>
      <point x="228" y="824"/>
      <point x="216" y="824" type="curve"/>
      <point x="204" y="824"/>
      <point x="197" y="831"/>
      <point x="197" y="843" type="curve"/>
      <point x="215" y="843"/>
      <point x="219" y="843"/>
    </contour>
  </outline>
</glyph>
<glyph name="Ntilde" format="1">
  <advance width="978"/>
  <unicode hex="00D1"/>
  <outline>
    <contour>
      <point x="849" y="0" type="curve"/>
      <point x="620" y="241"/>
      <point x="391" y="481"/>
      <point x="162" y="722" type="curve"/>
      <point x="131" y="722"/>
      <point x="159" y="722"/>
      <point x="127" y="722" type="curve"/>
      <point x="357" y="481"/>
      <point x="586" y="241"/>
      <point x="815" y="0" type="curve"/>
      <point x="846" y="0"/>
      <point x="819" y="0"/>
    </contour>
    <contour>
      <point x="824" y="722" type="curve"/>
      <point x="824" y="481"/>
      <point x="824" y="241"/>
      <point x="824" y="0" type="curve"/>
      <point x="850" y="0"/>
      <point x="824" y="0"/>
      <point x="850" y="0" type="curve"/>
      <point x="850" y="241"/>
      <point x="850" y="481"/>
      <point x="850" y="722" type="curve"/>
      <point x="824" y="722"/>
      <point x="850" y="722"/>
    </contour>
    <contour>
      <point x="154" y="0" type="curve"/>
      <point x="154" y="241"/>
      <point x="154" y="481"/>
      <point x="154" y="722" type="curve"/>
      <point x="127" y="722"/>
      <point x="154" y="722"/>
      <point x="127" y="722" type="curve"/>
      <point x="127" y="481"/>
      <point x="127" y="241"/>
      <point x="127" y="0" type="curve"/>
      <point x="154" y="0"/>
      <point x="127" y="0"/>
    </contour>
    <contour>
      <point x="719" y="948" type="curve"/>
      <point x="701" y="892"/>
      <point x="678" y="846"/>
      <point x="623" y="846" type="curve"/>
      <point x="575" y="846"/>
      <point x="543" y="862"/>
      <point x="507" y="894" type="curve"/>
      <point x="469" y="928"/>
      <point x="439" y="949"/>
      <point x="389" y="949" type="curve"/>
      <point x="317" y="949"/>
      <point x="278" y="902"/>
      <point x="260" y="830" type="curve"/>
      <point x="280" y="824"/>
      <point x="260" y="830"/>
      <point x="280" y="824" type="curve"/>
      <point x="297" y="885"/>
      <point x="328" y="927"/>
      <point x="389" y="927" type="curve"/>
      <point x="432" y="927"/>
      <point x="458" y="909"/>
      <point x="490" y="879" type="curve"/>
      <point x="531" y="844"/>
      <point x="567" y="824"/>
      <point x="621" y="824" type="curve"/>
      <point x="689" y="824"/>
      <point x="718" y="876"/>
      <point x="740" y="944" type="curve"/>
      <point x="719" y="948"/>
      <point x="740" y="944"/>
    </contour>
  </outline>
</glyph>
<glyph name="Otilde" format="1">
  <advance width="912"/>
  <unicode hex="00D5"/>
  <outline>
    <contour>
      <point x="97" y="360" type="curve" name="FullCurve"/>
      <point x="97" y="572"/>
      <point x="238" y="704"/>
      <point x="454" y="704" type="curve" name="FullCurve"/>
      <point x="671" y="704"/>
      <point x="814" y="574"/>
      <point x="814" y="363" type="curve" name="FullCurve"/>
      <point x="814" y="151"/>
      <point x="673" y="19"/>
      <point x="457" y="19" type="curve" name="FullCurve"/>
      <point x="240" y="19"/>
      <point x="97" y="148"/>
      <point x="97" y="360" type="curve" name="FullCurve"/>
      <point x="72" y="360"/>
      <point x="97" y="360"/>
      <point x="72" y="360" type="curve" name="FullCurve"/>
      <point x="72" y="132"/>
      <point x="225" y="-5"/>
      <point x="456" y="-5" type="curve" name="FullCurve"/>
      <point x="688" y="-5"/>
      <point x="840" y="134"/>
      <point x="840" y="363" type="curve" name="FullCurve"/>
      <point x="840" y="590"/>
      <point x="687" y="727"/>
      <point x="456" y="727" type="curve" name="FullCurve"/>
      <point x="223" y="727"/>
      <point x="72" y="588"/>
      <point x="72" y="360" type="curve" name="FullCurve"/>
      <point x="97" y="360"/>
      <point x="72" y="360"/>
    </contour>
    <contour>
      <point x="671" y="948" type="curve"/>
      <point x="653" y="892"/>
      <point x="630" y="846"/>
      <point x="575" y="846" type="curve"/>
      <point x="527" y="846"/>
      <point x="495" y="862"/>
      <point x="459" y="894" type="curve"/>
      <point x="421" y="928"/>
      <point x="391" y="949"/>
      <point x="341" y="949" type="curve"/>
      <point x="269" y="949"/>
      <point x="230" y="902"/>
      <point x="212" y="830" type="curve"/>
      <point x="232" y="824"/>
      <point x="212" y="830"/>
      <point x="232" y="824" type="curve"/>
      <point x="249" y="885"/>
      <point x="280" y="927"/>
      <point x="341" y="927" type="curve"/>
      <point x="384" y="927"/>
      <point x="410" y="909"/>
      <point x="442" y="879" type="curve"/>
      <point x="483" y="844"/>
      <point x="519" y="824"/>
      <point x="573" y="824" type="curve"/>
      <point x="641" y="824"/>
      <point x="670" y="876"/>
      <point x="692" y="944" type="curve"/>
      <point x="671" y="948"/>
      <point x="692" y="944"/>
    </contour>
  </outline>
</glyph>
<glyph name="multiply" format="1">
  <advance width="546"/>
  <unicode hex="00D7"/>
  <outline>
    <contour>
      <point x="88" y="107" type="line"/>
      <point x="471" y="490" type="line"/>
      <point x="453" y="508" type="line"/>
      <point x="71" y="125" type="line"/>
    </contour>
    <contour>
      <point x="476" y="122" type="line"/>
      <point x="89" y="510" type="line"/>
      <point x="72" y="493" type="line"/>
      <point x="458" y="104" type="line"/>
    </contour>
  </outline>
</glyph>
<glyph name="Ugrave" format="1">
  <advance width="905"/>
  <unicode hex="00D9"/>
  <outline>
    <contour>
      <point x="117" y="721" type="curve"/>
      <point x="117" y="544"/>
      <point x="117" y="449"/>
      <point x="117" y="271" type="curve"/>
      <point x="117" y="72"/>
      <point x="242" y="-5"/>
      <point x="455" y="-5" type="curve"/>
      <point x="664" y="-5"/>
      <point x="788" y="69"/>
      <point x="788" y="263" type="curve"/>
      <point x="788" y="444"/>
      <point x="788" y="541"/>
      <point x="788" y="721" type="curve"/>
      <point x="776" y="721"/>
      <point x="775" y="721"/>
      <point x="764" y="721" type="curve"/>
      <point x="764" y="539"/>
      <point x="764" y="442"/>
      <point x="764" y="259" type="curve"/>
      <point x="764" y="88"/>
      <point x="648" y="20"/>
      <point x="457" y="20" type="curve"/>
      <point x="258" y="20"/>
      <point x="142" y="90"/>
      <point x="142" y="275" type="curve"/>
      <point x="142" y="451"/>
      <point x="142" y="546"/>
      <point x="142" y="721" type="curve"/>
      <point x="130" y="721"/>
      <point x="129" y="721"/>
    </contour>
    <contour>
      <point x="478" y="825" type="line"/>
      <point x="303" y="991" type="line"/>
      <point x="262" y="991" type="line"/>
      <point x="448" y="825" type="line"/>
    </contour>
  </outline>
</glyph>
<glyph name="Udieresis" format="1">
  <advance width="905"/>
  <unicode hex="00DC"/>
  <outline>
    <contour>
      <point x="117" y="721" type="curve"/>
      <point x="117" y="544"/>
      <point x="117" y="449"/>
      <point x="117" y="271" type="curve"/>
      <point x="117" y="72"/>
      <point x="242" y="-5"/>
      <point x="455" y="-5" type="curve"/>
      <point x="664" y="-5"/>
      <point x="788" y="69"/>
      <point x="788" y="263" type="curve"/>
      <point x="788" y="444"/>
      <point x="788" y="541"/>
      <point x="788" y="721" type="curve"/>
      <point x="776" y="721"/>
      <point x="775" y="721"/>
      <point x="764" y="721" type="curve"/>
      <point x="764" y="539"/>
      <point x="764" y="442"/>
      <point x="764" y="259" type="curve"/>
      <point x="764" y="88"/>
      <point x="648" y="20"/>
      <point x="457" y="20" type="curve"/>
      <point x="258" y="20"/>
      <point x="142" y="90"/>
      <point x="142" y="275" type="curve"/>
      <point x="142" y="451"/>
      <point x="142" y="546"/>
      <point x="142" y="721" type="curve"/>
      <point x="130" y="721"/>
      <point x="129" y="721"/>
    </contour>
    <contour>
      <point x="403" y="843" type="curve"/>
      <point x="403" y="854"/>
      <point x="395" y="861"/>
      <point x="382" y="861" type="curve"/>
      <point x="371" y="861"/>
      <point x="364" y="854"/>
      <point x="364" y="843" type="curve"/>
      <point x="382" y="843"/>
      <point x="385" y="843"/>
      <point x="403" y="843" type="curve"/>
      <point x="403" y="831"/>
      <point x="395" y="824"/>
      <point x="382" y="824" type="curve"/>
      <point x="371" y="824"/>
      <point x="364" y="831"/>
      <point x="364" y="843" type="curve"/>
      <point x="382" y="843"/>
      <point x="385" y="843"/>
    </contour>
    <contour>
      <point x="558" y="843" type="curve"/>
      <point x="558" y="854"/>
      <point x="550" y="861"/>
      <point x="537" y="861" type="curve"/>
      <point x="526" y="861"/>
      <point x="519" y="854"/>
      <point x="519" y="843" type="curve"/>
      <point x="537" y="843"/>
      <point x="540" y="843"/>
      <point x="558" y="843" type="curve"/>
      <point x="558" y="831"/>
      <point x="550" y="824"/>
      <point x="537" y="824" type="curve"/>
      <point x="526" y="824"/>
      <point x="519" y="831"/>
      <point x="519" y="843" type="curve"/>
      <point x="537" y="843"/>
      <point x="540" y="843"/>
    </contour>
  </outline>
</glyph>
<glyph name="Thorn" format="1">
  <advance width="671"/>
  <unicode hex="00DE"/>
  <outline>
    <contour>
      <point x="140" y="223" type="curve"/>
      <point x="207" y="196"/>
      <point x="268" y="177"/>
      <point x="341" y="177" type="curve"/>
      <point x="499" y="180"/>
      <point x="620" y="246"/>
      <point x="620" y="391" type="curve"/>
      <point x="620" y="548"/>
      <point x="483" y="619"/>
      <point x="310" y="619" type="curve"/>
      <point x="255" y="619"/>
      <point x="200" y="619"/>
      <point x="146" y="619" type="curve"/>
      <point x="146" y="596"/>
      <point x="146" y="619"/>
      <point x="146" y="596" type="curve"/>
      <point x="199" y="596"/>
      <point x="253" y="596"/>
      <point x="306" y="596" type="curve"/>
      <point x="467" y="596"/>
      <point x="593" y="535"/>
      <point x="593" y="390" type="curve"/>
      <point x="593" y="260"/>
      <point x="484" y="200"/>
      <point x="344" y="200" type="curve"/>
      <point x="269" y="200"/>
      <point x="216" y="216"/>
      <point x="148" y="244" type="curve"/>
      <point x="140" y="223"/>
      <point x="148" y="244"/>
    </contour>
    <contour>
      <point x="154" y="0" type="curve"/>
      <point x="154" y="241"/>
      <point x="154" y="481"/>
      <point x="154" y="722" type="curve"/>
      <point x="127" y="722"/>
      <point x="154" y="722"/>
      <point x="127" y="722" type="curve"/>
      <point x="127" y="481"/>
      <point x="127" y="241"/>
      <point x="127" y="0" type="curve"/>
      <point x="154" y="0"/>
      <point x="127" y="0"/>
    </contour>
  </outline>
</glyph>
<glyph name="germandbls" format="1">
  <advance width="677"/>
  <unicode hex="00DF"/>
  <outline>
    <contour>
      <point x="133" y="0" type="curve"/>
      <point x="133" y="207"/>
      <point x="133" y="412"/>
      <point x="133" y="619" type="curve"/>
      <point x="108" y="619"/>
      <point x="133" y="619"/>
      <point x="108" y="619" type="curve"/>
      <point x="108" y="412"/>
      <point x="108" y="207"/>
      <point x="108" y="0" type="curve"/>
      <point x="133" y="0"/>
      <point x="108" y="0"/>
    </contour>
    <contour>
      <point x="133" y="619" type="curve"/>
      <point x="133" y="728"/>
      <point x="220" y="782"/>
      <point x="338" y="782" type="curve"/>
      <point x="461" y="782"/>
      <point x="559" y="739"/>
      <point x="559" y="627" type="curve"/>
      <point x="559" y="518"/>
      <point x="452" y="471"/>
      <point x="319" y="471" type="curve"/>
      <point x="319" y="453"/>
      <point x="319" y="471"/>
      <point x="319" y="453" type="curve"/>
      <point x="465" y="453"/>
      <point x="582" y="498"/>
      <point x="582" y="628" type="curve"/>
      <point x="582" y="752"/>
      <point x="478" y="804"/>
      <point x="340" y="804" type="curve"/>
      <point x="206" y="804"/>
      <point x="108" y="743"/>
      <point x="108" y="619" type="curve"/>
      <point x="133" y="619"/>
      <point x="108" y="619"/>
    </contour>
    <contour>
      <point x="442" y="87" type="curve"/>
      <point x="545" y="106"/>
      <point x="625" y="158"/>
      <point x="625" y="273" type="curve"/>
      <point x="625" y="419"/>
      <point x="497" y="471"/>
      <point x="319" y="471" type="curve"/>
      <point x="319" y="453"/>
      <point x="319" y="471"/>
      <point x="319" y="453" type="curve"/>
      <point x="460" y="453"/>
      <point x="601" y="413"/>
      <point x="601" y="272" type="curve"/>
      <point x="601" y="173"/>
      <point x="522" y="128"/>
      <point x="435" y="109" type="curve"/>
      <point x="442" y="87"/>
      <point x="435" y="109"/>
    </contour>
  </outline>
</glyph>
<glyph name="acircumflex" format="1">
  <advance width="610"/>
  <unicode hex="00E2"/>
  <outline>
    <contour>
      <point x="529" y="0" type="curve"/>
      <point x="529" y="130"/>
      <point x="529" y="260"/>
      <point x="529" y="390" type="curve"/>
      <point x="529" y="510"/>
      <point x="444" y="538"/>
      <point x="317" y="538" type="curve"/>
      <point x="212" y="538"/>
      <point x="135" y="507"/>
      <point x="72" y="464" type="curve"/>
      <point x="82" y="445"/>
      <point x="72" y="464"/>
      <point x="82" y="445" type="curve"/>
      <point x="141" y="483"/>
      <point x="214" y="515"/>
      <point x="313" y="515" type="curve"/>
      <point x="428" y="515"/>
      <point x="503" y="492"/>
      <point x="503" y="383" type="curve"/>
      <point x="503" y="255"/>
      <point x="503" y="128"/>
      <point x="503" y="0" type="curve"/>
      <point x="529" y="0"/>
      <point x="503" y="0"/>
    </contour>
    <contour>
      <point x="514" y="320" type="curve"/>
      <point x="415" y="309"/>
      <point x="356" y="304"/>
      <point x="257" y="293" type="curve"/>
      <point x="145" y="281"/>
      <point x="62" y="252"/>
      <point x="62" y="140" type="curve"/>
      <point x="62" y="41"/>
      <point x="136" y="-5"/>
      <point x="250" y="-5" type="curve"/>
      <point x="376" y="-5"/>
      <point x="440" y="56"/>
      <point x="522" y="149" type="curve"/>
      <point x="507" y="164"/>
      <point x="524" y="151"/>
      <point x="509" y="165" type="curve"/>
      <point x="436" y="85"/>
      <point x="370" y="18"/>
      <point x="255" y="18" type="curve"/>
      <point x="152" y="18"/>
      <point x="87" y="55"/>
      <point x="87" y="142" type="curve"/>
      <point x="87" y="239"/>
      <point x="159" y="262"/>
      <point x="256" y="273" type="curve"/>
      <point x="356" y="283"/>
      <point x="415" y="289"/>
      <point x="515" y="300" type="curve"/>
      <point x="514" y="320"/>
      <point x="515" y="300"/>
    </contour>
    <contour>
      <point x="148" y="670" type="line"/>
      <point x="333" y="836" type="line"/>
      <point x="293" y="836" type="line"/>
      <point x="117" y="670" type="line"/>
    </contour>
    <contour>
      <point x="519" y="670" type="line"/>
      <point x="344" y="836" type="line"/>
      <point x="303" y="836" type="line"/>
      <point x="488" y="670" type="line"/>
    </contour>
  </outline>
</glyph>
<glyph name="atilde" format="1">
  <advance width="645"/>
  <unicode hex="00E3"/>
  <outline>
    <contour>
      <point x="529" y="0" type="curve"/>
      <point x="529" y="130"/>
      <point x="529" y="260"/>
      <point x="529" y="390" type="curve"/>
      <point x="529" y="510"/>
      <point x="444" y="538"/>
      <point x="317" y="538" type="curve"/>
      <point x="212" y="538"/>
      <point x="135" y="507"/>
      <point x="72" y="464" type="curve"/>
      <point x="82" y="445"/>
      <point x="72" y="464"/>
      <point x="82" y="445" type="curve"/>
      <point x="141" y="483"/>
      <point x="214" y="515"/>
      <point x="313" y="515" type="curve"/>
      <point x="428" y="515"/>
      <point x="503" y="492"/>
      <point x="503" y="383" type="curve"/>
      <point x="503" y="255"/>
      <point x="503" y="128"/>
      <point x="503" y="0" type="curve"/>
      <point x="529" y="0"/>
      <point x="503" y="0"/>
    </contour>
    <contour>
      <point x="514" y="320" type="curve"/>
      <point x="415" y="309"/>
      <point x="356" y="304"/>
      <point x="257" y="293" type="curve"/>
      <point x="145" y="281"/>
      <point x="62" y="252"/>
      <point x="62" y="140" type="curve"/>
      <point x="62" y="41"/>
      <point x="136" y="-5"/>
      <point x="250" y="-5" type="curve"/>
      <point x="376" y="-5"/>
      <point x="440" y="56"/>
      <point x="522" y="149" type="curve"/>
      <point x="507" y="164"/>
      <point x="524" y="151"/>
      <point x="509" y="165" type="curve"/>
      <point x="436" y="85"/>
      <point x="370" y="18"/>
      <point x="255" y="18" type="curve"/>
      <point x="152" y="18"/>
      <point x="87" y="55"/>
      <point x="87" y="142" type="curve"/>
      <point x="87" y="239"/>
      <point x="159" y="262"/>
      <point x="256" y="273" type="curve"/>
      <point x="356" y="283"/>
      <point x="415" y="289"/>
      <point x="515" y="300" type="curve"/>
      <point x="514" y="320"/>
      <point x="515" y="300"/>
    </contour>
    <contour>
      <point x="535" y="794" type="curve"/>
      <point x="517" y="738"/>
      <point x="494" y="691"/>
      <point x="438" y="691" type="curve"/>
      <point x="390" y="691"/>
      <point x="359" y="708"/>
      <point x="323" y="740" type="curve"/>
      <point x="285" y="774"/>
      <point x="255" y="795"/>
      <point x="204" y="795" type="curve"/>
      <point x="133" y="795"/>
      <point x="94" y="748"/>
      <point x="76" y="676" type="curve"/>
      <point x="96" y="669"/>
      <point x="76" y="676"/>
      <point x="96" y="669" type="curve"/>
      <point x="113" y="731"/>
      <point x="144" y="773"/>
      <point x="204" y="773" type="curve"/>
      <point x="248" y="773"/>
      <point x="274" y="755"/>
      <point x="305" y="725" type="curve"/>
      <point x="346" y="690"/>
      <point x="382" y="669"/>
      <point x="436" y="669" type="curve"/>
      <point x="504" y="669"/>
      <point x="534" y="722"/>
      <point x="556" y="790" type="curve"/>
      <point x="535" y="794"/>
      <point x="556" y="790"/>
    </contour>
  </outline>
</glyph>
<glyph name="adieresis" format="1">
  <advance width="631"/>
  <unicode hex="00E4"/>
  <outline>
    <contour>
      <point x="529" y="0" type="curve"/>
      <point x="529" y="130"/>
      <point x="529" y="260"/>
      <point x="529" y="390" type="curve"/>
      <point x="529" y="510"/>
      <point x="444" y="538"/>
      <point x="317" y="538" type="curve"/>
      <point x="212" y="538"/>
      <point x="135" y="507"/>
      <point x="72" y="464" type="curve"/>
      <point x="82" y="445"/>
      <point x="72" y="464"/>
      <point x="82" y="445" type="curve"/>
      <point x="141" y="483"/>
      <point x="214" y="515"/>
      <point x="313" y="515" type="curve"/>
      <point x="428" y="515"/>
      <point x="503" y="492"/>
      <point x="503" y="383" type="curve"/>
      <point x="503" y="255"/>
      <point x="503" y="128"/>
      <point x="503" y="0" type="curve"/>
      <point x="529" y="0"/>
      <point x="503" y="0"/>
    </contour>
    <contour>
      <point x="514" y="320" type="curve"/>
      <point x="415" y="309"/>
      <point x="356" y="304"/>
      <point x="257" y="293" type="curve"/>
      <point x="145" y="281"/>
      <point x="62" y="252"/>
      <point x="62" y="140" type="curve"/>
      <point x="62" y="41"/>
      <point x="136" y="-5"/>
      <point x="250" y="-5" type="curve"/>
      <point x="376" y="-5"/>
      <point x="440" y="56"/>
      <point x="522" y="149" type="curve"/>
      <point x="507" y="164"/>
      <point x="524" y="151"/>
      <point x="509" y="165" type="curve"/>
      <point x="436" y="85"/>
      <point x="370" y="18"/>
      <point x="255" y="18" type="curve"/>
      <point x="152" y="18"/>
      <point x="87" y="55"/>
      <point x="87" y="142" type="curve"/>
      <point x="87" y="239"/>
      <point x="159" y="262"/>
      <point x="256" y="273" type="curve"/>
      <point x="356" y="283"/>
      <point x="415" y="289"/>
      <point x="515" y="300" type="curve"/>
      <point x="514" y="320"/>
      <point x="515" y="300"/>
    </contour>
    <contour>
      <point x="261" y="689" type="curve"/>
      <point x="261" y="700"/>
      <point x="253" y="707"/>
      <point x="241" y="707" type="curve"/>
      <point x="229" y="707"/>
      <point x="222" y="700"/>
      <point x="222" y="689" type="curve"/>
      <point x="240" y="689"/>
      <point x="243" y="689"/>
      <point x="261" y="689" type="curve"/>
      <point x="261" y="677"/>
      <point x="253" y="670"/>
      <point x="241" y="670" type="curve"/>
      <point x="229" y="670"/>
      <point x="222" y="677"/>
      <point x="222" y="689" type="curve"/>
      <point x="240" y="689"/>
      <point x="243" y="689"/>
    </contour>
    <contour>
      <point x="416" y="689" type="curve"/>
      <point x="416" y="700"/>
      <point x="408" y="707"/>
      <point x="396" y="707" type="curve"/>
      <point x="384" y="707"/>
      <point x="377" y="700"/>
      <point x="377" y="689" type="curve"/>
      <point x="395" y="689"/>
      <point x="398" y="689"/>
      <point x="416" y="689" type="curve"/>
      <point x="416" y="677"/>
      <point x="408" y="670"/>
      <point x="396" y="670" type="curve"/>
      <point x="384" y="670"/>
      <point x="377" y="677"/>
      <point x="377" y="689" type="curve"/>
      <point x="395" y="689"/>
      <point x="398" y="689"/>
    </contour>
  </outline>
</glyph>
<glyph name="ae" format="1">
  <advance width="1096"/>
  <unicode hex="00E6"/>
  <outline>
    <contour>
      <point x="536" y="283" type="curve"/>
      <point x="536" y="413"/>
      <point x="536" y="260"/>
      <point x="536" y="390" type="curve"/>
      <point x="536" y="510"/>
      <point x="452" y="538"/>
      <point x="325" y="538" type="curve"/>
      <point x="220" y="538"/>
      <point x="143" y="507"/>
      <point x="80" y="464" type="curve"/>
      <point x="89" y="445"/>
      <point x="87" y="466"/>
      <point x="96" y="447" type="curve"/>
      <point x="156" y="485"/>
      <point x="222" y="515"/>
      <point x="321" y="515" type="curve"/>
      <point x="436" y="515"/>
      <point x="511" y="492"/>
      <point x="511" y="383" type="curve"/>
      <point x="511" y="255"/>
      <point x="511" y="411"/>
      <point x="511" y="283" type="curve"/>
      <point x="537" y="283"/>
      <point x="510" y="283"/>
    </contour>
    <contour>
      <point x="524" y="294" type="curve"/>
      <point x="423" y="294"/>
      <point x="363" y="296"/>
      <point x="258" y="286" type="curve"/>
      <point x="146" y="274"/>
      <point x="61" y="252"/>
      <point x="61" y="148" type="curve"/>
      <point x="61" y="42"/>
      <point x="135" y="-5"/>
      <point x="249" y="-5" type="curve"/>
      <point x="379" y="-5"/>
      <point x="465" y="47"/>
      <point x="553" y="143" type="curve"/>
      <point x="541" y="156"/>
      <point x="551" y="148"/>
      <point x="538" y="160" type="curve"/>
      <point x="453" y="73"/>
      <point x="374" y="18"/>
      <point x="254" y="18" type="curve"/>
      <point x="158" y="18"/>
      <point x="86" y="55"/>
      <point x="86" y="150" type="curve"/>
      <point x="86" y="227"/>
      <point x="162" y="255"/>
      <point x="258" y="265" type="curve"/>
      <point x="363" y="275"/>
      <point x="423" y="272"/>
      <point x="523" y="272" type="curve"/>
      <point x="522" y="291"/>
      <point x="525" y="275"/>
    </contour>
    <contour>
      <point x="524" y="272" type="curve"/>
      <point x="692" y="272"/>
      <point x="859" y="272"/>
      <point x="1027" y="272" type="curve"/>
      <point x="1028" y="272"/>
      <point x="1027" y="272"/>
      <point x="1028" y="272" type="curve"/>
      <point x="1028" y="275"/>
      <point x="1028" y="272"/>
      <point x="1028" y="275" type="curve"/>
      <point x="1028" y="284"/>
      <point x="1028" y="293"/>
      <point x="1028" y="302" type="curve"/>
      <point x="1028" y="458"/>
      <point x="932" y="537"/>
      <point x="777" y="537" type="curve"/>
      <point x="610" y="537"/>
      <point x="511" y="448"/>
      <point x="511" y="280" type="curve"/>
      <point x="511" y="94"/>
      <point x="623" y="-6"/>
      <point x="807" y="-6" type="curve"/>
      <point x="896" y="-6"/>
      <point x="954" y="17"/>
      <point x="1026" y="73" type="curve"/>
      <point x="1010" y="90"/>
      <point x="1026" y="73"/>
      <point x="1010" y="90" type="curve"/>
      <point x="943" y="39"/>
      <point x="889" y="17"/>
      <point x="807" y="17" type="curve"/>
      <point x="639" y="17"/>
      <point x="536" y="110"/>
      <point x="536" y="280" type="curve"/>
      <point x="536" y="432"/>
      <point x="625" y="514"/>
      <point x="775" y="514" type="curve"/>
      <point x="915" y="514"/>
      <point x="1004" y="444"/>
      <point x="1004" y="304" type="curve"/>
      <point x="1004" y="294"/>
      <point x="1004" y="285"/>
      <point x="1004" y="275" type="curve"/>
      <point x="1008" y="278"/>
      <point x="1012" y="281"/>
      <point x="1016" y="284" type="curve"/>
      <point x="1020" y="288"/>
      <point x="1023" y="291"/>
      <point x="1027" y="294" type="curve"/>
      <point x="859" y="294"/>
      <point x="692" y="294"/>
      <point x="524" y="294" type="curve"/>
      <point x="524" y="272"/>
      <point x="524" y="295"/>
    </contour>
  </outline>
</glyph>
<glyph name="ccedilla" format="1">
  <advance width="632"/>
  <unicode hex="00E7"/>
  <outline>
    <contour>
      <point x="573" y="473" type="curve"/>
      <point x="513" y="511"/>
      <point x="441" y="538"/>
      <point x="367" y="538" type="curve"/>
      <point x="184" y="538"/>
      <point x="67" y="447"/>
      <point x="67" y="267" type="curve"/>
      <point x="67" y="87"/>
      <point x="181" y="-5"/>
      <point x="365" y="-5" type="curve"/>
      <point x="447" y="-5"/>
      <point x="528" y="26"/>
      <point x="587" y="82" type="curve"/>
      <point x="569" y="99"/>
      <point x="587" y="82"/>
      <point x="569" y="99" type="curve"/>
      <point x="513" y="46"/>
      <point x="440" y="18"/>
      <point x="365" y="18" type="curve"/>
      <point x="200" y="18"/>
      <point x="92" y="101"/>
      <point x="92" y="267" type="curve"/>
      <point x="92" y="433"/>
      <point x="200" y="515"/>
      <point x="365" y="515" type="curve"/>
      <point x="433" y="515"/>
      <point x="501" y="492"/>
      <point x="558" y="457" type="curve"/>
      <point x="573" y="473"/>
      <point x="558" y="457"/>
    </contour>
    <contour>
      <point x="357" y="13" type="curve"/>
      <point x="338" y="-14"/>
      <point x="318" y="-41"/>
      <point x="299" y="-68" type="curve"/>
      <point x="316" y="-86"/>
      <point x="299" y="-68"/>
      <point x="316" y="-86" type="curve"/>
      <point x="335" y="-58"/>
      <point x="356" y="-30"/>
      <point x="375" y="-2" type="curve"/>
      <point x="357" y="13"/>
      <point x="375" y="-2"/>
    </contour>
    <contour>
      <point x="316" y="-87" type="curve"/>
      <point x="337" y="-76"/>
      <point x="353" y="-74"/>
      <point x="377" y="-74" type="curve"/>
      <point x="418" y="-74"/>
      <point x="447" y="-92"/>
      <point x="447" y="-130" type="curve"/>
      <point x="447" y="-173"/>
      <point x="408" y="-185"/>
      <point x="360" y="-185" type="curve"/>
      <point x="326" y="-185"/>
      <point x="300" y="-183"/>
      <point x="269" y="-168" type="curve"/>
      <point x="259" y="-186"/>
      <point x="269" y="-168"/>
      <point x="259" y="-186" type="curve"/>
      <point x="294" y="-201"/>
      <point x="321" y="-207"/>
      <point x="359" y="-207" type="curve"/>
      <point x="422" y="-207"/>
      <point x="472" y="-187"/>
      <point x="472" y="-130" type="curve"/>
      <point x="472" y="-79"/>
      <point x="433" y="-52"/>
      <point x="379" y="-52" type="curve"/>
      <point x="349" y="-52"/>
      <point x="328" y="-58"/>
      <point x="300" y="-69" type="curve"/>
      <point x="316" y="-87"/>
      <point x="300" y="-69"/>
    </contour>
  </outline>
</glyph>
